<svg width="25" height="25" viewBox="0 0 25 25" fill="none" xmlns="http://www.w3.org/2000/svg">
<g clip-path="url(#clip0_3346_21347)">
<path d="M12.5 25C19.4036 25 25 19.4036 25 12.5C25 5.59644 19.4036 0 12.5 0C5.59644 0 0 5.59644 0 12.5C0 19.4036 5.59644 25 12.5 25Z" fill="#F0F0F0"/>
<path d="M11.9565 12.5001H25C25 11.3719 24.8496 10.279 24.5694 9.23926H11.9565V12.5001Z" fill="#D80027"/>
<path d="M11.9565 5.97866H23.1653C22.4001 4.73003 21.4218 3.62637 20.2811 2.71777H11.9565V5.97866Z" fill="#D80027"/>
<path d="M12.5 25.0006C15.4419 25.0006 18.1458 23.9838 20.2811 22.2832H4.71899C6.85425 23.9838 9.5582 25.0006 12.5 25.0006Z" fill="#D80027"/>
<path d="M1.83472 19.0216H23.1654C23.7797 18.0192 24.2561 16.9235 24.5694 15.7607H0.430664C0.743994 16.9235 1.22041 18.0192 1.83472 19.0216Z" fill="#D80027"/>
<path d="M5.79023 1.95205H6.92935L5.86978 2.72183L6.27451 3.96738L5.21499 3.19761L4.15547 3.96738L4.50508 2.89136C3.57217 3.66846 2.75449 4.57891 2.08066 5.59336H2.44565L1.77119 6.08335C1.66611 6.25864 1.56533 6.43672 1.46875 6.61743L1.79082 7.60869L1.18994 7.17212C1.04058 7.48857 0.903955 7.81216 0.781152 8.14248L1.13599 9.23467H2.44565L1.38608 10.0044L1.79082 11.25L0.731299 10.4802L0.0966309 10.9414C0.0331055 11.452 0 11.9721 0 12.5H12.5C12.5 5.59648 12.5 4.78262 12.5 0C10.0307 0 7.72876 0.716309 5.79023 1.95205ZM6.27451 11.25L5.21499 10.4802L4.15547 11.25L4.5602 10.0044L3.50063 9.23467H4.8103L5.21499 7.98911L5.61968 9.23467H6.92935L5.86978 10.0044L6.27451 11.25ZM5.86978 6.36313L6.27451 7.60869L5.21499 6.83892L4.15547 7.60869L4.5602 6.36313L3.50063 5.59336H4.8103L5.21499 4.3478L5.61968 5.59336H6.92935L5.86978 6.36313ZM10.7582 11.25L9.69868 10.4802L8.63916 11.25L9.0439 10.0044L7.98433 9.23467H9.29399L9.69868 7.98911L10.1034 9.23467H11.413L10.3535 10.0044L10.7582 11.25ZM10.3535 6.36313L10.7582 7.60869L9.69868 6.83892L8.63916 7.60869L9.0439 6.36313L7.98433 5.59336H9.29399L9.69868 4.3478L10.1034 5.59336H11.413L10.3535 6.36313ZM10.3535 2.72183L10.7582 3.96738L9.69868 3.19761L8.63916 3.96738L9.0439 2.72183L7.98433 1.95205H9.29399L9.69868 0.706494L10.1034 1.95205H11.413L10.3535 2.72183Z" fill="#0052B4"/>
</g>
<defs>
<clipPath id="clip0_3346_21347">
<rect width="25" height="25" fill="white"/>
</clipPath>
</defs>
</svg>
