<svg width="10" height="20" viewBox="0 0 10 20" fill="none" xmlns="http://www.w3.org/2000/svg">
<path fill-rule="evenodd" clip-rule="evenodd" d="M8.9043 20C8.75088 19.9994 8.59939 19.9658 8.46007 19.9015C8.32075 19.8372 8.19687 19.7438 8.09679 19.6275L0.286689 10.7038C0.101708 10.4885 0 10.214 0 9.93008C0 9.64619 0.101708 9.37169 0.286689 9.15634L7.97429 0.372656C8.06846 0.261983 8.1844 0.171877 8.3149 0.107952C8.4454 0.0440261 8.58766 0.00764789 8.73283 0.00108151C8.878 -0.00548487 9.02296 0.0179031 9.1587 0.069786C9.29444 0.121669 9.41804 0.200938 9.52181 0.302657C9.73701 0.513185 9.86381 0.797863 9.87635 1.09865C9.88889 1.39944 9.78624 1.69368 9.58931 1.92139L2.58047 9.92883L9.71182 18.0788C9.90882 18.3067 10.0115 18.6011 9.99897 18.9021C9.98643 19.2031 9.8596 19.488 9.64432 19.6988C9.44609 19.8914 9.18072 19.9994 8.9043 20Z" fill="#222731"/>
</svg>
