<svg width="23" height="27" viewBox="0 0 23 27" fill="none" xmlns="http://www.w3.org/2000/svg">
<path d="M22.5734 0.892495C22.3413 0.559161 22.0288 0.315395 21.6365 0.16076C21.3867 0.053816 21.1249 0.000250016 20.8512 0.000250016V0H2.14905C1.87547 0 1.61389 0.053566 1.364 0.16051C0.971473 0.31502 0.659077 0.559099 0.427124 0.892245C0.195234 1.22539 0.0791016 1.59404 0.0791016 1.99863V25.0013C0.0791016 25.406 0.195234 25.7745 0.427124 26.108C0.659077 26.4411 0.971473 26.6851 1.364 26.8396C1.61364 26.9465 1.87547 26.9999 2.14905 26.9999C2.7084 26.9999 3.20187 26.8036 3.63027 26.4113L11.5002 18.8444L19.3701 26.4115C19.7865 26.7915 20.2802 26.9819 20.8511 26.9819C21.1486 26.9819 21.4104 26.9347 21.6365 26.8395C22.0287 26.685 22.3413 26.441 22.5733 26.1075C22.8052 25.7745 22.9211 25.4059 22.9211 25.0012V1.99888C22.9212 1.59429 22.805 1.22564 22.5734 0.892495ZM20.637 24.4478L13.0885 17.2026L11.5002 15.686L9.912 17.2026L2.3635 24.4478V2.28446H20.637V24.4478Z" fill="#012CDB"/>
</svg>
