<svg width="24" height="24" viewBox="0 0 24 24" fill="none" xmlns="http://www.w3.org/2000/svg">
<rect opacity="0.06" width="24" height="24" rx="8" fill="#00C7C4"/>
<path opacity="0.4" d="M11.9934 16.9662L7.12459 19.3981C6.75691 19.5977 6.29826 19.4644 6.09261 19.0983C6.03255 18.9831 6.00079 18.8552 6 18.7251V13.2816C6 13.8213 6.3043 14.1544 7.10474 14.5276L11.9934 16.9662Z" fill="#00C7C4"/>
<path fill-rule="evenodd" clip-rule="evenodd" d="M9.67144 4.5H14.3021C16.333 4.5 17.9802 5.29954 18 7.34503V18.7251C17.9992 18.8531 17.9674 18.9788 17.9074 19.0916C17.811 19.2755 17.6445 19.412 17.4461 19.4698C17.2477 19.5276 17.0346 19.5017 16.8556 19.3981L11.9934 16.9661L7.10474 14.5276C6.3043 14.1544 6 13.8213 6 13.2816V7.34503C6 5.29954 7.64719 4.5 9.67144 4.5ZM9.16869 10.2167H14.8115C15.1366 10.2167 15.4002 9.95121 15.4002 9.62371C15.4002 9.29621 15.1366 9.03072 14.8115 9.03072H9.16869C8.84353 9.03072 8.57993 9.29621 8.57993 9.62371C8.57993 9.95121 8.84353 10.2167 9.16869 10.2167Z" fill="#00C7C4"/>
</svg>
