<svg width="24" height="24" viewBox="0 0 24 24" fill="none" xmlns="http://www.w3.org/2000/svg">
<rect opacity="0.06" width="24" height="24" rx="8" fill="black"/>
<path d="M9.50275 19.3333C7.22069 19.3202 5.33301 14.6617 5.33301 12.2893C5.33301 8.4139 8.2402 7.56548 9.36061 7.56548C9.86554 7.56548 10.4047 7.76376 10.8802 7.93923C11.2128 8.06162 11.5567 8.18797 11.748 8.18797C11.8625 8.18797 12.1323 8.08049 12.3705 7.98618C12.8785 7.78395 13.5106 7.53259 14.2467 7.53259C14.2481 7.53259 14.2498 7.53259 14.2511 7.53259C14.8008 7.53259 16.4674 7.65322 17.4693 9.15793L17.704 9.51062L17.3663 9.76551C16.8837 10.1296 16.0032 10.7938 16.0032 12.1094C16.0032 13.6677 17.0004 14.2669 17.4794 14.5551C17.6909 14.6824 17.9098 14.8135 17.9098 15.1004C17.9098 15.2878 16.4147 19.3101 14.2437 19.3101C13.7124 19.3101 13.3369 19.1504 13.0057 19.0096C12.6705 18.867 12.3814 18.7442 11.9037 18.7442C11.6615 18.7442 11.3553 18.8587 11.0311 18.9802C10.5881 19.1456 10.0866 19.3333 9.51766 19.3333H9.50275Z" fill="black"/>
<path d="M14.4764 4C14.5329 6.03873 13.0749 7.45311 11.6186 7.36441C11.3786 5.73743 13.0747 4 14.4764 4Z" fill="black"/>
</svg>
