<svg width="34" height="25" viewBox="0 0 34 25" fill="none" xmlns="http://www.w3.org/2000/svg">
<rect width="34" height="25" rx="3" fill="#00C7C4"/>
<path d="M15 0H31C32.6569 0 34 1.34315 34 3V20C23.5066 20 15 11.4934 15 1V0Z" fill="#FFCB47"/>
<path d="M6.83594 20H8.57812L8 14.3633H5.92188L2.82031 20H4.52344L5.07031 18.8789H6.78906L6.83594 20ZM6.58984 15.7461H6.67188L6.75781 17.7109H5.625L6.58984 15.7461ZM11.5242 20L12.4422 15.6758H14.0086L14.2898 14.3633H9.50078L9.21953 15.6758H10.7859L9.86797 20H11.5242ZM15.3258 20L16.0328 16.6719H16.1109L16.6148 19.4453H17.5914L19.275 16.6719H19.3531L18.6461 20H20.1734L21.3727 14.3633H19.3648L17.525 17.4336H17.4469L16.9234 14.3633H14.9937L13.7945 20H15.3258Z" fill="white"/>
</svg>
