<svg width="19" height="20" viewBox="0 0 19 20" fill="none" xmlns="http://www.w3.org/2000/svg">
<path d="M8.78559 16.8387L8.74873 17.838L8.76889 17.8387L8.78906 17.8387L8.78559 16.8387ZM6.33515 16.7429L6.40502 15.7454L6.40496 15.7454L6.33515 16.7429ZM2.21496 16.1235L1.9577 17.0898L1.95776 17.0898L2.21496 16.1235ZM1.34206 13.6892L0.541351 13.0902L0.541349 13.0902L1.34206 13.6892ZM2.89145 11.3106L3.77758 11.774L3.7779 11.7734L2.89145 11.3106ZM3.85233 8.32797L2.85757 8.22576L2.85751 8.22631L3.85233 8.32797ZM3.92906 7.17209L2.93508 7.06253L2.93507 7.06266L3.92906 7.17209ZM5.01244 4.54919L4.2205 3.93859L4.22027 3.93889L5.01244 4.54919ZM7.31364 2.82452L6.95693 1.8903L6.95447 1.89125L7.31364 2.82452ZM7.49033 2.59081L6.49594 2.48497L6.49582 2.48613L7.49033 2.59081ZM9.10448 1.00975L8.99424 0.0158456L8.99395 0.0158772L9.10448 1.00975ZM10.9671 2.22969L10.0177 2.54361L10.0179 2.54426L10.9671 2.22969ZM11.0579 2.60137L12.0579 2.59096L12.0579 2.59007L11.0579 2.60137ZM11.2297 2.821L11.6099 1.8961L11.6064 1.89467L11.2297 2.821ZM14.5129 6.59838L15.482 6.35164L15.4819 6.35121L14.5129 6.59838ZM14.6727 7.89997L13.6731 7.92743L13.6731 7.92758L14.6727 7.89997ZM15.6223 11.2416L14.7317 11.6964L14.7318 11.6965L15.6223 11.2416ZM17.1618 13.6259L16.3711 14.238L16.3712 14.2382L17.1618 13.6259ZM17.1485 15.6624L17.8945 16.3283L17.8952 16.3275L17.1485 15.6624ZM16.3875 16.1045L16.1932 15.1235L16.192 15.1238L16.3875 16.1045ZM13.8927 16.5705L13.7512 15.5805L13.7501 15.5807L13.8927 16.5705ZM8.82244 15.8394C8.28578 15.8196 7.35959 15.8122 6.40502 15.7454L6.26529 17.7405C7.26065 17.8102 8.29283 17.8212 8.74873 17.838L8.82244 15.8394ZM6.40496 15.7454C5.0444 15.6502 3.73548 15.4933 2.47215 15.1571L1.95776 17.0898C3.39759 17.473 4.84954 17.6414 6.26534 17.7405L6.40496 15.7454ZM2.47221 15.1571C2.19234 15.0826 2.06891 14.9267 2.02513 14.8063C1.98323 14.691 1.97731 14.5094 2.14278 14.2883L0.541349 13.0902C-0.00206029 13.8165 -0.141374 14.7004 0.145462 15.4895C0.430429 16.2735 1.09789 16.8609 1.9577 17.0898L2.47221 15.1571ZM2.14277 14.2883C2.72263 13.5132 3.29993 12.6874 3.77758 11.774L2.00531 10.8472C1.60162 11.6191 1.09907 12.3447 0.541351 13.0902L2.14277 14.2883ZM3.7779 11.7734C4.30655 10.7609 4.72198 9.65458 4.84715 8.42963L2.85751 8.22631C2.76588 9.12306 2.45764 9.9808 2.00499 10.8478L3.7779 11.7734ZM4.8471 8.43019C4.8702 8.2053 4.87989 7.98298 4.88856 7.79647C4.8977 7.59991 4.90591 7.4373 4.92306 7.28153L2.93507 7.06266C2.90998 7.29054 2.89953 7.51405 2.89072 7.70359C2.88144 7.9032 2.87388 8.067 2.85757 8.22576L4.8471 8.43019ZM4.92304 7.28166C5.00871 6.5045 5.3075 5.80473 5.80461 5.15949L4.22027 3.93889C3.52207 4.84515 3.06482 5.88554 2.93508 7.06253L4.92304 7.28166ZM5.80438 5.15979C6.30251 4.51372 6.91965 4.04765 7.67281 3.7578L6.95447 1.89125C5.84921 2.31661 4.93597 3.01064 4.2205 3.93859L5.80438 5.15979ZM7.67034 3.75874C7.80733 3.70644 8.04335 3.59664 8.23209 3.35193C8.42006 3.10822 8.46845 2.85118 8.48483 2.6955L6.49582 2.48613C6.49813 2.4642 6.51624 2.30184 6.64842 2.13046C6.78138 1.95808 6.9361 1.89826 6.95694 1.89031L7.67034 3.75874ZM8.48471 2.69665C8.51968 2.36813 8.82069 2.04747 9.215 2.00362L8.99395 0.0158772C7.71709 0.15787 6.63556 1.1733 6.49594 2.48497L8.48471 2.69665ZM9.21471 2.00366C9.52966 1.96872 9.90204 2.1939 10.0177 2.54361L11.9166 1.91577C11.5141 0.698493 10.2786 -0.126616 8.99424 0.0158457L9.21471 2.00366ZM10.0179 2.54426C10.0242 2.56337 10.0305 2.58182 10.0356 2.59701C10.0412 2.61324 10.0454 2.62576 10.0496 2.63816C10.0578 2.66292 10.062 2.67657 10.0644 2.68516C10.0668 2.69336 10.0655 2.6904 10.0636 2.67953C10.0617 2.66838 10.0584 2.64513 10.058 2.61267L12.0579 2.59007C12.0542 2.26717 11.9267 1.94648 11.9163 1.91512L10.0179 2.54426ZM10.058 2.61179C10.0605 2.84945 10.1259 3.15469 10.3635 3.41705C10.5594 3.63329 10.795 3.72376 10.853 3.74734L11.6064 1.89467C11.5588 1.8753 11.7092 1.92354 11.8459 2.07449C12.0244 2.27156 12.0568 2.48845 12.0579 2.59096L10.058 2.61179ZM10.8495 3.7459C12.2832 4.33528 13.1623 5.34965 13.5439 6.84554L15.4819 6.35121C14.9441 4.24291 13.6284 2.72588 11.6099 1.89611L10.8495 3.7459ZM13.5438 6.84511C13.6254 7.16573 13.6621 7.52994 13.6731 7.92743L15.6723 7.87252C15.6593 7.39852 15.6143 6.87153 15.482 6.35164L13.5438 6.84511ZM13.6731 7.92758C13.7117 9.32584 14.1557 10.5687 14.7317 11.6964L16.5129 10.7868C16.0161 9.81399 15.6999 8.87035 15.6723 7.87237L13.6731 7.92758ZM14.7318 11.6965C15.199 12.6112 15.7618 13.4509 16.3711 14.238L17.9526 13.0137C17.399 12.2986 16.9101 11.5643 16.5129 10.7867L14.7318 11.6965ZM16.3712 14.2382C16.6221 14.5621 16.5731 14.8048 16.4017 14.9973L17.8952 16.3275C18.7671 15.3486 18.7364 14.0258 17.9524 13.0135L16.3712 14.2382ZM16.4024 14.9965C16.3326 15.0747 16.2645 15.1094 16.1932 15.1235L16.5818 17.0854C17.1075 16.9813 17.5546 16.7091 17.8945 16.3283L16.4024 14.9965ZM16.192 15.1238C15.3374 15.2941 14.5525 15.466 13.7512 15.5805L14.0343 17.5604C14.9069 17.4356 15.7777 17.2457 16.583 17.0852L16.192 15.1238ZM13.7501 15.5807C12.2911 15.7909 10.8059 15.8317 8.78212 15.8387L8.78906 17.8387C10.82 17.8316 12.4265 17.7921 14.0353 17.5603L13.7501 15.5807Z" fill="#FF8300"/>
<path d="M11.4855 17.5332L12.4334 17.8519L12.8768 16.5332H11.4855V17.5332ZM9.21391 18.9995L9.23068 17.9997L9.23019 17.9997L9.21391 18.9995ZM7 17.5332L7 16.5332H5.55684L6.06371 17.8844L7 17.5332ZM10.5377 17.2145C10.4914 17.3522 10.3444 17.5583 10.0664 17.7379C9.79445 17.9135 9.48688 18.004 9.23068 17.9997L9.19714 19.9994C9.90605 20.0113 10.5974 19.7758 11.1515 19.4179C11.6996 19.0638 12.2059 18.5287 12.4334 17.8519L10.5377 17.2145ZM9.23019 17.9997C8.56676 17.9888 8.06806 17.5333 7.93629 17.182L6.06371 17.8844C6.47961 18.9931 7.69994 19.975 9.19763 19.9994L9.23019 17.9997ZM7 18.5332C8.5451 18.5332 9.93129 18.5332 11.4855 18.5332V16.5332C11.4826 16.5332 11.4797 16.5332 11.4767 16.5332C11.4738 16.5332 11.4709 16.5332 11.468 16.5332C11.468 16.5332 11.4504 16.5332 11.4504 16.5332C11.4504 16.5332 11.4152 16.5332 11.4152 16.5332C11.4152 16.5332 11.3449 16.5332 11.3449 16.5332C11.3448 16.5332 11.2042 16.5332 11.2042 16.5332C11.2042 16.5332 11.0637 16.5332 11.0636 16.5332C11.0636 16.5332 10.9231 16.5332 10.9231 16.5332C10.923 16.5332 10.8529 16.5332 10.8528 16.5332C10.8528 16.5332 10.8353 16.5332 10.8353 16.5332C10.8323 16.5332 10.8294 16.5332 10.8265 16.5332C10.8236 16.5332 10.8206 16.5332 10.8177 16.5332C10.8177 16.5332 10.7826 16.5332 10.7826 16.5332C10.7825 16.5332 10.7124 16.5332 10.7123 16.5332C10.7123 16.5332 10.6422 16.5332 10.6421 16.5332C10.642 16.5332 10.5018 16.5332 10.5017 16.5332C10.5015 16.5332 10.3615 16.5332 10.3613 16.5332C10.3612 16.5332 10.2912 16.5332 10.2911 16.5332C10.291 16.5332 10.2561 16.5332 10.256 16.5332C10.2531 16.5332 10.2502 16.5332 10.2472 16.5332C10.2443 16.5332 10.2414 16.5332 10.2385 16.5332C10.2384 16.5332 10.221 16.5332 10.2209 16.5332C10.2204 16.5332 10.0811 16.5332 10.0806 16.5332C10.0799 16.5332 10.0112 16.5332 10.0105 16.5332C10.0076 16.5332 9.97823 16.5332 9.97539 16.5332C9.97246 16.5332 9.96954 16.5332 9.96662 16.5332C9.9637 16.5332 9.96077 16.5332 9.95785 16.5332C9.95493 16.5332 9.95201 16.5332 9.94909 16.5332C9.94616 16.5332 9.94324 16.5332 9.94032 16.5332C9.9374 16.5332 9.93447 16.5332 9.93155 16.5332C9.92863 16.5332 9.92571 16.5332 9.92278 16.5332C9.91986 16.5332 9.91694 16.5332 9.91402 16.5332C9.9111 16.5332 9.90817 16.5332 9.90525 16.5332C9.90233 16.5332 9.89941 16.5332 9.89648 16.5332C9.89356 16.5332 9.89064 16.5332 9.88772 16.5332C9.8848 16.5332 9.88187 16.5332 9.87895 16.5332C9.87603 16.5332 9.87311 16.5332 9.87019 16.5332C9.86726 16.5332 9.86434 16.5332 9.86142 16.5332C9.8585 16.5332 9.85558 16.5332 9.85265 16.5332C9.84973 16.5332 9.84681 16.5332 9.84389 16.5332C9.84097 16.5332 9.83804 16.5332 9.83512 16.5332C9.8322 16.5332 9.82928 16.5332 9.82636 16.5332C9.82344 16.5332 9.82051 16.5332 9.81759 16.5332C9.81467 16.5332 9.81175 16.5332 9.80883 16.5332C9.80591 16.5332 9.80298 16.5332 9.80006 16.5332C9.79714 16.5332 9.79422 16.5332 9.7913 16.5332C9.78838 16.5332 9.78545 16.5332 9.78253 16.5332C9.77961 16.5332 9.77669 16.5332 9.77377 16.5332C9.77085 16.5332 9.76792 16.5332 9.765 16.5332C9.76208 16.5332 9.75916 16.5332 9.75624 16.5332C9.75332 16.5332 9.7504 16.5332 9.74747 16.5332C9.74455 16.5332 9.74163 16.5332 9.73871 16.5332C9.73579 16.5332 9.73287 16.5332 9.72995 16.5332C9.72702 16.5332 9.7241 16.5332 9.72118 16.5332C9.71826 16.5332 9.71534 16.5332 9.71242 16.5332C9.7095 16.5332 9.70658 16.5332 9.70365 16.5332C9.70073 16.5332 9.69781 16.5332 9.69489 16.5332C9.69197 16.5332 9.68905 16.5332 9.68613 16.5332C9.68321 16.5332 9.68028 16.5332 9.67736 16.5332C9.67444 16.5332 9.67152 16.5332 9.6686 16.5332C9.66568 16.5332 9.66276 16.5332 9.65984 16.5332C9.65692 16.5332 9.654 16.5332 9.65107 16.5332C9.64815 16.5332 9.64523 16.5332 9.64231 16.5332C9.63939 16.5332 9.63647 16.5332 9.63355 16.5332C9.63063 16.5332 9.62771 16.5332 9.62479 16.5332C9.62187 16.5332 9.61894 16.5332 9.61602 16.5332C9.6131 16.5332 9.61018 16.5332 9.60726 16.5332C9.60434 16.5332 9.60142 16.5332 9.5985 16.5332C9.59558 16.5332 9.59266 16.5332 9.58974 16.5332C9.58682 16.5332 9.58389 16.5332 9.58097 16.5332C9.57805 16.5332 9.57513 16.5332 9.57221 16.5332C9.56929 16.5332 9.56637 16.5332 9.56345 16.5332C9.56053 16.5332 9.55761 16.5332 9.55469 16.5332C9.55177 16.5332 9.54885 16.5332 9.54593 16.5332C9.54301 16.5332 9.54009 16.5332 9.53717 16.5332C9.53425 16.5332 9.53132 16.5332 9.5284 16.5332C9.52548 16.5332 9.52256 16.5332 9.51964 16.5332C9.51672 16.5332 9.5138 16.5332 9.51088 16.5332C9.50796 16.5332 9.50504 16.5332 9.50212 16.5332C9.4992 16.5332 9.49628 16.5332 9.49336 16.5332C9.49044 16.5332 9.48752 16.5332 9.4846 16.5332C9.48168 16.5332 9.47876 16.5332 9.47584 16.5332C9.47292 16.5332 9.47 16.5332 9.46708 16.5332C9.46416 16.5332 9.46124 16.5332 9.45832 16.5332C9.4554 16.5332 9.45248 16.5332 9.44956 16.5332C9.44664 16.5332 9.44372 16.5332 9.4408 16.5332C9.43788 16.5332 9.43496 16.5332 9.43204 16.5332C9.42912 16.5332 9.4262 16.5332 9.42328 16.5332C9.42036 16.5332 9.41744 16.5332 9.41452 16.5332C9.4116 16.5332 9.40868 16.5332 9.40576 16.5332C9.40284 16.5332 9.39992 16.5332 9.397 16.5332C9.39408 16.5332 9.39116 16.5332 9.38824 16.5332C9.38532 16.5332 9.3824 16.5332 9.37948 16.5332C9.37656 16.5332 9.37364 16.5332 9.37072 16.5332C9.3678 16.5332 9.36488 16.5332 9.36196 16.5332C9.35904 16.5332 9.35612 16.5332 9.3532 16.5332C9.35028 16.5332 9.34736 16.5332 9.34444 16.5332C9.34152 16.5332 9.3386 16.5332 9.33568 16.5332C9.33276 16.5332 9.32984 16.5332 9.32692 16.5332C9.324 16.5332 9.32108 16.5332 9.31816 16.5332C9.31524 16.5332 9.31233 16.5332 9.30941 16.5332C9.30649 16.5332 9.30357 16.5332 9.30065 16.5332C9.29773 16.5332 9.29481 16.5332 9.29189 16.5332C9.28897 16.5332 9.28605 16.5332 9.28313 16.5332C9.28021 16.5332 9.27729 16.5332 9.27437 16.5332C9.27145 16.5332 9.26853 16.5332 9.26561 16.5332C9.26269 16.5332 9.25978 16.5332 9.25686 16.5332C9.25394 16.5332 9.25102 16.5332 9.2481 16.5332C9.24518 16.5332 9.24226 16.5332 9.23934 16.5332C9.23642 16.5332 9.2335 16.5332 9.23058 16.5332C9.22766 16.5332 9.22474 16.5332 9.22182 16.5332C9.21891 16.5332 9.21599 16.5332 9.21307 16.5332C9.21015 16.5332 9.20723 16.5332 9.20431 16.5332C9.20139 16.5332 9.19847 16.5332 9.19555 16.5332C9.19263 16.5332 9.18971 16.5332 9.1868 16.5332C9.18388 16.5332 9.18096 16.5332 9.17804 16.5332C9.17512 16.5332 9.1722 16.5332 9.16928 16.5332C9.16636 16.5332 9.16344 16.5332 9.16052 16.5332C9.15761 16.5332 9.15469 16.5332 9.15177 16.5332C9.14885 16.5332 9.14593 16.5332 9.14301 16.5332C9.14009 16.5332 9.13717 16.5332 9.13425 16.5332C9.13134 16.5332 9.12842 16.5332 9.1255 16.5332C9.12258 16.5332 9.11966 16.5332 9.11674 16.5332C9.11382 16.5332 9.1109 16.5332 9.10799 16.5332C9.10507 16.5332 9.10215 16.5332 9.09923 16.5332C9.09631 16.5332 9.09339 16.5332 9.09047 16.5332C9.08755 16.5332 9.08464 16.5332 9.08172 16.5332C9.0788 16.5332 9.07588 16.5332 9.07296 16.5332C9.07004 16.5332 9.06712 16.5332 9.06421 16.5332C9.06129 16.5332 9.05837 16.5332 9.05545 16.5332C9.05253 16.5332 9.04961 16.5332 9.04669 16.5332C9.04378 16.5332 9.04086 16.5332 9.03794 16.5332C9.03502 16.5332 9.0321 16.5332 9.02918 16.5332C9.02627 16.5332 9.02335 16.5332 9.02043 16.5332C9.01751 16.5332 9.01459 16.5332 9.01167 16.5332C9.00876 16.5332 9.00584 16.5332 9.00292 16.5332C9 16.5332 8.99708 16.5332 8.99416 16.5332C8.99125 16.5332 8.98833 16.5332 8.98541 16.5332C8.98249 16.5332 8.97957 16.5332 8.97665 16.5332C8.97374 16.5332 8.97082 16.5332 8.9679 16.5332C8.96498 16.5332 8.96206 16.5332 8.95914 16.5332C8.95623 16.5332 8.95331 16.5332 8.95039 16.5332C8.94747 16.5332 8.94455 16.5332 8.94164 16.5332C8.93872 16.5332 8.9358 16.5332 8.93288 16.5332C8.92996 16.5332 8.92705 16.5332 8.92413 16.5332C8.92121 16.5332 8.91829 16.5332 8.91537 16.5332C8.91246 16.5332 8.90954 16.5332 8.90662 16.5332C8.9037 16.5332 8.90078 16.5332 8.89787 16.5332C8.89495 16.5332 8.89203 16.5332 8.88911 16.5332C8.88619 16.5332 8.88328 16.5332 8.88036 16.5332C8.87744 16.5332 8.87452 16.5332 8.8716 16.5332C8.86869 16.5332 8.86577 16.5332 8.86285 16.5332C8.85993 16.5332 8.85702 16.5332 8.8541 16.5332C8.85118 16.5332 8.84826 16.5332 8.84534 16.5332C8.84243 16.5332 8.83951 16.5332 8.83659 16.5332C8.83367 16.5332 8.83076 16.5332 8.82784 16.5332C8.82492 16.5332 8.822 16.5332 8.81908 16.5332C8.81617 16.5332 8.81325 16.5332 8.81033 16.5332C8.80741 16.5332 8.8045 16.5332 8.80158 16.5332C8.79866 16.5332 8.79574 16.5332 8.79283 16.5332C8.78991 16.5332 8.78699 16.5332 8.78407 16.5332C8.78116 16.5332 8.77824 16.5332 8.77532 16.5332C8.7724 16.5332 8.76949 16.5332 8.76657 16.5332C8.76365 16.5332 8.76073 16.5332 8.75782 16.5332C8.7549 16.5332 8.75198 16.5332 8.74906 16.5332C8.74615 16.5332 8.74323 16.5332 8.74031 16.5332C8.73739 16.5332 8.73448 16.5332 8.73156 16.5332C8.72864 16.5332 8.72572 16.5332 8.72281 16.5332C8.71989 16.5332 8.71697 16.5332 8.71405 16.5332C8.71114 16.5332 8.70822 16.5332 8.7053 16.5332C8.70239 16.5332 8.69947 16.5332 8.69655 16.5332C8.69363 16.5332 8.69072 16.5332 8.6878 16.5332C8.68488 16.5332 8.68196 16.5332 8.67905 16.5332C8.67613 16.5332 8.67321 16.5332 8.6703 16.5332C8.66738 16.5332 8.66446 16.5332 8.66154 16.5332C8.65863 16.5332 8.65571 16.5332 8.65279 16.5332C8.64988 16.5332 8.64696 16.5332 8.64404 16.5332C8.64112 16.5332 8.63821 16.5332 8.63529 16.5332C8.63237 16.5332 8.62946 16.5332 8.62654 16.5332C8.62362 16.5332 8.62071 16.5332 8.61779 16.5332C8.61487 16.5332 8.61195 16.5332 8.60904 16.5332C8.60612 16.5332 8.6032 16.5332 8.60029 16.5332C8.59737 16.5332 8.59445 16.5332 8.59154 16.5332C8.58862 16.5332 8.5857 16.5332 8.58278 16.5332C8.57987 16.5332 8.57695 16.5332 8.57403 16.5332C8.57112 16.5332 8.5682 16.5332 8.56528 16.5332C8.56237 16.5332 8.55945 16.5332 8.55653 16.5332C8.55362 16.5332 8.5507 16.5332 8.54778 16.5332C8.54487 16.5332 8.54195 16.5332 8.53903 16.5332C8.53612 16.5332 8.5332 16.5332 8.53028 16.5332C8.52737 16.5332 8.52445 16.5332 8.52153 16.5332C8.51862 16.5332 8.5157 16.5332 8.51278 16.5332C8.50987 16.5332 8.50695 16.5332 8.50403 16.5332C8.50112 16.5332 8.4982 16.5332 8.49528 16.5332C8.49237 16.5332 8.48945 16.5332 8.48653 16.5332C8.48653 16.5332 8.46903 16.5332 8.46903 16.5332C8.46903 16.5332 8.39904 16.5332 8.39904 16.5332C8.39903 16.5332 8.25907 16.5332 8.25906 16.5332C8.25905 16.5332 8.11912 16.5332 8.11911 16.5332C8.11909 16.5332 7.97918 16.5332 7.97917 16.5332C7.97917 16.5332 7.94419 16.5332 7.94419 16.5332C7.94419 16.5332 7.9267 16.5332 7.9267 16.5332C7.92378 16.5332 7.92087 16.5332 7.91795 16.5332C7.91504 16.5332 7.91212 16.5332 7.90921 16.5332C7.9092 16.5332 7.83926 16.5332 7.83925 16.5332C7.83923 16.5332 7.69936 16.5332 7.69934 16.5332C7.69932 16.5332 7.55947 16.5332 7.55945 16.5332C7.55945 16.5332 7.54197 16.5332 7.54197 16.5332C7.53905 16.5332 7.53614 16.5332 7.53322 16.5332C7.53031 16.5332 7.52739 16.5332 7.52448 16.5332C7.52447 16.5332 7.48952 16.5332 7.48951 16.5332C7.4895 16.5332 7.41958 16.5332 7.41957 16.5332C7.41956 16.5332 7.34965 16.5332 7.34964 16.5332C7.34963 16.5332 7.31468 16.5332 7.31467 16.5332C7.31467 16.5332 7.29719 16.5332 7.29719 16.5332C7.29427 16.5332 7.29136 16.5332 7.28845 16.5332C7.28553 16.5332 7.28262 16.5332 7.2797 16.5332C7.27968 16.5332 7.13987 16.5332 7.13985 16.5332C7.13984 16.5332 7.10489 16.5332 7.10488 16.5332C7.10488 16.5332 7.08741 16.5332 7.0874 16.5332C7.08449 16.5332 7.08158 16.5332 7.07866 16.5332C7.07575 16.5332 7.07284 16.5332 7.06992 16.5332C7.06991 16.5332 7.00001 16.5332 7 16.5332L7 18.5332Z" fill="#FF8300"/>
</svg>
