<svg width="12" height="16" viewBox="0 0 12 16" fill="none" xmlns="http://www.w3.org/2000/svg">
<path d="M11.7417 1.40859C11.6214 1.2228 11.4593 1.08693 11.2559 1.00074C11.1264 0.941129 10.9906 0.911272 10.8487 0.911272V0.911133H1.15131C1.00945 0.911133 0.873819 0.94099 0.744246 1.0006C0.540714 1.08672 0.378731 1.22277 0.258459 1.40846C0.13822 1.59415 0.0780029 1.79962 0.0780029 2.02514V14.8464C0.0780029 15.072 0.13822 15.2774 0.258459 15.4633C0.378731 15.649 0.540714 15.785 0.744246 15.871C0.87369 15.9307 1.00945 15.9604 1.15131 15.9604C1.44134 15.9604 1.69722 15.851 1.91935 15.6323L6.00004 11.4147L10.0807 15.6324C10.2967 15.8443 10.5527 15.9504 10.8487 15.9504C11.0029 15.9504 11.1387 15.9241 11.2559 15.871C11.4593 15.7849 11.6213 15.6489 11.7417 15.463C11.8619 15.2774 11.922 15.072 11.922 14.8464V2.02527C11.922 1.79976 11.8618 1.59429 11.7417 1.40859ZM10.7377 14.5379L6.8236 10.4996L6.00004 9.65426L5.17654 10.4996L1.26251 14.5379V2.18445H10.7377V14.5379Z" fill="white"/>
</svg>
