<svg width="9" height="8" viewBox="0 0 9 8" fill="none" xmlns="http://www.w3.org/2000/svg">
<path fill-rule="evenodd" clip-rule="evenodd" d="M3.60066 7.33268C3.54984 7.33208 3.50056 7.316 3.46009 7.2868L0.578401 5.01758C0.53447 4.98125 0.506819 4.93035 0.501103 4.87529C0.495387 4.82024 0.512038 4.76519 0.547651 4.72141C0.585911 4.67941 0.639953 4.65328 0.69823 4.6486C0.756508 4.64392 0.8144 4.66107 0.859541 4.69638L3.5743 6.81961L8.11648 0.74611C8.15026 0.705887 8.19825 0.678651 8.25155 0.669448C8.30486 0.660244 8.35987 0.669696 8.4064 0.696054C8.43016 0.71186 8.45038 0.731978 8.4659 0.755247C8.48143 0.778515 8.49194 0.804472 8.49684 0.83162C8.50174 0.858768 8.50093 0.886569 8.49446 0.913418C8.48798 0.940267 8.47597 0.965632 8.45912 0.988049L3.76319 7.24508C3.74579 7.26848 3.72359 7.2883 3.69793 7.30335C3.67226 7.31841 3.64366 7.32838 3.61384 7.33268H3.60066Z" fill="#012CDB" stroke="#012CDB" stroke-width="0.5"/>
</svg>
