<svg width="34" height="34" viewBox="0 0 34 34" fill="none" xmlns="http://www.w3.org/2000/svg">
<rect opacity="0.32" width="34" height="34" rx="6.8" fill="#00C7C4"/>
<path d="M0.850098 17H17.0001H33.1501V6.8C33.1501 3.51391 30.4862 0.85 27.2001 0.85H6.8001C3.51401 0.85 0.850098 3.51391 0.850098 6.8V17Z" fill="#C2F2F1"/>
<path d="M0.850098 17H17.0001H33.1501V6.8C33.1501 3.51391 30.4862 0.85 27.2001 0.85H6.8001C3.51401 0.85 0.850098 3.51391 0.850098 6.8V17Z" fill="url(#paint0_linear_227:17096)"/>
<path d="M10.184 29.0995C9.65365 29.0995 9.18218 28.9963 8.76965 28.79C8.36448 28.5764 8.04772 28.2781 7.81935 27.895C7.59835 27.5046 7.48785 27.0589 7.48785 26.5579V23.696C7.48785 23.1951 7.59835 22.7567 7.81935 22.381C8.04772 21.998 8.36448 21.7033 8.76965 21.497C9.18218 21.2834 9.65365 21.1766 10.184 21.1766C10.7144 21.1766 11.1822 21.2797 11.5874 21.486C11.9926 21.6849 12.3056 21.9685 12.5267 22.3368C12.755 22.7052 12.8692 23.1324 12.8692 23.6186V23.6297C12.8692 23.6665 12.8581 23.696 12.8361 23.7181C12.8139 23.7402 12.7882 23.7512 12.7587 23.7512L11.9189 23.7954C11.8452 23.7954 11.8084 23.7623 11.8084 23.696V23.6628C11.8084 23.1914 11.6611 22.812 11.3664 22.5247C11.0717 22.2374 10.6776 22.0937 10.184 22.0937C9.69048 22.0937 9.29268 22.2374 8.99065 22.5247C8.69598 22.812 8.54865 23.1914 8.54865 23.6628V26.6021C8.54865 27.0736 8.69598 27.453 8.99065 27.7403C9.29268 28.0276 9.69048 28.1712 10.184 28.1712C10.6776 28.1712 11.0717 28.0276 11.3664 27.7403C11.6611 27.453 11.8084 27.0736 11.8084 26.6021V26.58C11.8084 26.5137 11.8452 26.4806 11.9189 26.4806L12.7587 26.5248C12.8324 26.5248 12.8692 26.5616 12.8692 26.6353C12.8692 27.1215 12.755 27.5524 12.5267 27.9281C12.3056 28.2965 11.9926 28.5838 11.5874 28.79C11.1822 28.9963 10.7144 29.0995 10.184 29.0995ZM16.9292 29.0995C16.3914 29.0995 15.9163 28.9889 15.5038 28.7679C15.0912 28.5469 14.7708 28.2375 14.5424 27.8397C14.314 27.4346 14.1999 26.9705 14.1999 26.4474V23.8175C14.1999 23.2945 14.314 22.8341 14.5424 22.4363C14.7708 22.0385 15.0912 21.7291 15.5038 21.5081C15.9163 21.2871 16.3914 21.1766 16.9292 21.1766C17.4743 21.1766 17.9532 21.2871 18.3657 21.5081C18.7782 21.7291 19.0987 22.0385 19.3271 22.4363C19.5554 22.8341 19.6696 23.2945 19.6696 23.8175V26.4474C19.6696 26.9705 19.5554 27.4346 19.3271 27.8397C19.0987 28.2375 18.7782 28.5469 18.3657 28.7679C17.9532 28.9889 17.4743 29.0995 16.9292 29.0995ZM16.9292 28.1823C17.4301 28.1823 17.8353 28.0276 18.1447 27.7182C18.4541 27.4088 18.6088 26.9999 18.6088 26.4916V23.8065C18.6088 23.2908 18.4541 22.8783 18.1447 22.5689C17.8353 22.2521 17.4301 22.0937 16.9292 22.0937C16.4283 22.0937 16.0231 22.2521 15.7137 22.5689C15.4117 22.8783 15.2607 23.2908 15.2607 23.8065V26.4916C15.2607 26.9999 15.4117 27.4088 15.7137 27.7182C16.0231 28.0276 16.4283 28.1823 16.9292 28.1823ZM21.3942 29C21.3205 29 21.2837 28.9632 21.2837 28.8895V21.3755C21.2837 21.3018 21.3205 21.265 21.3942 21.265H24.0683C24.8344 21.265 25.4459 21.4676 25.9026 21.8727C26.3593 22.2705 26.5877 22.8046 26.5877 23.475V26.79C26.5877 27.4604 26.3593 27.9981 25.9026 28.4033C25.4459 28.8011 24.8344 29 24.0683 29H21.3942ZM22.3445 28.0386C22.3445 28.0681 22.3592 28.0828 22.3887 28.0828H24.1125C24.5398 28.0828 24.8786 27.9539 25.1291 27.6961C25.3869 27.4309 25.5195 27.0773 25.5269 26.6353V23.6297C25.5269 23.1877 25.398 22.8378 25.1401 22.5799C24.8897 22.3147 24.5471 22.1821 24.1125 22.1821H22.3887C22.3592 22.1821 22.3445 22.1969 22.3445 22.2263V28.0386Z" fill="#1D5251"/>
<path d="M4.25 7.64995C4.25 6.71107 5.01112 5.94995 5.95 5.94995H25.5C26.4389 5.94995 27.2 6.71107 27.2 7.64995V17H4.25V7.64995Z" fill="#FFCB47"/>
<path d="M5.9502 8.50002C5.9502 8.03058 6.33075 7.65002 6.8002 7.65002H24.6502C25.1196 7.65002 25.5002 8.03058 25.5002 8.50002V17H5.9502V8.50002Z" fill="#FFEDBE"/>
<path d="M11.0498 11.05C11.0498 10.5805 11.4304 10.2 11.8998 10.2H29.7498C30.2192 10.2 30.5998 10.5805 30.5998 11.05V17H11.0498V11.05Z" fill="#FFCB47"/>
<path d="M12.75 12.75C12.75 12.2806 13.1306 11.9 13.6 11.9H28.05C28.5194 11.9 28.9 12.2806 28.9 12.75V17H12.75V12.75Z" fill="#FFF4D7"/>
<defs>
<linearGradient id="paint0_linear_227:17096" x1="17.0001" y1="17" x2="17.0001" y2="0.85" gradientUnits="userSpaceOnUse">
<stop stop-color="#74C6C5"/>
<stop offset="1" stop-color="#ADEDEC"/>
</linearGradient>
</defs>
</svg>
