<svg width="25" height="24" viewBox="0 0 25 24" fill="none" xmlns="http://www.w3.org/2000/svg">
<path d="M23.2657 11.8696C21.6308 10.1415 19.7134 8.70465 17.5959 7.62059L14.9859 10.1766C15.3415 10.6696 15.5332 11.2618 15.5339 11.8696C15.5244 12.6659 15.1997 13.426 14.6308 13.9832C14.0619 14.5405 13.2953 14.8495 12.499 14.8426C11.8813 14.8427 11.2781 14.6554 10.769 14.3056L8.4511 16.5776C9.73598 17.108 11.1092 17.3919 12.499 17.4146C17.6769 17.4146 22.0988 13.1086 23.2657 11.8686V11.8696ZM14.221 10.9276L11.537 13.5566C11.8317 13.7189 12.1626 13.8041 12.499 13.8046C13.0187 13.8097 13.5191 13.6083 13.8905 13.2448C14.2619 12.8813 14.4739 12.3853 14.48 11.8656C14.4775 11.5345 14.3886 11.2097 14.222 10.9236L14.221 10.9276ZM24.3777 12.1946C24.1617 12.4496 19.0078 18.4436 12.499 18.4436C10.8247 18.4172 9.17336 18.0493 7.64612 17.3626L5.10819 19.8496C5.00837 19.9464 4.87476 20.0006 4.7357 20.0006C4.59663 20.0006 4.46303 19.9464 4.36321 19.8496C4.3141 19.8021 4.27504 19.7453 4.24836 19.6824C4.22169 19.6195 4.20794 19.5519 4.20794 19.4836C4.20794 19.4153 4.22169 19.3477 4.24836 19.2848C4.27504 19.2219 4.3141 19.1651 4.36321 19.1176L17.1329 6.60959L17.1499 6.59459L19.6428 4.15059C19.7428 4.05399 19.8763 4 20.0153 4C20.1543 4 20.2879 4.05399 20.3878 4.15059C20.4368 4.19804 20.4757 4.25485 20.5023 4.31763C20.5289 4.38042 20.5426 4.44791 20.5426 4.51609C20.5426 4.58427 20.5289 4.65176 20.5023 4.71455C20.4757 4.77733 20.4368 4.83414 20.3878 4.88159L18.3878 6.84259C20.6461 8.04067 22.6741 9.62959 24.3777 11.5356C24.4566 11.6272 24.5 11.7442 24.5 11.8651C24.5 11.986 24.4566 12.1029 24.3777 12.1946ZM10.538 11.5946C10.6017 11.1691 10.8036 10.7764 11.1127 10.4771C11.4217 10.1778 11.8207 9.98854 12.248 9.93859C12.3154 9.92992 12.3804 9.90807 12.4393 9.87428C12.4982 9.8405 12.5499 9.79543 12.5914 9.74167C12.6329 9.6879 12.6634 9.62649 12.6812 9.56093C12.699 9.49538 12.7037 9.42696 12.695 9.35959C12.6863 9.29222 12.6645 9.22722 12.6307 9.1683C12.5969 9.10938 12.5518 9.05768 12.4981 9.01618C12.4443 8.97467 12.3829 8.94416 12.3173 8.92638C12.2518 8.90861 12.1834 8.90392 12.116 8.91259C11.4605 8.98943 10.8485 9.27988 10.3745 9.73911C9.90041 10.1983 9.59068 10.8008 9.49308 11.4536C9.48411 11.5214 9.48866 11.5903 9.50647 11.6563C9.52427 11.7224 9.55497 11.7842 9.59681 11.8384C9.63865 11.8925 9.69078 11.9377 9.75021 11.9716C9.80964 12.0055 9.87519 12.0272 9.94307 12.0356C9.96736 12.0375 9.99177 12.0375 10.0161 12.0356C10.1422 12.0365 10.2644 11.9919 10.3603 11.91C10.4562 11.8281 10.5193 11.7143 10.538 11.5896V11.5946ZM5.68617 16.2776C5.58743 16.2779 5.49053 16.2509 5.40618 16.1996C3.6276 15.0983 2.0165 13.7472 0.622303 12.1876C0.543398 12.0959 0.5 11.979 0.5 11.8581C0.5 11.7372 0.543398 11.6202 0.622303 11.5286C0.838297 11.2736 5.99017 5.28059 12.5 5.28059C13.5331 5.28516 14.5608 5.43015 15.5549 5.71159C15.6211 5.72884 15.6831 5.75911 15.7374 5.80064C15.7917 5.84216 15.8372 5.8941 15.8712 5.95342C15.9052 6.01274 15.927 6.07824 15.9354 6.1461C15.9437 6.21395 15.9385 6.28279 15.9199 6.34859C15.8796 6.48114 15.789 6.59266 15.6676 6.65936C15.5461 6.72606 15.4034 6.74265 15.2699 6.70559C14.3676 6.45454 13.4356 6.32638 12.499 6.32459C7.32013 6.32459 2.89925 10.6246 1.73127 11.8686C2.99043 13.1989 4.41345 14.3639 5.96617 15.3356C6.02445 15.3709 6.07507 15.4175 6.11505 15.4726C6.15503 15.5278 6.18355 15.5904 6.19893 15.6568C6.21431 15.7231 6.21624 15.7919 6.2046 15.859C6.19296 15.9262 6.16799 15.9903 6.13116 16.0476C6.08321 16.1221 6.01717 16.1833 5.93918 16.2255C5.8612 16.2676 5.77381 16.2893 5.68517 16.2886" fill="#666666"/>
</svg>
