<svg width="20" height="20" viewBox="0 0 20 20" fill="none" xmlns="http://www.w3.org/2000/svg">
<g clip-path="url(#clip0_1550_30871)">
<path d="M5.46035 10.6261H7.56496V19.2905C7.56496 19.4615 7.70356 19.6001 7.87463 19.6001H11.4431C11.6142 19.6001 11.7528 19.4615 11.7528 19.2905V10.6669H14.1722C14.3295 10.6669 14.4619 10.5488 14.4799 10.3926L14.8473 7.2028C14.8574 7.11505 14.8296 7.02715 14.7709 6.9613C14.7122 6.89541 14.628 6.85768 14.5398 6.85768H11.7529V4.85815C11.7529 4.25541 12.0774 3.94975 12.7176 3.94975C12.8089 3.94975 14.5398 3.94975 14.5398 3.94975C14.7108 3.94975 14.8494 3.81107 14.8494 3.64007V0.712109C14.8494 0.541034 14.7108 0.402434 14.5398 0.402434H12.0286C12.0109 0.401571 11.9715 0.400146 11.9136 0.400146C11.4779 0.400146 9.96335 0.485684 8.76698 1.58627C7.44143 2.80592 7.62571 4.26621 7.66973 4.51941V6.85761H5.46031C5.28923 6.85761 5.15063 6.99621 5.15063 7.16728V10.3163C5.15067 10.4874 5.28927 10.6261 5.46035 10.6261Z" fill="white"/>
</g>
<defs>
<clipPath id="clip0_1550_30871">
<rect width="19.2" height="19.2" fill="white" transform="translate(0.400024 0.400146)"/>
</clipPath>
</defs>
</svg>
