<svg width="21" height="21" viewBox="0 0 21 21" fill="none" xmlns="http://www.w3.org/2000/svg">
<path d="M18.75 0H2.25C0.984375 0 0 1.03125 0 2.25V18.75C0 20.0156 0.984375 21 2.25 21H8.67188V13.875H5.71875V10.5H8.67188V7.96875C8.67188 5.0625 10.4062 3.42188 13.0312 3.42188C14.3438 3.42188 15.6562 3.65625 15.6562 3.65625V6.51562H14.2031C12.75 6.51562 12.2812 7.40625 12.2812 8.34375V10.5H15.5156L15 13.875H12.2812V21H18.75C19.9688 21 21 20.0156 21 18.75V2.25C21 1.03125 19.9688 0 18.75 0Z" fill="white"/>
</svg>
