<svg width="24" height="24" viewBox="0 0 24 24" fill="none" xmlns="http://www.w3.org/2000/svg">
<rect opacity="0.06" width="24" height="24" rx="8" fill="#00C7C4"/>
<path opacity="0.4" d="M11.8317 19.3781C10.1195 18.3205 8.52774 17.0734 7.08569 15.6597C6.06765 14.6503 5.29017 13.4178 4.81264 12.0564C3.95942 9.40142 4.95263 6.36711 7.7256 5.4663C9.18924 5.00665 10.7811 5.28882 12.0051 6.22488C13.2295 5.28986 14.8208 5.00779 16.2845 5.4663C19.0575 6.36711 20.0574 9.40142 19.2041 12.0564C18.7305 13.4166 17.9576 14.6489 16.9444 15.6597C15.5011 17.0719 13.9095 18.3188 12.1984 19.3781L12.0117 19.5L11.8317 19.3781Z" fill="#00C7C4"/>
<path d="M12.0082 19.4999L11.832 19.378C10.1176 18.3205 8.52365 17.0735 7.07926 15.6596C6.0564 14.6517 5.27429 13.4191 4.79289 12.0564C3.94633 9.40137 4.93954 6.36706 7.71252 5.46624C9.17615 5.0066 10.789 5.28898 12.0082 6.23288V19.4999Z" fill="#00C7C4"/>
<path d="M16.6728 10.4994C16.5222 10.4897 16.3819 10.4144 16.2848 10.2912C16.1877 10.1679 16.1424 10.0076 16.1594 9.84762C16.1757 9.32085 15.876 8.84138 15.4138 8.65483C15.1207 8.57482 14.9432 8.2574 15.0165 7.94437C15.0861 7.63636 15.3745 7.44485 15.6644 7.51418C15.701 7.52025 15.7362 7.53351 15.7683 7.55329C16.6951 7.90993 17.2951 8.86981 17.2473 9.91932C17.2458 10.0784 17.1838 10.23 17.0755 10.3394C16.9672 10.4487 16.8219 10.5065 16.6728 10.4994Z" fill="#00C7C4"/>
</svg>
