<svg width="24" height="24" viewBox="0 0 24 24" fill="none" xmlns="http://www.w3.org/2000/svg">
<rect opacity="0.06" width="24" height="24" rx="8" fill="#3B5998"/>
<path d="M15.4921 4.80301L13.6248 4.80002C11.5269 4.80002 10.1711 6.19099 10.1711 8.34388V9.97783H8.29362C8.13138 9.97783 8 10.1094 8 10.2716V12.639C8 12.8013 8.13153 12.9326 8.29362 12.9326H10.1711V18.9064C10.1711 19.0686 10.3025 19.2 10.4648 19.2H12.9144C13.0766 19.2 13.208 19.0685 13.208 18.9064V12.9326H15.4033C15.5655 12.9326 15.6969 12.8013 15.6969 12.639L15.6978 10.2716C15.6978 10.1937 15.6668 10.1191 15.6118 10.064C15.5568 10.0088 15.4819 9.97783 15.404 9.97783H13.208V8.59271C13.208 7.92696 13.3667 7.58899 14.2339 7.58899L15.4918 7.58855C15.6539 7.58855 15.7853 7.45701 15.7853 7.29492V5.09664C15.7853 4.9347 15.6541 4.80331 15.4921 4.80301Z" fill="#3B5998"/>
</svg>
