<svg width="25" height="24" viewBox="0 0 25 24" fill="none" xmlns="http://www.w3.org/2000/svg">
<path d="M6.82513 12.7824H9.45589V23.6129C9.45589 23.8267 9.62914 24 9.84299 24H14.3036C14.5174 24 14.6907 23.8267 14.6907 23.6129V12.8334H17.715C17.9116 12.8334 18.0771 12.6859 18.0996 12.4905L18.5589 8.50331C18.5715 8.39363 18.5368 8.28375 18.4633 8.20144C18.3899 8.11908 18.2848 8.07192 18.1744 8.07192H14.6908V5.5725C14.6908 4.81908 15.0965 4.437 15.8968 4.437C16.0108 4.437 18.1744 4.437 18.1744 4.437C18.3883 4.437 18.5615 4.26366 18.5615 4.04991V0.389953C18.5615 0.176109 18.3883 0.00285937 18.1744 0.00285937H15.0354C15.0133 0.00178125 14.9641 0 14.8917 0C14.347 0 12.4539 0.106922 10.9584 1.48266C9.30149 3.00722 9.53183 4.83258 9.58686 5.14908V8.07183H6.82508C6.61124 8.07183 6.43799 8.24508 6.43799 8.45892V12.3953C6.43804 12.609 6.61128 12.7824 6.82513 12.7824Z" fill="#385C8E"/>
</svg>
