<svg width="24" height="24" viewBox="0 0 24 24" fill="none" xmlns="http://www.w3.org/2000/svg">
<rect opacity="0.06" width="24" height="24" rx="8" fill="#DB4437"/>
<path d="M11.9996 18.4C15.6928 18.4 18.1462 15.8075 18.1462 12.1485C18.1462 11.7295 18.1026 11.4061 18.0421 11.0835H12.0005V13.2834H15.6331C15.4846 14.2178 14.5332 16.0422 12.0005 16.0422C9.81849 16.0422 8.03673 14.2349 8.03673 12C8.03673 9.7651 9.81764 7.95688 12.0005 7.95688C13.2489 7.95688 14.0783 8.48936 14.5502 8.94334L16.2876 7.27592C15.1689 6.22888 13.7285 5.59998 11.9996 5.59998C8.4634 5.59998 5.59961 8.46376 5.59961 12C5.59961 15.5362 8.4634 18.4 11.9996 18.4Z" fill="#DB4437"/>
</svg>
