<svg width="25" height="24" viewBox="0 0 25 24" fill="none" xmlns="http://www.w3.org/2000/svg">
<g clip-path="url(#clip0_916_12813)">
<path d="M24.5 12.2755C24.5 11.4598 24.4326 10.6397 24.2886 9.83716H12.7407V14.4581H19.3537C19.0792 15.9485 18.1975 17.2669 16.9064 18.1047V21.103H20.8517C23.1685 19.013 24.5 15.9264 24.5 12.2755Z" fill="#4285F4"/>
<path d="M12.7409 23.9999C16.0428 23.9999 18.8275 22.9372 20.8563 21.1029L16.9111 18.1046C15.8134 18.8365 14.3963 19.251 12.7454 19.251C9.55136 19.251 6.84321 17.1389 5.87152 14.2993H1.80029V17.3903C3.87864 21.4424 8.11181 23.9999 12.7409 23.9999V23.9999Z" fill="#34A853"/>
<path d="M5.86663 14.2995C5.35379 12.8091 5.35379 11.1953 5.86663 9.70496V6.61401H1.7999C0.063444 10.0048 0.063444 13.9996 1.7999 17.3904L5.86663 14.2995V14.2995Z" fill="#FBBC04"/>
<path d="M12.7409 4.74893C14.4863 4.72247 16.1733 5.36623 17.4374 6.54794L20.9328 3.12188C18.7195 1.08477 15.7819 -0.0351984 12.7409 7.62441e-05C8.11181 7.62441e-05 3.87864 2.55749 1.80029 6.61408L5.86702 9.70502C6.83421 6.861 9.54686 4.74893 12.7409 4.74893V4.74893Z" fill="#EA4335"/>
</g>
<defs>
<clipPath id="clip0_916_12813">
<rect width="24" height="24" fill="white" transform="translate(0.5)"/>
</clipPath>
</defs>
</svg>
