<svg width="21" height="20" viewBox="0 0 21 20" fill="none" xmlns="http://www.w3.org/2000/svg">
<path d="M7.25 9C7.44779 9 7.64113 8.94135 7.80557 8.83147C7.97002 8.72159 8.0982 8.56541 8.17388 8.38268C8.24957 8.19996 8.26937 7.99889 8.23079 7.80491C8.1922 7.61093 8.09696 7.43275 7.95711 7.29289C7.81726 7.15304 7.63908 7.0578 7.44509 7.01921C7.25111 6.98063 7.05005 7.00043 6.86732 7.07612C6.68459 7.15181 6.52842 7.27998 6.41853 7.44443C6.30865 7.60888 6.25 7.80222 6.25 8C6.25 8.26522 6.35536 8.51957 6.5429 8.70711C6.73043 8.89464 6.98479 9 7.25 9ZM10.25 0C8.27219 0 6.33879 0.58649 4.6943 1.6853C3.04981 2.78412 1.76809 4.3459 1.01121 6.17317C0.254333 8.00043 0.0562995 10.0111 0.442152 11.9509C0.828004 13.8907 1.78041 15.6725 3.17894 17.0711C4.57746 18.4696 6.35929 19.422 8.2991 19.8079C10.2389 20.1937 12.2496 19.9957 14.0768 19.2388C15.9041 18.4819 17.4659 17.2002 18.5647 15.5557C19.6635 13.9112 20.25 11.9778 20.25 10C20.25 8.68678 19.9913 7.38642 19.4888 6.17317C18.9863 4.95991 18.2497 3.85752 17.3211 2.92893C16.3925 2.00035 15.2901 1.26375 14.0768 0.761205C12.8636 0.258658 11.5632 0 10.25 0V0ZM10.25 18C8.66775 18 7.12104 17.5308 5.80544 16.6518C4.48985 15.7727 3.46447 14.5233 2.85897 13.0615C2.25347 11.5997 2.09504 9.99113 2.40372 8.43928C2.7124 6.88743 3.47433 5.46197 4.59315 4.34315C5.71197 3.22433 7.13743 2.4624 8.68928 2.15372C10.2411 1.84504 11.8497 2.00346 13.3115 2.60896C14.7733 3.21447 16.0227 4.23984 16.9018 5.55544C17.7808 6.87103 18.25 8.41775 18.25 10C18.25 12.1217 17.4072 14.1566 15.9069 15.6569C14.4066 17.1571 12.3717 18 10.25 18V18ZM13.25 11H7.25C6.98479 11 6.73043 11.1054 6.5429 11.2929C6.35536 11.4804 6.25 11.7348 6.25 12C6.25 13.0609 6.67143 14.0783 7.42158 14.8284C8.17172 15.5786 9.18914 16 10.25 16C11.3109 16 12.3283 15.5786 13.0784 14.8284C13.8286 14.0783 14.25 13.0609 14.25 12C14.25 11.7348 14.1446 11.4804 13.9571 11.2929C13.7696 11.1054 13.5152 11 13.25 11ZM10.25 14C9.89928 13.9996 9.55481 13.9071 9.25117 13.7315C8.94752 13.556 8.69537 13.3037 8.52001 13H11.98C11.8046 13.3037 11.5525 13.556 11.2488 13.7315C10.9452 13.9071 10.6007 13.9996 10.25 14ZM13.25 7C13.0522 7 12.8589 7.05865 12.6944 7.16853C12.53 7.27841 12.4018 7.43459 12.3261 7.61732C12.2504 7.80004 12.2306 8.00111 12.2692 8.19509C12.3078 8.38907 12.403 8.56725 12.5429 8.70711C12.6828 8.84696 12.8609 8.9422 13.0549 8.98079C13.2489 9.01937 13.45 8.99957 13.6327 8.92388C13.8154 8.84819 13.9716 8.72002 14.0815 8.55557C14.1914 8.39112 14.25 8.19778 14.25 8C14.25 7.73478 14.1446 7.48043 13.9571 7.29289C13.7696 7.10536 13.5152 7 13.25 7Z" fill="white"/>
</svg>
