<svg width="20" height="21" viewBox="0 0 20 21" fill="none" xmlns="http://www.w3.org/2000/svg">
<path fill-rule="evenodd" clip-rule="evenodd" d="M0 4.37097C0 2.23309 1.73309 0.5 3.87097 0.5H16.129C18.2669 0.5 20 2.23309 20 4.37097V16.629C20 18.7669 18.2669 20.5 16.129 20.5H3.87097C1.73309 20.5 0 18.7669 0 16.629V4.37097ZM18.0645 4.69355C18.0645 5.58433 17.3424 6.30645 16.4516 6.30645C15.5608 6.30645 14.8387 5.58433 14.8387 4.69355C14.8387 3.80277 15.5608 3.08065 16.4516 3.08065C17.3424 3.08065 18.0645 3.80277 18.0645 4.69355ZM10 16.629C13.385 16.629 16.129 13.885 16.129 10.5C16.129 7.11503 13.385 4.37097 10 4.37097C6.61503 4.37097 3.87097 7.11503 3.87097 10.5C3.87097 13.885 6.61503 16.629 10 16.629Z" fill="white"/>
</svg>
