<svg width="22" height="22" viewBox="0 0 22 22" fill="none" xmlns="http://www.w3.org/2000/svg">
<path d="M15.4 2.19995H6.59995C4.1699 2.19995 2.19995 4.1699 2.19995 6.59995V15.4C2.19995 17.83 4.1699 19.8 6.59995 19.8H15.4C17.83 19.8 19.8 17.83 19.8 15.4V6.59995C19.8 4.1699 17.83 2.19995 15.4 2.19995Z" stroke="white" stroke-linecap="round" stroke-linejoin="round"/>
<path d="M14.52 10.4456C14.6286 11.1779 14.5035 11.9259 14.1625 12.5831C13.8215 13.2403 13.282 13.7732 12.6206 14.1061C11.9593 14.439 11.2098 14.5548 10.4788 14.4372C9.74787 14.3196 9.07259 13.9744 8.54905 13.4509C8.02552 12.9274 7.6804 12.2521 7.56278 11.5211C7.44515 10.7901 7.56101 10.0407 7.89388 9.37934C8.22675 8.718 8.75968 8.17846 9.41686 7.83746C10.074 7.49647 10.822 7.37137 11.5544 7.47997C12.3014 7.59075 12.9931 7.93886 13.5271 8.47288C14.0611 9.0069 14.4092 9.69852 14.52 10.4456Z" stroke="white" stroke-linecap="round" stroke-linejoin="round"/>
<path d="M15.84 6.15991H15.8488" stroke="white" stroke-linecap="round" stroke-linejoin="round"/>
</svg>
