<svg width="24" height="24" viewBox="0 0 24 24" fill="none" xmlns="http://www.w3.org/2000/svg">
<rect opacity="0.06" width="24" height="24" rx="8" fill="#00C7C4"/>
<path opacity="0.4" d="M17.1066 9.76575C16.768 9.76575 16.3194 9.75825 15.761 9.75825C14.399 9.75825 13.2792 8.631 13.2792 7.25625V4.84425C13.2792 4.6545 13.1277 4.5 12.9398 4.5H8.97272C7.12137 4.5 5.625 6.0195 5.625 7.88175V15.963C5.625 17.9167 7.19267 19.5 9.12718 19.5H15.0347C16.8794 19.5 18.375 17.9902 18.375 16.1265V10.1033C18.375 9.91275 18.2242 9.759 18.0356 9.75975C17.7185 9.762 17.3383 9.76575 17.1066 9.76575Z" fill="#00C7C4"/>
<path opacity="0.4" d="M15.063 4.92553C14.8388 4.69228 14.4473 4.85278 14.4473 5.17603V7.15378C14.4473 7.98328 15.1305 8.66578 15.96 8.66578C16.4828 8.67178 17.2088 8.67328 17.8253 8.67178C18.141 8.67103 18.3015 8.29378 18.0825 8.06578C17.2913 7.24303 15.8745 5.76853 15.063 4.92553Z" fill="#00C7C4"/>
<path fill-rule="evenodd" clip-rule="evenodd" d="M9.73036 11.5407H12.2691C12.5774 11.5407 12.8279 11.291 12.8279 10.9827C12.8279 10.6745 12.5774 10.424 12.2691 10.424H9.73036C9.42211 10.424 9.17236 10.6745 9.17236 10.9827C9.17236 11.291 9.42211 11.5407 9.73036 11.5407ZM9.73044 15.2864H13.8134C14.1217 15.2864 14.3722 15.0366 14.3722 14.7284C14.3722 14.4201 14.1217 14.1696 13.8134 14.1696H9.73044C9.42219 14.1696 9.17244 14.4201 9.17244 14.7284C9.17244 15.0366 9.42219 15.2864 9.73044 15.2864Z" fill="#42C0C0"/>
</svg>
