<svg width="8" height="20" viewBox="0 0 8 20" fill="none" xmlns="http://www.w3.org/2000/svg">
<path fill-rule="evenodd" clip-rule="evenodd" d="M7.12335 19.1273C7.00061 19.1267 6.87942 19.0952 6.76796 19.035C6.65651 18.9748 6.5574 18.8873 6.47735 18.7784L0.229348 10.42C0.0813649 10.2183 0 9.96119 0 9.69528C0 9.42938 0.0813649 9.17227 0.229348 8.97056L6.37935 0.743335C6.45468 0.639673 6.54743 0.555276 6.65183 0.4954C6.75623 0.435524 6.87004 0.40145 6.98617 0.3953C7.1023 0.38915 7.21827 0.411056 7.32686 0.459652C7.43545 0.508248 7.53433 0.582495 7.61735 0.677771C7.7895 0.874961 7.89094 1.1416 7.90097 1.42334C7.91101 1.70507 7.82888 1.98067 7.67135 2.19396L2.06435 9.69411L7.76935 17.3277C7.92695 17.5412 8.0091 17.817 7.99907 18.0989C7.98904 18.3809 7.88757 18.6477 7.71535 18.8451C7.55677 19.0255 7.34448 19.1267 7.12335 19.1273" fill="#666666"/>
</svg>
