<svg width="24" height="24" viewBox="0 0 24 24" fill="none" xmlns="http://www.w3.org/2000/svg">
<rect opacity="0.06" width="24" height="24" rx="8" fill="#00C7C4"/>
<path d="M17.8271 11.734C17.2793 11.0942 17.0303 10.5398 17.0303 9.59787V9.2776C17.0303 8.05015 16.7478 7.2593 16.1336 6.46845C15.1869 5.24024 13.5933 4.5 12.0332 4.5H11.9668C10.4395 4.5 8.8958 5.20625 7.93275 6.3846C7.285 7.19132 6.96969 8.01616 6.96969 9.2776V9.59787C6.96969 10.5398 6.73713 11.0942 6.17287 11.734C5.75768 12.2053 5.625 12.8111 5.625 13.4668C5.625 14.1232 5.84042 14.7448 6.27275 15.2502C6.83701 15.856 7.63384 16.2427 8.44781 16.3099C9.62629 16.4444 10.8048 16.495 12.0004 16.495C13.1952 16.495 14.3737 16.4104 15.5529 16.3099C16.3662 16.2427 17.163 15.856 17.7273 15.2502C18.1588 14.7448 18.375 14.1232 18.375 13.4668C18.375 12.8111 18.2423 12.2053 17.8271 11.734Z" fill="#00C7C4"/>
<path opacity="0.4" d="M13.5063 17.4213C13.1314 17.3412 10.8468 17.3412 10.4718 17.4213C10.1513 17.4953 9.80469 17.6675 9.80469 18.0452C9.82332 18.4055 10.0343 18.7235 10.3265 18.9252L10.3257 18.9259C10.7036 19.2205 11.1471 19.4078 11.6115 19.4751C11.859 19.509 12.1109 19.5075 12.3674 19.4751C12.831 19.4078 13.2745 19.2205 13.6524 18.9259L13.6517 18.9252C13.9439 18.7235 14.1548 18.4055 14.1735 18.0452C14.1735 17.6675 13.8268 17.4953 13.5063 17.4213Z" fill="#00C7C4"/>
</svg>
