<svg width="24" height="24" viewBox="0 0 24 24" fill="none" xmlns="http://www.w3.org/2000/svg">
<rect opacity="0.06" width="24" height="24" rx="8" fill="#00C7C4"/>
<path opacity="0.4" d="M15.1432 4.5H8.8575C6.5775 4.5 5.25 5.835 5.25 8.1225V15.87C5.25 18.195 6.5775 19.5 8.8575 19.5H15.1432C17.46 19.5 18.75 18.195 18.75 15.87V8.1225C18.75 5.835 17.46 4.5 15.1432 4.5Z" fill="#42C0C0"/>
<path fill-rule="evenodd" clip-rule="evenodd" d="M9.06021 7.98755V7.99505C8.73696 7.99505 8.47521 8.25755 8.47521 8.58005C8.47521 8.90255 8.73696 9.16505 9.06021 9.16505H11.302C11.6252 9.16505 11.8877 8.90255 11.8877 8.5718C11.8877 8.25005 11.6252 7.98755 11.302 7.98755H9.06021ZM14.9402 12.555H9.06021C8.73696 12.555 8.47521 12.2925 8.47521 11.97C8.47521 11.6475 8.73696 11.3843 9.06021 11.3843H14.9402C15.2627 11.3843 15.5252 11.6475 15.5252 11.97C15.5252 12.2925 15.2627 12.555 14.9402 12.555ZM14.9402 15.9825H9.06021C8.83521 16.0125 8.61771 15.9 8.49771 15.7125C8.37771 15.5175 8.37771 15.27 8.49771 15.0825C8.61771 14.8875 8.83521 14.7825 9.06021 14.805H14.9402C15.2395 14.835 15.4652 15.09 15.4652 15.3975C15.4652 15.6968 15.2395 15.9525 14.9402 15.9825Z" fill="#42C0C0"/>
</svg>
