<svg width="11" height="11" viewBox="0 0 11 11" fill="none" xmlns="http://www.w3.org/2000/svg">
<path d="M10.1534 5.50027C10.1534 5.70601 10.0745 5.90489 9.92698 6.0489C9.78291 6.19635 9.58396 6.27865 9.37814 6.27865H6.27722V9.37843C6.27722 9.58417 6.19489 9.78305 6.04739 9.92706C5.90332 10.0711 5.7078 10.1534 5.50199 10.1534C5.29617 10.1534 5.09722 10.0711 4.95315 9.92706C4.80565 9.78305 4.72332 9.58417 4.72332 9.37843V6.27865H1.6224C1.41659 6.27865 1.21763 6.19635 1.07356 6.0489C0.929493 5.90489 0.847168 5.70601 0.847168 5.50027C0.847168 5.29453 0.929493 5.09908 1.07356 4.95164C1.21763 4.80762 1.41659 4.72533 1.6224 4.72533H4.72332V1.62554C4.72332 1.4198 4.80565 1.22092 4.95315 1.07691C5.09722 0.929463 5.29617 0.847168 5.50199 0.847168C5.7078 0.847168 5.90332 0.929463 6.04739 1.07691C6.19489 1.22092 6.27722 1.4198 6.27722 1.62554V4.72533H9.37814C9.58396 4.72533 9.78291 4.80762 9.92698 4.95164C10.0745 5.09908 10.1534 5.29453 10.1534 5.50027Z" fill="white"/>
</svg>
