<svg width="15" height="15" viewBox="0 0 15 15" fill="none" xmlns="http://www.w3.org/2000/svg">
<path d="M14.2686 13.9297L10.7412 10.4023C10.6865 10.3477 10.6045 10.3203 10.5225 10.3203H10.2217C11.1787 9.28125 11.7529 7.94141 11.7529 6.4375C11.7529 3.32031 9.18262 0.75 6.06543 0.75C2.9209 0.75 0.37793 3.32031 0.37793 6.4375C0.37793 9.58203 2.9209 12.125 6.06543 12.125C7.54199 12.125 8.90918 11.5508 9.9209 10.6211V10.8945C9.9209 11.0039 9.94824 11.0859 10.0029 11.1406L13.5303 14.668C13.667 14.8047 13.8584 14.8047 13.9951 14.668L14.2686 14.3945C14.4053 14.2578 14.4053 14.0664 14.2686 13.9297ZM6.06543 11.25C3.38574 11.25 1.25293 9.11719 1.25293 6.4375C1.25293 3.78516 3.38574 1.625 6.06543 1.625C8.71777 1.625 10.8779 3.78516 10.8779 6.4375C10.8779 9.11719 8.71777 11.25 6.06543 11.25Z" fill="#888B8D"/>
</svg>
