<svg width="13" height="13" viewBox="0 0 13 13" fill="none" xmlns="http://www.w3.org/2000/svg">
<path d="M10.25 7.68948C9.88077 7.69193 9.51663 7.77643 9.18379 7.93689C8.85094 8.09735 8.55767 8.3298 8.32503 8.61753L5.13753 7.14395C5.2874 6.68353 5.2874 6.18722 5.13753 5.7268L8.32503 4.25322C8.70105 4.70844 9.22525 5.01577 9.80513 5.12096C10.385 5.22616 10.9833 5.12246 11.4944 4.82817C12.0055 4.53387 12.3965 4.06791 12.5985 3.5125C12.8005 2.9571 12.8004 2.34796 12.5983 1.79259C12.3963 1.23722 12.0051 0.771327 11.494 0.477128C10.9828 0.182929 10.3845 0.079339 9.80468 0.184641C9.22482 0.289942 8.70067 0.597366 8.32474 1.05266C7.94881 1.50795 7.74527 2.08183 7.75003 2.67304C7.75191 2.82242 7.76655 2.97137 7.79378 3.11825L4.49378 4.64199C4.14196 4.29685 3.69644 4.06354 3.21304 3.97131C2.72964 3.87908 2.22986 3.93202 1.77631 4.1235C1.32277 4.31498 0.935634 4.63649 0.663408 5.04774C0.391181 5.45899 0.245972 5.94169 0.245972 6.43537C0.245972 6.92905 0.391181 7.41176 0.663408 7.82301C0.935634 8.23426 1.32277 8.55576 1.77631 8.74724C2.22986 8.93873 2.72964 8.99167 3.21304 8.89943C3.69644 8.8072 4.14196 8.5739 4.49378 8.22875L7.79378 9.7525C7.76655 9.89938 7.75191 10.0483 7.75003 10.1977C7.75003 10.6938 7.89666 11.1787 8.17136 11.5912C8.44606 12.0037 8.83651 12.3252 9.29333 12.515C9.75014 12.7048 10.2528 12.7545 10.7378 12.6577C11.2227 12.561 11.6682 12.3221 12.0178 11.9713C12.3674 11.6205 12.6055 11.1736 12.702 10.687C12.7985 10.2005 12.749 9.69617 12.5597 9.23785C12.3705 8.77954 12.0501 8.3878 11.639 8.1122C11.2278 7.83659 10.7445 7.68948 10.25 7.68948ZM10.25 1.41892C10.4973 1.41892 10.7389 1.49248 10.9445 1.63028C11.1501 1.76808 11.3103 1.96395 11.4049 2.19311C11.4995 2.42227 11.5242 2.67443 11.476 2.9177C11.4278 3.16097 11.3087 3.38444 11.1339 3.55983C10.9591 3.73522 10.7364 3.85466 10.4939 3.90305C10.2514 3.95144 10.0001 3.9266 9.77168 3.83168C9.54327 3.73676 9.34805 3.57602 9.2107 3.36978C9.07334 3.16354 9.00003 2.92108 9.00003 2.67304C9.00003 2.34042 9.13173 2.02144 9.36615 1.78624C9.60057 1.55105 9.91851 1.41892 10.25 1.41892ZM2.75003 7.68948C2.50281 7.68948 2.26113 7.61593 2.05557 7.47813C1.85001 7.34032 1.68979 7.14446 1.59518 6.9153C1.50057 6.68614 1.47582 6.43398 1.52405 6.19071C1.57228 5.94743 1.69133 5.72397 1.86615 5.54858C2.04096 5.37319 2.26369 5.25375 2.50617 5.20536C2.74865 5.15697 2.99998 5.1818 3.22839 5.27672C3.45679 5.37164 3.65202 5.53239 3.78937 5.73862C3.92672 5.94486 4.00003 6.18733 4.00003 6.43537C4.00003 6.76798 3.86834 7.08697 3.63392 7.32216C3.3995 7.55735 3.08155 7.68948 2.75003 7.68948ZM10.25 11.4518C10.0028 11.4518 9.76113 11.3783 9.55557 11.2405C9.35001 11.1027 9.18979 10.9068 9.09518 10.6776C9.00057 10.4485 8.97582 10.1963 9.02405 9.95304C9.07228 9.70977 9.19133 9.48631 9.36615 9.31092C9.54097 9.13553 9.76369 9.01608 10.0062 8.96769C10.2486 8.9193 10.5 8.94414 10.7284 9.03906C10.9568 9.13398 11.152 9.29472 11.2894 9.50096C11.4267 9.7072 11.5 9.94967 11.5 10.1977C11.5 10.5303 11.3683 10.8493 11.1339 11.0845C10.8995 11.3197 10.5816 11.4518 10.25 11.4518Z" fill="white"/>
</svg>
