<svg width="21" height="20" viewBox="0 0 21 20" fill="none" xmlns="http://www.w3.org/2000/svg">
<path d="M12.86 12.23C12.1915 12.769 11.3587 13.0629 10.5 13.0629C9.64131 13.0629 8.80849 12.769 8.14 12.23C7.93579 12.0603 7.67251 11.9786 7.40808 12.003C7.14365 12.0274 6.89974 12.1558 6.73 12.36C6.56027 12.5642 6.4786 12.8275 6.50298 13.0919C6.52736 13.3564 6.65579 13.6003 6.86 13.77C7.88134 14.6226 9.16957 15.0896 10.5 15.0896C11.8304 15.0896 13.1187 14.6226 14.14 13.77C14.3442 13.6003 14.4726 13.3564 14.497 13.0919C14.5214 12.8275 14.4397 12.5642 14.27 12.36C14.186 12.2589 14.0828 12.1753 13.9665 12.1141C13.8501 12.0528 13.7229 12.0151 13.5919 12.003C13.3275 11.9786 13.0642 12.0603 12.86 12.23V12.23ZM7.5 9C7.69779 9 7.89113 8.94135 8.05557 8.83147C8.22002 8.72159 8.3482 8.56541 8.42388 8.38268C8.49957 8.19996 8.51937 7.99889 8.48079 7.80491C8.4422 7.61093 8.34696 7.43275 8.20711 7.29289C8.06726 7.15304 7.88908 7.0578 7.69509 7.01921C7.50111 6.98063 7.30005 7.00043 7.11732 7.07612C6.93459 7.15181 6.77842 7.27998 6.66853 7.44443C6.55865 7.60888 6.5 7.80222 6.5 8C6.5 8.26522 6.60536 8.51957 6.7929 8.70711C6.98043 8.89464 7.23479 9 7.5 9ZM13.5 7C13.3022 7 13.1089 7.05865 12.9444 7.16853C12.78 7.27841 12.6518 7.43459 12.5761 7.61732C12.5004 7.80004 12.4806 8.00111 12.5192 8.19509C12.5578 8.38907 12.653 8.56725 12.7929 8.70711C12.9328 8.84696 13.1109 8.9422 13.3049 8.98079C13.4989 9.01937 13.7 8.99957 13.8827 8.92388C14.0654 8.84819 14.2216 8.72002 14.3315 8.55557C14.4414 8.39112 14.5 8.19778 14.5 8C14.5 7.73478 14.3946 7.48043 14.2071 7.29289C14.0196 7.10536 13.7652 7 13.5 7ZM10.5 0C8.52219 0 6.58879 0.58649 4.9443 1.6853C3.29981 2.78412 2.01809 4.3459 1.26121 6.17317C0.504333 8.00043 0.306299 10.0111 0.692152 11.9509C1.078 13.8907 2.03041 15.6725 3.42894 17.0711C4.82746 18.4696 6.60929 19.422 8.5491 19.8079C10.4889 20.1937 12.4996 19.9957 14.3268 19.2388C16.1541 18.4819 17.7159 17.2002 18.8147 15.5557C19.9135 13.9112 20.5 11.9778 20.5 10C20.5 8.68678 20.2413 7.38642 19.7388 6.17317C19.2363 4.95991 18.4997 3.85752 17.5711 2.92893C16.6425 2.00035 15.5401 1.26375 14.3268 0.761205C13.1136 0.258658 11.8132 0 10.5 0V0ZM10.5 18C8.91775 18 7.37104 17.5308 6.05544 16.6518C4.73985 15.7727 3.71447 14.5233 3.10897 13.0615C2.50347 11.5997 2.34504 9.99113 2.65372 8.43928C2.9624 6.88743 3.72433 5.46197 4.84315 4.34315C5.96197 3.22433 7.38743 2.4624 8.93928 2.15372C10.4911 1.84504 12.0997 2.00346 13.5615 2.60896C15.0233 3.21447 16.2727 4.23984 17.1518 5.55544C18.0308 6.87103 18.5 8.41775 18.5 10C18.5 12.1217 17.6572 14.1566 16.1569 15.6569C14.6566 17.1571 12.6217 18 10.5 18V18Z" fill="white"/>
</svg>
