<svg width="22" height="18" viewBox="0 0 22 18" fill="none" xmlns="http://www.w3.org/2000/svg">
<path d="M11.4785 14.6773C10.7658 15.2656 10.0907 15.8271 9.41057 16.3831C8.41887 17.1943 7.45262 16.9982 7.01786 15.8484C6.53423 14.569 6.09336 13.274 5.6983 11.9696C5.53743 11.4387 5.26965 11.1473 4.67504 10.9956C3.64973 10.7338 2.64683 10.3952 1.63986 10.077C1.38735 9.9965 1.12975 9.89752 0.912879 9.75784C-0.112424 9.09735 -0.0716971 7.98081 1.02793 7.43133C1.67753 7.10664 2.38516 6.87723 3.07141 6.61451C8.314 4.60807 13.5586 2.60441 18.8022 0.600753C18.958 0.54155 19.1158 0.482346 19.2767 0.438869C20.5637 0.0947499 21.5564 0.914345 21.3151 2.12894C21.1583 2.91616 20.9821 3.7006 20.8131 4.48597C19.9752 8.38228 19.1331 12.2777 18.3003 16.1749C18.0162 17.5014 16.3779 18.0814 15.1877 17.2609C13.9608 16.4154 12.741 15.5579 11.4785 14.6773ZM19.7115 1.8505C13.7704 4.12335 7.93218 6.35735 1.99418 8.62927C3.52043 9.09827 4.93467 9.52287 6.33874 9.97245C6.66353 10.0761 6.90281 10.0326 7.18484 9.87347C10.2058 8.16305 13.2318 6.45818 16.2659 4.76626C16.5144 4.6275 17.0662 4.49244 17.0835 4.52482C17.2862 4.91519 16.8412 5.0336 16.6233 5.22046C14.2265 7.27037 11.8135 9.30456 9.40854 11.3461C9.27617 11.459 9.10206 11.5922 9.07457 11.7356C8.86687 12.8235 8.69174 13.9169 8.48301 15.1463C9.52359 14.2887 10.4562 13.52 11.3879 12.7532C12.9162 13.817 14.3966 14.8484 15.878 15.8789C16.5073 16.3164 16.6213 16.2757 16.7699 15.5847C17.5376 12.0039 18.3104 8.42391 19.0802 4.84304C19.2859 3.88098 19.4864 2.91801 19.7115 1.8505Z" fill="white"/>
</svg>
