<svg width="21" height="20" viewBox="0 0 21 20" fill="none" xmlns="http://www.w3.org/2000/svg">
<path d="M7.75 7C7.55222 7 7.35888 7.05865 7.19443 7.16853C7.02998 7.27841 6.90181 7.43459 6.82612 7.61732C6.75044 7.80004 6.73063 8.00111 6.76922 8.19509C6.8078 8.38907 6.90305 8.56725 7.0429 8.70711C7.18275 8.84696 7.36093 8.9422 7.55491 8.98079C7.7489 9.01937 7.94996 8.99957 8.13269 8.92388C8.31541 8.84819 8.47159 8.72002 8.58147 8.55557C8.69136 8.39112 8.75 8.19778 8.75 8C8.75 7.73478 8.64465 7.48043 8.45711 7.29289C8.26957 7.10536 8.01522 7 7.75 7ZM13.75 11C12.8586 11 11.9835 11.2382 11.2151 11.6901C10.4468 12.1419 9.81321 12.791 9.38 13.57C9.24963 13.7996 9.21537 14.0715 9.28468 14.3263C9.354 14.581 9.52127 14.7981 9.75 14.93C9.89946 15.0147 10.0682 15.0595 10.24 15.06C10.4172 15.0597 10.5911 15.0123 10.744 14.9227C10.8969 14.8331 11.0232 14.7045 11.11 14.55C11.3704 14.0784 11.7529 13.6856 12.2174 13.4129C12.6819 13.1402 13.2113 12.9975 13.75 13C14.0152 13 14.2696 12.8946 14.4571 12.7071C14.6446 12.5196 14.75 12.2652 14.75 12C14.75 11.7348 14.6446 11.4804 14.4571 11.2929C14.2696 11.1054 14.0152 11 13.75 11ZM13.75 7C13.5522 7 13.3589 7.05865 13.1944 7.16853C13.03 7.27841 12.9018 7.43459 12.8261 7.61732C12.7504 7.80004 12.7306 8.00111 12.7692 8.19509C12.8078 8.38907 12.903 8.56725 13.0429 8.70711C13.1828 8.84696 13.3609 8.9422 13.5549 8.98079C13.7489 9.01937 13.95 8.99957 14.1327 8.92388C14.3154 8.84819 14.4716 8.72002 14.5815 8.55557C14.6914 8.39112 14.75 8.19778 14.75 8C14.75 7.73478 14.6446 7.48043 14.4571 7.29289C14.2696 7.10536 14.0152 7 13.75 7ZM10.75 0C8.77219 0 6.83879 0.58649 5.1943 1.6853C3.54981 2.78412 2.26809 4.3459 1.51121 6.17317C0.754333 8.00043 0.556299 10.0111 0.942152 11.9509C1.328 13.8907 2.28041 15.6725 3.67894 17.0711C5.07746 18.4696 6.85929 19.422 8.7991 19.8079C10.7389 20.1937 12.7496 19.9957 14.5768 19.2388C16.4041 18.4819 17.9659 17.2002 19.0647 15.5557C20.1635 13.9112 20.75 11.9778 20.75 10C20.75 8.68678 20.4913 7.38642 19.9888 6.17317C19.4863 4.95991 18.7497 3.85752 17.8211 2.92893C16.8925 2.00035 15.7901 1.26375 14.5768 0.761205C13.3636 0.258658 12.0632 0 10.75 0V0ZM10.75 18C9.16775 18 7.62104 17.5308 6.30544 16.6518C4.98985 15.7727 3.96447 14.5233 3.35897 13.0615C2.75347 11.5997 2.59504 9.99113 2.90372 8.43928C3.2124 6.88743 3.97433 5.46197 5.09315 4.34315C6.21197 3.22433 7.63743 2.4624 9.18928 2.15372C10.7411 1.84504 12.3497 2.00346 13.8115 2.60896C15.2733 3.21447 16.5227 4.23984 17.4018 5.55544C18.2808 6.87103 18.75 8.41775 18.75 10C18.75 12.1217 17.9072 14.1566 16.4069 15.6569C14.9066 17.1571 12.8717 18 10.75 18V18Z" fill="white"/>
</svg>
