<svg width="25" height="24" viewBox="0 0 25 24" fill="none" xmlns="http://www.w3.org/2000/svg">
<g clip-path="url(#clip0_1397_9209)">
<path fill-rule="evenodd" clip-rule="evenodd" d="M2.9 0H22.1C23.4256 0 24.5 1.07443 24.5 2.4V21.6C24.5 22.9256 23.4256 24 22.1 24H2.9C1.57443 24 0.5 22.9256 0.5 21.6V2.4C0.5 1.07443 1.57443 0 2.9 0Z" fill="#010101"/>
<path fill-rule="evenodd" clip-rule="evenodd" d="M15.5703 22.08C16.3006 22.08 16.8926 21.4927 16.8926 20.7684C16.8926 20.0441 16.3006 19.4568 15.5703 19.4568H15.3711C16.1014 19.4568 16.6934 20.0441 16.6934 20.7684C16.6934 21.4927 16.1014 22.08 15.3711 22.08H15.5703Z" fill="#EE1D51"/>
<path fill-rule="evenodd" clip-rule="evenodd" d="M15.3526 19.4568H15.1534C14.4231 19.4568 13.8311 20.0441 13.8311 20.7684C13.8311 21.4927 14.4231 22.08 15.1534 22.08H15.3526C14.6222 22.08 14.0302 21.4927 14.0302 20.7684C14.0302 20.0441 14.6222 19.4568 15.3526 19.4568Z" fill="#66C8CF"/>
<path d="M15.3619 21.4059C15.7171 21.4059 16.005 21.1204 16.005 20.7683C16.005 20.4161 15.7171 20.1306 15.3619 20.1306C15.0067 20.1306 14.7188 20.4161 14.7188 20.7683C14.7188 21.1204 15.0067 21.4059 15.3619 21.4059Z" fill="#010101"/>
<path fill-rule="evenodd" clip-rule="evenodd" d="M5.2998 18.864V19.5288H6.07856V22.0621H6.8576V19.5468H7.49148L7.70883 18.864H5.2998ZM11.6756 18.864V19.5288H12.4544V22.0621H13.2334V19.5468H13.8673L14.0847 18.864H11.6756ZM7.85388 19.2413C7.85388 19.033 8.0239 18.864 8.23395 18.864C8.44419 18.864 8.6144 19.033 8.6144 19.2413C8.6144 19.4496 8.44428 19.6186 8.23395 19.6186C8.0239 19.6185 7.85388 19.4496 7.85388 19.2413ZM7.85388 19.8881H8.6144V22.0621H7.85388V19.8881ZM8.94051 18.864V22.0621H9.70131V21.2357L9.9368 21.0199L10.6794 22.08H11.4944L10.4256 20.5349L11.3856 19.6005H10.4619L9.70131 20.3551V18.864H8.94051ZM17.1456 18.864V22.0621H17.9065V21.2357L18.1419 21.0199L18.8847 22.08H19.6998L18.631 20.5349L19.591 19.6005H18.6673L17.9065 20.3551V18.864H17.1456Z" fill="white"/>
<path fill-rule="evenodd" clip-rule="evenodd" d="M15.9722 7.79377C17.0228 8.54439 18.31 8.98609 19.7001 8.98609V6.31239C19.437 6.3125 19.1746 6.28505 18.9172 6.23051V8.33511C17.5272 8.33511 16.2402 7.89341 15.1893 7.14279V12.5989C15.1893 15.3284 12.9755 17.5409 10.2448 17.5409C9.22596 17.5409 8.27891 17.233 7.49219 16.705C8.39008 17.6226 9.64221 18.1919 11.0275 18.1919C13.7584 18.1919 15.9723 15.9794 15.9723 13.2498V7.79377H15.9722ZM16.938 5.09636C16.401 4.51009 16.0485 3.75237 15.9722 2.91467V2.5708H15.2303C15.417 3.63544 16.054 4.54504 16.938 5.09636ZM9.21933 14.6106C8.91937 14.2175 8.75723 13.7365 8.75795 13.242C8.75795 11.9937 9.77057 10.9815 11.0198 10.9815C11.2526 10.9814 11.484 11.0171 11.7059 11.0874V8.35402C11.4467 8.31851 11.185 8.30346 10.9233 8.309V10.4365C10.7013 10.3662 10.4698 10.3305 10.2369 10.3307C8.98768 10.3307 7.97517 11.3428 7.97517 12.5913C7.97517 13.474 8.48128 14.2383 9.21933 14.6106Z" fill="#EE1D52"/>
<path fill-rule="evenodd" clip-rule="evenodd" d="M15.1893 7.14279C16.2402 7.89341 17.5272 8.33511 18.9172 8.33511V6.23051C18.1413 6.06539 17.4544 5.66007 16.938 5.09636C16.054 4.54504 15.417 3.63544 15.2303 2.5708H13.2816V13.2497C13.2772 14.4946 12.2663 15.5026 11.0198 15.5026C10.2852 15.5026 9.63259 15.1527 9.21931 14.6106C8.48127 14.2383 7.97516 13.474 7.97516 12.5913C7.97516 11.3428 8.98767 10.3307 10.2369 10.3307C10.4762 10.3307 10.7069 10.3679 10.9233 10.4365V8.309C8.2406 8.36439 6.08301 10.5553 6.08301 13.2498C6.08301 14.5949 6.62032 15.8143 7.49228 16.7051C8.279 17.2331 9.22603 17.541 10.2449 17.541C12.9756 17.541 15.1893 15.3284 15.1893 12.599V7.14279Z" fill="white"/>
<path fill-rule="evenodd" clip-rule="evenodd" d="M18.9167 6.23051V5.66143C18.217 5.66248 17.5311 5.46663 16.9375 5.09627C17.463 5.67129 18.1549 6.06784 18.9167 6.23051ZM15.2299 2.5708C15.212 2.46907 15.1983 2.36665 15.1889 2.26379V1.91992H12.4982V12.599C12.4939 13.8438 11.4831 14.8518 10.2365 14.8518C9.87042 14.8518 9.52492 14.765 9.21887 14.6106C9.63215 15.1528 10.2848 15.5027 11.0193 15.5027C12.2658 15.5027 13.2768 14.4947 13.2812 13.2497V2.5708H15.2299ZM10.923 8.30901V7.70315C10.6981 7.67241 10.4715 7.65705 10.2445 7.65717C7.51355 7.65717 5.2998 9.86978 5.2998 12.599C5.2998 14.3101 6.16984 15.818 7.49195 16.7051C6.61998 15.8142 6.08268 14.5948 6.08268 13.2497C6.08268 10.5553 8.24016 8.3644 10.923 8.30901Z" fill="#69C9D0"/>
<path fill-rule="evenodd" clip-rule="evenodd" d="M15.3706 22.08C16.1009 22.08 16.693 21.4927 16.693 20.7684C16.693 20.0441 16.1009 19.4568 15.3706 19.4568H15.3526C14.6223 19.4568 14.0303 20.0441 14.0303 20.7684C14.0303 21.4927 14.6223 22.08 15.3526 22.08H15.3706ZM14.7186 20.7684C14.7186 20.4161 15.0066 20.1307 15.3618 20.1307C15.7167 20.1307 16.0047 20.4161 16.0047 20.7684C16.0047 21.1207 15.7167 21.4063 15.3618 21.4063C15.0066 21.4062 14.7186 21.1207 14.7186 20.7684Z" fill="white"/>
</g>
<defs>
<clipPath id="clip0_1397_9209">
<rect width="24" height="24" fill="white" transform="translate(0.5)"/>
</clipPath>
</defs>
</svg>
