<svg width="24" height="21" viewBox="0 0 24 21" fill="none" xmlns="http://www.w3.org/2000/svg">
<path d="M21.5156 5.60156C22.4531 4.89844 23.2969 4.05469 23.9531 3.07031C23.1094 3.44531 22.125 3.72656 21.1406 3.82031C22.1719 3.21094 22.9219 2.27344 23.2969 1.10156C22.3594 1.66406 21.2812 2.08594 20.2031 2.32031C19.2656 1.33594 18 0.773438 16.5938 0.773438C13.875 0.773438 11.6719 2.97656 11.6719 5.69531C11.6719 6.07031 11.7188 6.44531 11.8125 6.82031C7.73438 6.58594 4.07812 4.61719 1.64062 1.66406C1.21875 2.36719 0.984375 3.21094 0.984375 4.14844C0.984375 5.83594 1.82812 7.33594 3.1875 8.22656C2.39062 8.17969 1.59375 7.99219 0.9375 7.61719V7.66406C0.9375 10.0547 2.625 12.0234 4.875 12.4922C4.5 12.5859 4.03125 12.6797 3.60938 12.6797C3.28125 12.6797 3 12.6328 2.67188 12.5859C3.28125 14.5547 5.10938 15.9609 7.26562 16.0078C5.57812 17.3203 3.46875 18.1172 1.17188 18.1172C0.75 18.1172 0.375 18.0703 0 18.0234C2.15625 19.4297 4.73438 20.2266 7.54688 20.2266C16.5938 20.2266 21.5156 12.7734 21.5156 6.25781C21.5156 6.02344 21.5156 5.83594 21.5156 5.60156Z" fill="white"/>
</svg>
