<svg width="24" height="24" viewBox="0 0 24 24" fill="none" xmlns="http://www.w3.org/2000/svg">
<rect opacity="0.06" width="24" height="24" rx="8" fill="#00C7C4"/>
<ellipse opacity="0.4" cx="11.6841" cy="8.08352" rx="3.58352" ry="3.58352" stroke="#00C7C4" stroke-width="1.5" stroke-linecap="round" stroke-linejoin="round"/>
<path fill-rule="evenodd" clip-rule="evenodd" d="M6.00001 16.651C5.99905 16.3991 6.05539 16.1503 6.16477 15.9234C6.50802 15.2369 7.47598 14.873 8.27919 14.7083C8.85846 14.5846 9.44573 14.5021 10.0366 14.4611C11.1306 14.365 12.231 14.365 13.325 14.4611C13.9158 14.5025 14.503 14.5851 15.0824 14.7083C15.8856 14.873 16.8536 15.2025 17.1968 15.9234C17.4168 16.386 17.4168 16.923 17.1968 17.3856C16.8536 18.1064 15.8856 18.4359 15.0824 18.5938C14.5038 18.7226 13.9163 18.8075 13.325 18.8478C12.4345 18.9233 11.5399 18.9371 10.6476 18.889C10.4417 18.889 10.2426 18.889 10.0366 18.8478C9.44747 18.808 8.86224 18.7231 8.28605 18.5938C7.47598 18.4359 6.51489 18.1064 6.16477 17.3856C6.05595 17.156 5.99966 16.9051 6.00001 16.651Z" stroke="#00C7C4" stroke-width="1.5" stroke-linecap="round" stroke-linejoin="round"/>
</svg>
