<svg width="21" height="20" viewBox="0 0 21 20" fill="none" xmlns="http://www.w3.org/2000/svg">
<path d="M19.16 2.60981C18.0983 1.54782 16.6908 0.90214 15.1933 0.790195C13.6958 0.67825 12.2078 1.10748 11 1.99981C9.72769 1.05345 8.14402 0.624325 6.56795 0.798851C4.99188 0.973377 3.54047 1.73859 2.506 2.9404C1.47154 4.14221 0.930854 5.69133 0.992833 7.27583C1.05481 8.86032 1.71485 10.3625 2.84003 11.4798L10.29 18.9298C10.383 19.0235 10.4936 19.0979 10.6155 19.1487C10.7373 19.1995 10.868 19.2256 11 19.2256C11.132 19.2256 11.2627 19.1995 11.3846 19.1487C11.5065 19.0979 11.6171 19.0235 11.71 18.9298L19.16 11.4798C19.7427 10.8975 20.2049 10.2062 20.5202 9.44518C20.8356 8.6842 20.9979 7.86854 20.9979 7.04481C20.9979 6.22108 20.8356 5.40542 20.5202 4.64445C20.2049 3.88347 19.7427 3.19209 19.16 2.60981ZM17.75 10.0698L11 16.8098L4.25003 10.0698C3.65521 9.47251 3.25001 8.71286 3.08526 7.88615C2.92052 7.05945 3.00356 6.2025 3.32398 5.42281C3.6444 4.64312 4.18793 3.97541 4.88638 3.50344C5.58483 3.03147 6.40709 2.77625 7.25003 2.76981C8.37614 2.77257 9.45513 3.22215 10.25 4.01981C10.343 4.11354 10.4536 4.18794 10.5755 4.23871C10.6973 4.28947 10.828 4.31561 10.96 4.31561C11.092 4.31561 11.2227 4.28947 11.3446 4.23871C11.4665 4.18794 11.5771 4.11354 11.67 4.01981C12.4884 3.3107 13.5455 2.93896 14.6276 2.97984C15.7096 3.02072 16.7357 3.47116 17.4982 4.24C18.2607 5.00884 18.7026 6.03865 18.7345 7.121C18.7664 8.20335 18.3859 9.2574 17.67 10.0698H17.75Z" fill="#012CDB"/>
</svg>
