<svg width="20" height="14" viewBox="0 0 20 14" fill="none" xmlns="http://www.w3.org/2000/svg">
<path fill-rule="evenodd" clip-rule="evenodd" d="M19.4036 5.01671C19.4459 3.77309 19.1783 2.53877 18.6258 1.42837C18.2509 0.972745 17.7306 0.66527 17.1556 0.559523C14.7774 0.340161 12.3892 0.250252 10.0015 0.29018C7.62249 0.248439 5.24297 0.335447 2.87304 0.550834C2.4045 0.637473 1.97089 0.860875 1.62513 1.19378C0.855874 1.91492 0.770401 3.14869 0.684928 4.1913C0.560916 6.06589 0.560916 7.94684 0.684928 9.82143C0.709655 10.4083 0.79561 10.9907 0.941347 11.5591C1.04441 11.9979 1.25292 12.4039 1.54821 12.7408C1.89631 13.0913 2.34002 13.3274 2.82176 13.4185C4.66449 13.6497 6.52123 13.7455 8.37753 13.7052C11.3691 13.7486 13.9931 13.7052 17.0958 13.4619C17.5894 13.3764 18.0456 13.14 18.4035 12.7842C18.6428 12.5408 18.8216 12.243 18.9249 11.9153C19.2306 10.9619 19.3807 9.96402 19.3694 8.96127C19.4036 8.47472 19.4036 5.53801 19.4036 5.01671ZM8.06972 9.48259V4.10443L13.1297 6.80654C11.7109 7.60588 9.83901 8.50948 8.06972 9.48259Z" fill="white"/>
</svg>
