<svg width="26" height="24" viewBox="0 0 26 24" fill="none" xmlns="http://www.w3.org/2000/svg">
<path d="M25 4V18.4C25 20 24.2 20.8 22.6 20.8C21 20.8 20.2 20 20.2 18.4V4H1V17.2C1 19.6 2.2 20.8 4.6 20.8C7 20.8 13 20.8 22.6 20.8L23 4H25Z" fill="#888B8D"/>
<path d="M25 4H26C26 3.44772 25.5523 3 25 3V4ZM20.2 4H21.2C21.2 3.44772 20.7523 3 20.2 3V4ZM1 4V3C0.447715 3 0 3.44772 0 4H1ZM23 4V3C22.457 3 22.0132 3.43334 22.0003 3.9762L23 4ZM24 4V18.4H26V4H24ZM24 18.4C24 19.0459 23.8392 19.3466 23.6929 19.4929C23.5466 19.6392 23.2459 19.8 22.6 19.8V21.8C23.5541 21.8 24.4534 21.5608 25.1071 20.9071C25.7608 20.2534 26 19.3541 26 18.4H24ZM22.6 19.8C21.9541 19.8 21.6534 19.6392 21.5071 19.4929C21.3608 19.3466 21.2 19.0459 21.2 18.4H19.2C19.2 19.3541 19.4392 20.2534 20.0929 20.9071C20.7466 21.5608 21.6459 21.8 22.6 21.8V19.8ZM21.2 18.4V4H19.2V18.4H21.2ZM20.2 3H1V5H20.2V3ZM0 4V17.2H2V4H0ZM0 17.2C0 18.5541 0.339213 19.7534 1.19289 20.6071C2.04657 21.4608 3.24586 21.8 4.6 21.8V19.8C3.55414 19.8 2.95343 19.5392 2.60711 19.1929C2.26079 18.8466 2 18.2459 2 17.2H0ZM4.6 21.8C4.60469 21.8 4.60939 21.8 4.6141 21.8C4.61882 21.8 4.62355 21.8 4.62829 21.8C4.63303 21.8 4.63779 21.8 4.64256 21.8C4.64733 21.8 4.65211 21.8 4.65691 21.8C4.66171 21.8 4.66652 21.8 4.67134 21.8C4.67617 21.8 4.68101 21.8 4.68586 21.8C4.69071 21.8 4.69558 21.8 4.70046 21.8C4.70534 21.8 4.71023 21.8 4.71514 21.8C4.72004 21.8 4.72497 21.8 4.7299 21.8C4.73483 21.8 4.73978 21.8 4.74475 21.8C4.74971 21.8 4.75468 21.8 4.75967 21.8C4.76466 21.8 4.76967 21.8 4.77468 21.8C4.7797 21.8 4.78473 21.8 4.78978 21.8C4.79482 21.8 4.79988 21.8 4.80495 21.8C4.81002 21.8 4.81511 21.8 4.82021 21.8C4.82531 21.8 4.83042 21.8 4.83555 21.8C4.84067 21.8 4.84581 21.8 4.85097 21.8C4.85612 21.8 4.86129 21.8 4.86647 21.8C4.87166 21.8 4.87685 21.8 4.88206 21.8C4.88727 21.8 4.89249 21.8 4.89773 21.8C4.90297 21.8 4.90822 21.8 4.91348 21.8C4.91875 21.8 4.92402 21.8 4.92932 21.8C4.93461 21.8 4.93991 21.8 4.94523 21.8C4.95055 21.8 4.95588 21.8 4.96123 21.8C4.96658 21.8 4.97194 21.8 4.97731 21.8C4.98269 21.8 4.98807 21.8 4.99348 21.8C4.99888 21.8 5.00429 21.8 5.00972 21.8C5.01515 21.8 5.02059 21.8 5.02605 21.8C5.03151 21.8 5.03698 21.8 5.04246 21.8C5.04795 21.8 5.05344 21.8 5.05895 21.8C5.06447 21.8 5.06999 21.8 5.07553 21.8C5.08107 21.8 5.08662 21.8 5.09219 21.8C5.09775 21.8 5.10333 21.8 5.10893 21.8C5.11452 21.8 5.12013 21.8 5.12575 21.8C5.13137 21.8 5.13701 21.8 5.14266 21.8C5.1483 21.8 5.15397 21.8 5.15964 21.8C5.16532 21.8 5.17101 21.8 5.17671 21.8C5.18242 21.8 5.18814 21.8 5.19387 21.8C5.1996 21.8 5.20534 21.8 5.2111 21.8C5.21686 21.8 5.22263 21.8 5.22842 21.8C5.2342 21.8 5.24 21.8 5.24582 21.8C5.25163 21.8 5.25746 21.8 5.2633 21.8C5.26914 21.8 5.275 21.8 5.28086 21.8C5.28673 21.8 5.29261 21.8 5.29851 21.8C5.30441 21.8 5.31032 21.8 5.31624 21.8C5.32216 21.8 5.3281 21.8 5.33405 21.8C5.34 21.8 5.34597 21.8 5.35195 21.8C5.35792 21.8 5.36392 21.8 5.36992 21.8C5.37593 21.8 5.38195 21.8 5.38798 21.8C5.39401 21.8 5.40006 21.8 5.40612 21.8C5.41218 21.8 5.41826 21.8 5.42435 21.8C5.43043 21.8 5.43654 21.8 5.44265 21.8C5.44877 21.8 5.4549 21.8 5.46104 21.8C5.46718 21.8 5.47334 21.8 5.47951 21.8C5.48568 21.8 5.49187 21.8 5.49806 21.8C5.50426 21.8 5.51047 21.8 5.5167 21.8C5.52292 21.8 5.52916 21.8 5.53542 21.8C5.54167 21.8 5.54794 21.8 5.55422 21.8C5.5605 21.8 5.56679 21.8 5.5731 21.8C5.57941 21.8 5.58573 21.8 5.59207 21.8C5.5984 21.8 5.60475 21.8 5.61111 21.8C5.61748 21.8 5.62385 21.8 5.63024 21.8C5.63663 21.8 5.64304 21.8 5.64946 21.8C5.65587 21.8 5.6623 21.8 5.66875 21.8C5.6752 21.8 5.68165 21.8 5.68813 21.8C5.6946 21.8 5.70109 21.8 5.70759 21.8C5.71409 21.8 5.7206 21.8 5.72713 21.8C5.73366 21.8 5.7402 21.8 5.74675 21.8C5.75331 21.8 5.75988 21.8 5.76646 21.8C5.77304 21.8 5.77964 21.8 5.78625 21.8C5.79286 21.8 5.79948 21.8 5.80612 21.8C5.81276 21.8 5.81941 21.8 5.82607 21.8C5.83274 21.8 5.83942 21.8 5.84611 21.8C5.8528 21.8 5.85951 21.8 5.86623 21.8C5.87295 21.8 5.87968 21.8 5.88643 21.8C5.89318 21.8 5.89994 21.8 5.90671 21.8C5.91349 21.8 5.92028 21.8 5.92708 21.8C5.93388 21.8 5.9407 21.8 5.94753 21.8C5.95436 21.8 5.9612 21.8 5.96806 21.8C5.97492 21.8 5.98179 21.8 5.98867 21.8C5.99556 21.8 6.00246 21.8 6.00937 21.8C6.01628 21.8 6.02321 21.8 6.03015 21.8C6.03709 21.8 6.04404 21.8 6.05101 21.8C6.05797 21.8 6.06495 21.8 6.07195 21.8C6.07894 21.8 6.08595 21.8 6.09297 21.8C6.1 21.8 6.10703 21.8 6.11408 21.8C6.12113 21.8 6.12819 21.8 6.13527 21.8C6.14235 21.8 6.14944 21.8 6.15654 21.8C6.16365 21.8 6.17077 21.8 6.1779 21.8C6.18503 21.8 6.19218 21.8 6.19934 21.8C6.20649 21.8 6.21367 21.8 6.22085 21.8C6.22804 21.8 6.23524 21.8 6.24246 21.8C6.24967 21.8 6.2569 21.8 6.26414 21.8C6.27138 21.8 6.27864 21.8 6.28591 21.8C6.29318 21.8 6.30046 21.8 6.30776 21.8C6.31505 21.8 6.32236 21.8 6.32969 21.8C6.33701 21.8 6.34435 21.8 6.3517 21.8C6.35905 21.8 6.36642 21.8 6.3738 21.8C6.38118 21.8 6.38857 21.8 6.39598 21.8C6.40338 21.8 6.4108 21.8 6.41824 21.8C6.42567 21.8 6.43312 21.8 6.44058 21.8C6.44804 21.8 6.45552 21.8 6.46301 21.8C6.4705 21.8 6.478 21.8 6.48552 21.8C6.49303 21.8 6.50056 21.8 6.50811 21.8C6.51565 21.8 6.52321 21.8 6.53078 21.8C6.53835 21.8 6.54594 21.8 6.55353 21.8C6.56113 21.8 6.56875 21.8 6.57637 21.8C6.584 21.8 6.59164 21.8 6.59929 21.8C6.60695 21.8 6.61461 21.8 6.62229 21.8C6.62998 21.8 6.63767 21.8 6.64538 21.8C6.65309 21.8 6.66081 21.8 6.66855 21.8C6.67628 21.8 6.68403 21.8 6.6918 21.8C6.69956 21.8 6.70734 21.8 6.71513 21.8C6.72292 21.8 6.73073 21.8 6.73854 21.8C6.74636 21.8 6.75419 21.8 6.76204 21.8C6.76989 21.8 6.77775 21.8 6.78562 21.8C6.79349 21.8 6.80138 21.8 6.80928 21.8C6.81718 21.8 6.8251 21.8 6.83303 21.8C6.84095 21.8 6.8489 21.8 6.85685 21.8C6.86481 21.8 6.87278 21.8 6.88076 21.8C6.88875 21.8 6.89674 21.8 6.90475 21.8C6.91276 21.8 6.92079 21.8 6.92883 21.8C6.93687 21.8 6.94492 21.8 6.95298 21.8C6.96105 21.8 6.96913 21.8 6.97722 21.8C6.98532 21.8 6.99342 21.8 7.00154 21.8C7.00966 21.8 7.0178 21.8 7.02595 21.8C7.03409 21.8 7.04226 21.8 7.05043 21.8C7.05861 21.8 7.0668 21.8 7.075 21.8C7.0832 21.8 7.09142 21.8 7.09965 21.8C7.10788 21.8 7.11613 21.8 7.12438 21.8C7.13264 21.8 7.14091 21.8 7.1492 21.8C7.15748 21.8 7.16578 21.8 7.1741 21.8C7.18241 21.8 7.19074 21.8 7.19908 21.8C7.20742 21.8 7.21577 21.8 7.22414 21.8C7.23251 21.8 7.24089 21.8 7.24928 21.8C7.25768 21.8 7.26609 21.8 7.27451 21.8C7.28293 21.8 7.29137 21.8 7.29982 21.8C7.30827 21.8 7.31674 21.8 7.32521 21.8C7.33369 21.8 7.34218 21.8 7.35069 21.8C7.35919 21.8 7.36771 21.8 7.37625 21.8C7.38478 21.8 7.39332 21.8 7.40188 21.8C7.41044 21.8 7.41902 21.8 7.42761 21.8C7.43619 21.8 7.4448 21.8 7.45341 21.8C7.46203 21.8 7.47065 21.8 7.4793 21.8C7.48794 21.8 7.4966 21.8 7.50527 21.8C7.51394 21.8 7.52262 21.8 7.53132 21.8C7.54001 21.8 7.54873 21.8 7.55745 21.8C7.56618 21.8 7.57491 21.8 7.58367 21.8C7.59242 21.8 7.60119 21.8 7.60997 21.8C7.61875 21.8 7.62754 21.8 7.63635 21.8C7.64515 21.8 7.65398 21.8 7.66281 21.8C7.67164 21.8 7.68049 21.8 7.68936 21.8C7.69822 21.8 7.70709 21.8 7.71598 21.8C7.72487 21.8 7.73378 21.8 7.74269 21.8C7.75161 21.8 7.76054 21.8 7.76949 21.8C7.77843 21.8 7.78739 21.8 7.79636 21.8C7.80533 21.8 7.81432 21.8 7.82332 21.8C7.83232 21.8 7.84133 21.8 7.85036 21.8C7.85939 21.8 7.86843 21.8 7.87748 21.8C7.88654 21.8 7.89561 21.8 7.90469 21.8C7.91377 21.8 7.92287 21.8 7.93197 21.8C7.94108 21.8 7.95021 21.8 7.95934 21.8C7.96848 21.8 7.97763 21.8 7.9868 21.8C7.99596 21.8 8.00514 21.8 8.01433 21.8C8.02352 21.8 8.03273 21.8 8.04195 21.8C8.05117 21.8 8.0604 21.8 8.06965 21.8C8.07889 21.8 8.08815 21.8 8.09743 21.8C8.1067 21.8 8.11599 21.8 8.12529 21.8C8.13459 21.8 8.14391 21.8 8.15324 21.8C8.16257 21.8 8.17191 21.8 8.18127 21.8C8.19063 21.8 8.2 21.8 8.20938 21.8C8.21876 21.8 8.22816 21.8 8.23757 21.8C8.24698 21.8 8.25641 21.8 8.26585 21.8C8.27529 21.8 8.28474 21.8 8.29421 21.8C8.30367 21.8 8.31315 21.8 8.32265 21.8C8.33214 21.8 8.34165 21.8 8.35117 21.8C8.36069 21.8 8.37023 21.8 8.37978 21.8C8.38933 21.8 8.39889 21.8 8.40847 21.8C8.41804 21.8 8.42763 21.8 8.43724 21.8C8.44684 21.8 8.45646 21.8 8.46609 21.8C8.47572 21.8 8.48537 21.8 8.49502 21.8C8.50468 21.8 8.51436 21.8 8.52404 21.8C8.53373 21.8 8.54343 21.8 8.55314 21.8C8.56286 21.8 8.57258 21.8 8.58232 21.8C8.59207 21.8 8.60182 21.8 8.61159 21.8C8.62136 21.8 8.63114 21.8 8.64094 21.8C8.65073 21.8 8.66054 21.8 8.67037 21.8C8.68019 21.8 8.69003 21.8 8.69988 21.8C8.70973 21.8 8.71959 21.8 8.72947 21.8C8.73935 21.8 8.74924 21.8 8.75915 21.8C8.76906 21.8 8.77898 21.8 8.78891 21.8C8.79884 21.8 8.80879 21.8 8.81875 21.8C8.82871 21.8 8.83869 21.8 8.84867 21.8C8.85866 21.8 8.86866 21.8 8.87868 21.8C8.8887 21.8 8.89873 21.8 8.90877 21.8C8.91881 21.8 8.92887 21.8 8.93894 21.8C8.94901 21.8 8.9591 21.8 8.96919 21.8C8.97929 21.8 8.9894 21.8 8.99953 21.8C9.00966 21.8 9.0198 21.8 9.02995 21.8C9.0401 21.8 9.05027 21.8 9.06045 21.8C9.07063 21.8 9.08082 21.8 9.09103 21.8C9.10124 21.8 9.11146 21.8 9.1217 21.8C9.13193 21.8 9.14218 21.8 9.15245 21.8C9.16271 21.8 9.17299 21.8 9.18328 21.8C9.19357 21.8 9.20387 21.8 9.21419 21.8C9.22451 21.8 9.23484 21.8 9.24518 21.8C9.25553 21.8 9.26589 21.8 9.27626 21.8C9.28664 21.8 9.29702 21.8 9.30742 21.8C9.31782 21.8 9.32824 21.8 9.33866 21.8C9.34909 21.8 9.35953 21.8 9.36999 21.8C9.38044 21.8 9.39091 21.8 9.4014 21.8C9.41188 21.8 9.42238 21.8 9.43289 21.8C9.4434 21.8 9.45392 21.8 9.46446 21.8C9.475 21.8 9.48555 21.8 9.49611 21.8C9.50668 21.8 9.51726 21.8 9.52785 21.8C9.53844 21.8 9.54905 21.8 9.55967 21.8C9.57029 21.8 9.58092 21.8 9.59157 21.8C9.60222 21.8 9.61288 21.8 9.62355 21.8C9.63423 21.8 9.64492 21.8 9.65562 21.8C9.66632 21.8 9.67704 21.8 9.68777 21.8C9.6985 21.8 9.70924 21.8 9.72 21.8C9.73076 21.8 9.74153 21.8 9.75231 21.8C9.7631 21.8 9.7739 21.8 9.78471 21.8C9.79552 21.8 9.80635 21.8 9.81719 21.8C9.82803 21.8 9.83888 21.8 9.84975 21.8C9.86062 21.8 9.8715 21.8 9.88239 21.8C9.89329 21.8 9.90419 21.8 9.91512 21.8C9.92604 21.8 9.93698 21.8 9.94792 21.8C9.95887 21.8 9.96984 21.8 9.98081 21.8C9.99179 21.8 10.0028 21.8 10.0138 21.8C10.0248 21.8 10.0358 21.8 10.0468 21.8C10.0579 21.8 10.0689 21.8 10.08 21.8C10.091 21.8 10.1021 21.8 10.1132 21.8C10.1243 21.8 10.1354 21.8 10.1465 21.8C10.1576 21.8 10.1687 21.8 10.1799 21.8C10.191 21.8 10.2022 21.8 10.2134 21.8C10.2245 21.8 10.2357 21.8 10.2469 21.8C10.2581 21.8 10.2693 21.8 10.2805 21.8C10.2918 21.8 10.303 21.8 10.3142 21.8C10.3255 21.8 10.3368 21.8 10.348 21.8C10.3593 21.8 10.3706 21.8 10.3819 21.8C10.3932 21.8 10.4046 21.8 10.4159 21.8C10.4272 21.8 10.4386 21.8 10.4499 21.8C10.4613 21.8 10.4727 21.8 10.4841 21.8C10.4954 21.8 10.5069 21.8 10.5183 21.8C10.5297 21.8 10.5411 21.8 10.5526 21.8C10.564 21.8 10.5755 21.8 10.5869 21.8C10.5984 21.8 10.6099 21.8 10.6214 21.8C10.6329 21.8 10.6444 21.8 10.6559 21.8C10.6675 21.8 10.679 21.8 10.6905 21.8C10.7021 21.8 10.7137 21.8 10.7252 21.8C10.7368 21.8 10.7484 21.8 10.76 21.8C10.7716 21.8 10.7833 21.8 10.7949 21.8C10.8065 21.8 10.8182 21.8 10.8299 21.8C10.8415 21.8 10.8532 21.8 10.8649 21.8C10.8766 21.8 10.8883 21.8 10.9 21.8C10.9117 21.8 10.9235 21.8 10.9352 21.8C10.9469 21.8 10.9587 21.8 10.9705 21.8C10.9823 21.8 10.994 21.8 11.0058 21.8C11.0176 21.8 11.0295 21.8 11.0413 21.8C11.0531 21.8 11.065 21.8 11.0768 21.8C11.0887 21.8 11.1005 21.8 11.1124 21.8C11.1243 21.8 11.1362 21.8 11.1481 21.8C11.16 21.8 11.1719 21.8 11.1839 21.8C11.1958 21.8 11.2078 21.8 11.2197 21.8C11.2317 21.8 11.2437 21.8 11.2557 21.8C11.2677 21.8 11.2797 21.8 11.2917 21.8C11.3037 21.8 11.3158 21.8 11.3278 21.8C11.3399 21.8 11.3519 21.8 11.364 21.8C11.3761 21.8 11.3882 21.8 11.4003 21.8C11.4124 21.8 11.4245 21.8 11.4366 21.8C11.4487 21.8 11.4609 21.8 11.473 21.8C11.4852 21.8 11.4974 21.8 11.5096 21.8C11.5217 21.8 11.5339 21.8 11.5462 21.8C11.5584 21.8 11.5706 21.8 11.5828 21.8C11.5951 21.8 11.6073 21.8 11.6196 21.8C11.6319 21.8 11.6442 21.8 11.6565 21.8C11.6687 21.8 11.6811 21.8 11.6934 21.8C11.7057 21.8 11.718 21.8 11.7304 21.8C11.7427 21.8 11.7551 21.8 11.7675 21.8C11.7799 21.8 11.7923 21.8 11.8047 21.8C11.8171 21.8 11.8295 21.8 11.8419 21.8C11.8543 21.8 11.8668 21.8 11.8793 21.8C11.8917 21.8 11.9042 21.8 11.9167 21.8C11.9292 21.8 11.9417 21.8 11.9542 21.8C11.9667 21.8 11.9792 21.8 11.9918 21.8C12.0043 21.8 12.0169 21.8 12.0294 21.8C12.042 21.8 12.0546 21.8 12.0672 21.8C12.0798 21.8 12.0924 21.8 12.105 21.8C12.1176 21.8 12.1303 21.8 12.1429 21.8C12.1556 21.8 12.1683 21.8 12.1809 21.8C12.1936 21.8 12.2063 21.8 12.219 21.8C12.2317 21.8 12.2444 21.8 12.2572 21.8C12.2699 21.8 12.2827 21.8 12.2954 21.8C12.3082 21.8 12.321 21.8 12.3338 21.8C12.3465 21.8 12.3594 21.8 12.3722 21.8C12.385 21.8 12.3978 21.8 12.4107 21.8C12.4235 21.8 12.4364 21.8 12.4492 21.8C12.4621 21.8 12.475 21.8 12.4879 21.8C12.5008 21.8 12.5137 21.8 12.5266 21.8C12.5396 21.8 12.5525 21.8 12.5655 21.8C12.5784 21.8 12.5914 21.8 12.6044 21.8C12.6173 21.8 12.6303 21.8 12.6434 21.8C12.6564 21.8 12.6694 21.8 12.6824 21.8C12.6955 21.8 12.7085 21.8 12.7216 21.8C12.7346 21.8 12.7477 21.8 12.7608 21.8C12.7739 21.8 12.787 21.8 12.8001 21.8C12.8132 21.8 12.8264 21.8 12.8395 21.8C12.8527 21.8 12.8658 21.8 12.879 21.8C12.8922 21.8 12.9054 21.8 12.9186 21.8C12.9318 21.8 12.945 21.8 12.9582 21.8C12.9714 21.8 12.9847 21.8 12.9979 21.8C13.0112 21.8 13.0245 21.8 13.0378 21.8C13.051 21.8 13.0643 21.8 13.0777 21.8C13.091 21.8 13.1043 21.8 13.1176 21.8C13.131 21.8 13.1443 21.8 13.1577 21.8C13.1711 21.8 13.1844 21.8 13.1978 21.8C13.2112 21.8 13.2246 21.8 13.2381 21.8C13.2515 21.8 13.2649 21.8 13.2784 21.8C13.2918 21.8 13.3053 21.8 13.3188 21.8C13.3322 21.8 13.3457 21.8 13.3592 21.8C13.3727 21.8 13.3862 21.8 13.3998 21.8C13.4133 21.8 13.4269 21.8 13.4404 21.8C13.454 21.8 13.4675 21.8 13.4811 21.8C13.4947 21.8 13.5083 21.8 13.5219 21.8C13.5355 21.8 13.5492 21.8 13.5628 21.8C13.5765 21.8 13.5901 21.8 13.6038 21.8C13.6174 21.8 13.6311 21.8 13.6448 21.8C13.6585 21.8 13.6722 21.8 13.686 21.8C13.6997 21.8 13.7134 21.8 13.7272 21.8C13.7409 21.8 13.7547 21.8 13.7685 21.8C13.7822 21.8 13.796 21.8 13.8098 21.8C13.8236 21.8 13.8375 21.8 13.8513 21.8C13.8651 21.8 13.879 21.8 13.8928 21.8C13.9067 21.8 13.9206 21.8 13.9345 21.8C13.9484 21.8 13.9623 21.8 13.9762 21.8C13.9901 21.8 14.004 21.8 14.018 21.8C14.0319 21.8 14.0459 21.8 14.0598 21.8C14.0738 21.8 14.0878 21.8 14.1018 21.8C14.1158 21.8 14.1298 21.8 14.1438 21.8C14.1578 21.8 14.1719 21.8 14.1859 21.8C14.2 21.8 14.2141 21.8 14.2281 21.8C14.2422 21.8 14.2563 21.8 14.2704 21.8C14.2845 21.8 14.2987 21.8 14.3128 21.8C14.3269 21.8 14.3411 21.8 14.3552 21.8C14.3694 21.8 14.3836 21.8 14.3978 21.8C14.412 21.8 14.4262 21.8 14.4404 21.8C14.4546 21.8 14.4688 21.8 14.4831 21.8C14.4973 21.8 14.5116 21.8 14.5259 21.8C14.5401 21.8 14.5544 21.8 14.5687 21.8C14.583 21.8 14.5973 21.8 14.6117 21.8C14.626 21.8 14.6403 21.8 14.6547 21.8C14.669 21.8 14.6834 21.8 14.6978 21.8C14.7122 21.8 14.7266 21.8 14.741 21.8C14.7554 21.8 14.7698 21.8 14.7843 21.8C14.7987 21.8 14.8131 21.8 14.8276 21.8C14.8421 21.8 14.8566 21.8 14.871 21.8C14.8855 21.8 14.9 21.8 14.9146 21.8C14.9291 21.8 14.9436 21.8 14.9582 21.8C14.9727 21.8 14.9873 21.8 15.0019 21.8C15.0164 21.8 15.031 21.8 15.0456 21.8C15.0602 21.8 15.0748 21.8 15.0895 21.8C15.1041 21.8 15.1187 21.8 15.1334 21.8C15.1481 21.8 15.1627 21.8 15.1774 21.8C15.1921 21.8 15.2068 21.8 15.2215 21.8C15.2362 21.8 15.251 21.8 15.2657 21.8C15.2804 21.8 15.2952 21.8 15.31 21.8C15.3247 21.8 15.3395 21.8 15.3543 21.8C15.3691 21.8 15.3839 21.8 15.3987 21.8C15.4135 21.8 15.4284 21.8 15.4432 21.8C15.4581 21.8 15.4729 21.8 15.4878 21.8C15.5027 21.8 15.5176 21.8 15.5325 21.8C15.5474 21.8 15.5623 21.8 15.5773 21.8C15.5922 21.8 15.6071 21.8 15.6221 21.8C15.637 21.8 15.652 21.8 15.667 21.8C15.682 21.8 15.697 21.8 15.712 21.8C15.727 21.8 15.7421 21.8 15.7571 21.8C15.7721 21.8 15.7872 21.8 15.8023 21.8C15.8173 21.8 15.8324 21.8 15.8475 21.8C15.8626 21.8 15.8777 21.8 15.8928 21.8C15.908 21.8 15.9231 21.8 15.9383 21.8C15.9534 21.8 15.9686 21.8 15.9838 21.8C15.9989 21.8 16.0141 21.8 16.0293 21.8C16.0445 21.8 16.0598 21.8 16.075 21.8C16.0902 21.8 16.1055 21.8 16.1207 21.8C16.136 21.8 16.1513 21.8 16.1666 21.8C16.1819 21.8 16.1972 21.8 16.2125 21.8C16.2278 21.8 16.2431 21.8 16.2585 21.8C16.2738 21.8 16.2892 21.8 16.3045 21.8C16.3199 21.8 16.3353 21.8 16.3507 21.8C16.3661 21.8 16.3815 21.8 16.3969 21.8C16.4124 21.8 16.4278 21.8 16.4433 21.8C16.4587 21.8 16.4742 21.8 16.4897 21.8C16.5051 21.8 16.5206 21.8 16.5362 21.8C16.5517 21.8 16.5672 21.8 16.5827 21.8C16.5983 21.8 16.6138 21.8 16.6294 21.8C16.6449 21.8 16.6605 21.8 16.6761 21.8C16.6917 21.8 16.7073 21.8 16.7229 21.8C16.7385 21.8 16.7542 21.8 16.7698 21.8C16.7855 21.8 16.8011 21.8 16.8168 21.8C16.8325 21.8 16.8482 21.8 16.8639 21.8C16.8796 21.8 16.8953 21.8 16.911 21.8C16.9267 21.8 16.9425 21.8 16.9582 21.8C16.974 21.8 16.9898 21.8 17.0055 21.8C17.0213 21.8 17.0371 21.8 17.0529 21.8C17.0687 21.8 17.0846 21.8 17.1004 21.8C17.1162 21.8 17.1321 21.8 17.148 21.8C17.1638 21.8 17.1797 21.8 17.1956 21.8C17.2115 21.8 17.2274 21.8 17.2433 21.8C17.2592 21.8 17.2752 21.8 17.2911 21.8C17.3071 21.8 17.323 21.8 17.339 21.8C17.355 21.8 17.371 21.8 17.387 21.8C17.403 21.8 17.419 21.8 17.435 21.8C17.4511 21.8 17.4671 21.8 17.4832 21.8C17.4992 21.8 17.5153 21.8 17.5314 21.8C17.5475 21.8 17.5636 21.8 17.5797 21.8C17.5958 21.8 17.6119 21.8 17.6281 21.8C17.6442 21.8 17.6604 21.8 17.6765 21.8C17.6927 21.8 17.7089 21.8 17.7251 21.8C17.7413 21.8 17.7575 21.8 17.7737 21.8C17.7899 21.8 17.8062 21.8 17.8224 21.8C17.8387 21.8 17.8549 21.8 17.8712 21.8C17.8875 21.8 17.9038 21.8 17.9201 21.8C17.9364 21.8 17.9527 21.8 17.969 21.8C17.9854 21.8 18.0017 21.8 18.0181 21.8C18.0344 21.8 18.0508 21.8 18.0672 21.8C18.0836 21.8 18.1 21.8 18.1164 21.8C18.1328 21.8 18.1493 21.8 18.1657 21.8C18.1821 21.8 18.1986 21.8 18.2151 21.8C18.2315 21.8 18.248 21.8 18.2645 21.8C18.281 21.8 18.2975 21.8 18.3141 21.8C18.3306 21.8 18.3471 21.8 18.3637 21.8C18.3802 21.8 18.3968 21.8 18.4134 21.8C18.43 21.8 18.4465 21.8 18.4632 21.8C18.4798 21.8 18.4964 21.8 18.513 21.8C18.5297 21.8 18.5463 21.8 18.563 21.8C18.5796 21.8 18.5963 21.8 18.613 21.8C18.6297 21.8 18.6464 21.8 18.6631 21.8C18.6798 21.8 18.6966 21.8 18.7133 21.8C18.73 21.8 18.7468 21.8 18.7636 21.8C18.7803 21.8 18.7971 21.8 18.8139 21.8C18.8307 21.8 18.8475 21.8 18.8644 21.8C18.8812 21.8 18.898 21.8 18.9149 21.8C18.9318 21.8 18.9486 21.8 18.9655 21.8C18.9824 21.8 18.9993 21.8 19.0162 21.8C19.0331 21.8 19.05 21.8 19.067 21.8C19.0839 21.8 19.1009 21.8 19.1178 21.8C19.1348 21.8 19.1518 21.8 19.1688 21.8C19.1857 21.8 19.2027 21.8 19.2198 21.8C19.2368 21.8 19.2538 21.8 19.2709 21.8C19.2879 21.8 19.305 21.8 19.3221 21.8C19.3391 21.8 19.3562 21.8 19.3733 21.8C19.3904 21.8 19.4075 21.8 19.4247 21.8C19.4418 21.8 19.4589 21.8 19.4761 21.8C19.4932 21.8 19.5104 21.8 19.5276 21.8C19.5448 21.8 19.562 21.8 19.5792 21.8C19.5964 21.8 19.6136 21.8 19.6309 21.8C19.6481 21.8 19.6654 21.8 19.6826 21.8C19.6999 21.8 19.7172 21.8 19.7345 21.8C19.7518 21.8 19.7691 21.8 19.7864 21.8C19.8037 21.8 19.8211 21.8 19.8384 21.8C19.8558 21.8 19.8731 21.8 19.8905 21.8C19.9079 21.8 19.9253 21.8 19.9427 21.8C19.9601 21.8 19.9775 21.8 19.9949 21.8C20.0124 21.8 20.0298 21.8 20.0473 21.8C20.0647 21.8 20.0822 21.8 20.0997 21.8C20.1172 21.8 20.1347 21.8 20.1522 21.8C20.1697 21.8 20.1872 21.8 20.2048 21.8C20.2223 21.8 20.2399 21.8 20.2574 21.8C20.275 21.8 20.2926 21.8 20.3102 21.8C20.3278 21.8 20.3454 21.8 20.363 21.8C20.3806 21.8 20.3983 21.8 20.4159 21.8C20.4336 21.8 20.4512 21.8 20.4689 21.8C20.4866 21.8 20.5043 21.8 20.522 21.8C20.5397 21.8 20.5574 21.8 20.5752 21.8C20.5929 21.8 20.6106 21.8 20.6284 21.8C20.6462 21.8 20.6639 21.8 20.6817 21.8C20.6995 21.8 20.7173 21.8 20.7351 21.8C20.7529 21.8 20.7708 21.8 20.7886 21.8C20.8065 21.8 20.8243 21.8 20.8422 21.8C20.8601 21.8 20.8779 21.8 20.8958 21.8C20.9137 21.8 20.9317 21.8 20.9496 21.8C20.9675 21.8 20.9854 21.8 21.0034 21.8C21.0214 21.8 21.0393 21.8 21.0573 21.8C21.0753 21.8 21.0933 21.8 21.1113 21.8C21.1293 21.8 21.1473 21.8 21.1653 21.8C21.1834 21.8 21.2014 21.8 21.2195 21.8C21.2376 21.8 21.2556 21.8 21.2737 21.8C21.2918 21.8 21.3099 21.8 21.328 21.8C21.3462 21.8 21.3643 21.8 21.3824 21.8C21.4006 21.8 21.4187 21.8 21.4369 21.8C21.4551 21.8 21.4733 21.8 21.4915 21.8C21.5097 21.8 21.5279 21.8 21.5461 21.8C21.5644 21.8 21.5826 21.8 21.6008 21.8C21.6191 21.8 21.6374 21.8 21.6557 21.8C21.6739 21.8 21.6922 21.8 21.7105 21.8C21.7289 21.8 21.7472 21.8 21.7655 21.8C21.7839 21.8 21.8022 21.8 21.8206 21.8C21.8389 21.8 21.8573 21.8 21.8757 21.8C21.8941 21.8 21.9125 21.8 21.9309 21.8C21.9494 21.8 21.9678 21.8 21.9862 21.8C22.0047 21.8 22.0231 21.8 22.0416 21.8C22.0601 21.8 22.0786 21.8 22.0971 21.8C22.1156 21.8 22.1341 21.8 22.1526 21.8C22.1712 21.8 22.1897 21.8 22.2083 21.8C22.2268 21.8 22.2454 21.8 22.264 21.8C22.2826 21.8 22.3012 21.8 22.3198 21.8C22.3384 21.8 22.357 21.8 22.3757 21.8C22.3943 21.8 22.413 21.8 22.4316 21.8C22.4503 21.8 22.469 21.8 22.4877 21.8C22.5064 21.8 22.5251 21.8 22.5438 21.8C22.5625 21.8 22.5813 21.8 22.6 21.8V19.8C22.5813 19.8 22.5625 19.8 22.5438 19.8C22.5251 19.8 22.5064 19.8 22.4877 19.8C22.469 19.8 22.4503 19.8 22.4316 19.8C22.413 19.8 22.3943 19.8 22.3757 19.8C22.357 19.8 22.3384 19.8 22.3198 19.8C22.3012 19.8 22.2826 19.8 22.264 19.8C22.2454 19.8 22.2268 19.8 22.2083 19.8C22.1897 19.8 22.1712 19.8 22.1526 19.8C22.1341 19.8 22.1156 19.8 22.0971 19.8C22.0786 19.8 22.0601 19.8 22.0416 19.8C22.0231 19.8 22.0047 19.8 21.9862 19.8C21.9678 19.8 21.9494 19.8 21.9309 19.8C21.9125 19.8 21.8941 19.8 21.8757 19.8C21.8573 19.8 21.8389 19.8 21.8206 19.8C21.8022 19.8 21.7839 19.8 21.7655 19.8C21.7472 19.8 21.7289 19.8 21.7105 19.8C21.6922 19.8 21.6739 19.8 21.6557 19.8C21.6374 19.8 21.6191 19.8 21.6008 19.8C21.5826 19.8 21.5644 19.8 21.5461 19.8C21.5279 19.8 21.5097 19.8 21.4915 19.8C21.4733 19.8 21.4551 19.8 21.4369 19.8C21.4187 19.8 21.4006 19.8 21.3824 19.8C21.3643 19.8 21.3462 19.8 21.328 19.8C21.3099 19.8 21.2918 19.8 21.2737 19.8C21.2556 19.8 21.2376 19.8 21.2195 19.8C21.2014 19.8 21.1834 19.8 21.1653 19.8C21.1473 19.8 21.1293 19.8 21.1113 19.8C21.0933 19.8 21.0753 19.8 21.0573 19.8C21.0393 19.8 21.0214 19.8 21.0034 19.8C20.9854 19.8 20.9675 19.8 20.9496 19.8C20.9317 19.8 20.9137 19.8 20.8958 19.8C20.8779 19.8 20.8601 19.8 20.8422 19.8C20.8243 19.8 20.8065 19.8 20.7886 19.8C20.7708 19.8 20.7529 19.8 20.7351 19.8C20.7173 19.8 20.6995 19.8 20.6817 19.8C20.6639 19.8 20.6462 19.8 20.6284 19.8C20.6106 19.8 20.5929 19.8 20.5752 19.8C20.5574 19.8 20.5397 19.8 20.522 19.8C20.5043 19.8 20.4866 19.8 20.4689 19.8C20.4512 19.8 20.4336 19.8 20.4159 19.8C20.3983 19.8 20.3806 19.8 20.363 19.8C20.3454 19.8 20.3278 19.8 20.3102 19.8C20.2926 19.8 20.275 19.8 20.2574 19.8C20.2399 19.8 20.2223 19.8 20.2048 19.8C20.1872 19.8 20.1697 19.8 20.1522 19.8C20.1347 19.8 20.1172 19.8 20.0997 19.8C20.0822 19.8 20.0647 19.8 20.0473 19.8C20.0298 19.8 20.0124 19.8 19.9949 19.8C19.9775 19.8 19.9601 19.8 19.9427 19.8C19.9253 19.8 19.9079 19.8 19.8905 19.8C19.8731 19.8 19.8558 19.8 19.8384 19.8C19.8211 19.8 19.8037 19.8 19.7864 19.8C19.7691 19.8 19.7518 19.8 19.7345 19.8C19.7172 19.8 19.6999 19.8 19.6826 19.8C19.6654 19.8 19.6481 19.8 19.6309 19.8C19.6136 19.8 19.5964 19.8 19.5792 19.8C19.562 19.8 19.5448 19.8 19.5276 19.8C19.5104 19.8 19.4932 19.8 19.4761 19.8C19.4589 19.8 19.4418 19.8 19.4247 19.8C19.4075 19.8 19.3904 19.8 19.3733 19.8C19.3562 19.8 19.3391 19.8 19.3221 19.8C19.305 19.8 19.2879 19.8 19.2709 19.8C19.2538 19.8 19.2368 19.8 19.2198 19.8C19.2027 19.8 19.1857 19.8 19.1688 19.8C19.1518 19.8 19.1348 19.8 19.1178 19.8C19.1009 19.8 19.0839 19.8 19.067 19.8C19.05 19.8 19.0331 19.8 19.0162 19.8C18.9993 19.8 18.9824 19.8 18.9655 19.8C18.9486 19.8 18.9318 19.8 18.9149 19.8C18.898 19.8 18.8812 19.8 18.8644 19.8C18.8475 19.8 18.8307 19.8 18.8139 19.8C18.7971 19.8 18.7803 19.8 18.7636 19.8C18.7468 19.8 18.73 19.8 18.7133 19.8C18.6966 19.8 18.6798 19.8 18.6631 19.8C18.6464 19.8 18.6297 19.8 18.613 19.8C18.5963 19.8 18.5796 19.8 18.563 19.8C18.5463 19.8 18.5297 19.8 18.513 19.8C18.4964 19.8 18.4798 19.8 18.4632 19.8C18.4465 19.8 18.43 19.8 18.4134 19.8C18.3968 19.8 18.3802 19.8 18.3637 19.8C18.3471 19.8 18.3306 19.8 18.3141 19.8C18.2975 19.8 18.281 19.8 18.2645 19.8C18.248 19.8 18.2315 19.8 18.2151 19.8C18.1986 19.8 18.1821 19.8 18.1657 19.8C18.1493 19.8 18.1328 19.8 18.1164 19.8C18.1 19.8 18.0836 19.8 18.0672 19.8C18.0508 19.8 18.0344 19.8 18.0181 19.8C18.0017 19.8 17.9854 19.8 17.969 19.8C17.9527 19.8 17.9364 19.8 17.9201 19.8C17.9038 19.8 17.8875 19.8 17.8712 19.8C17.8549 19.8 17.8387 19.8 17.8224 19.8C17.8062 19.8 17.7899 19.8 17.7737 19.8C17.7575 19.8 17.7413 19.8 17.7251 19.8C17.7089 19.8 17.6927 19.8 17.6765 19.8C17.6604 19.8 17.6442 19.8 17.6281 19.8C17.6119 19.8 17.5958 19.8 17.5797 19.8C17.5636 19.8 17.5475 19.8 17.5314 19.8C17.5153 19.8 17.4992 19.8 17.4832 19.8C17.4671 19.8 17.4511 19.8 17.435 19.8C17.419 19.8 17.403 19.8 17.387 19.8C17.371 19.8 17.355 19.8 17.339 19.8C17.323 19.8 17.3071 19.8 17.2911 19.8C17.2752 19.8 17.2592 19.8 17.2433 19.8C17.2274 19.8 17.2115 19.8 17.1956 19.8C17.1797 19.8 17.1638 19.8 17.148 19.8C17.1321 19.8 17.1162 19.8 17.1004 19.8C17.0846 19.8 17.0687 19.8 17.0529 19.8C17.0371 19.8 17.0213 19.8 17.0055 19.8C16.9898 19.8 16.974 19.8 16.9582 19.8C16.9425 19.8 16.9267 19.8 16.911 19.8C16.8953 19.8 16.8796 19.8 16.8639 19.8C16.8482 19.8 16.8325 19.8 16.8168 19.8C16.8011 19.8 16.7855 19.8 16.7698 19.8C16.7542 19.8 16.7385 19.8 16.7229 19.8C16.7073 19.8 16.6917 19.8 16.6761 19.8C16.6605 19.8 16.6449 19.8 16.6294 19.8C16.6138 19.8 16.5983 19.8 16.5827 19.8C16.5672 19.8 16.5517 19.8 16.5362 19.8C16.5206 19.8 16.5051 19.8 16.4897 19.8C16.4742 19.8 16.4587 19.8 16.4433 19.8C16.4278 19.8 16.4124 19.8 16.3969 19.8C16.3815 19.8 16.3661 19.8 16.3507 19.8C16.3353 19.8 16.3199 19.8 16.3045 19.8C16.2892 19.8 16.2738 19.8 16.2585 19.8C16.2431 19.8 16.2278 19.8 16.2125 19.8C16.1972 19.8 16.1819 19.8 16.1666 19.8C16.1513 19.8 16.136 19.8 16.1207 19.8C16.1055 19.8 16.0902 19.8 16.075 19.8C16.0598 19.8 16.0445 19.8 16.0293 19.8C16.0141 19.8 15.9989 19.8 15.9838 19.8C15.9686 19.8 15.9534 19.8 15.9383 19.8C15.9231 19.8 15.908 19.8 15.8928 19.8C15.8777 19.8 15.8626 19.8 15.8475 19.8C15.8324 19.8 15.8173 19.8 15.8023 19.8C15.7872 19.8 15.7721 19.8 15.7571 19.8C15.7421 19.8 15.727 19.8 15.712 19.8C15.697 19.8 15.682 19.8 15.667 19.8C15.652 19.8 15.637 19.8 15.6221 19.8C15.6071 19.8 15.5922 19.8 15.5773 19.8C15.5623 19.8 15.5474 19.8 15.5325 19.8C15.5176 19.8 15.5027 19.8 15.4878 19.8C15.4729 19.8 15.4581 19.8 15.4432 19.8C15.4284 19.8 15.4135 19.8 15.3987 19.8C15.3839 19.8 15.3691 19.8 15.3543 19.8C15.3395 19.8 15.3247 19.8 15.31 19.8C15.2952 19.8 15.2804 19.8 15.2657 19.8C15.251 19.8 15.2362 19.8 15.2215 19.8C15.2068 19.8 15.1921 19.8 15.1774 19.8C15.1627 19.8 15.1481 19.8 15.1334 19.8C15.1187 19.8 15.1041 19.8 15.0895 19.8C15.0748 19.8 15.0602 19.8 15.0456 19.8C15.031 19.8 15.0164 19.8 15.0019 19.8C14.9873 19.8 14.9727 19.8 14.9582 19.8C14.9436 19.8 14.9291 19.8 14.9146 19.8C14.9 19.8 14.8855 19.8 14.871 19.8C14.8566 19.8 14.8421 19.8 14.8276 19.8C14.8131 19.8 14.7987 19.8 14.7843 19.8C14.7698 19.8 14.7554 19.8 14.741 19.8C14.7266 19.8 14.7122 19.8 14.6978 19.8C14.6834 19.8 14.669 19.8 14.6547 19.8C14.6403 19.8 14.626 19.8 14.6117 19.8C14.5973 19.8 14.583 19.8 14.5687 19.8C14.5544 19.8 14.5401 19.8 14.5259 19.8C14.5116 19.8 14.4973 19.8 14.4831 19.8C14.4688 19.8 14.4546 19.8 14.4404 19.8C14.4262 19.8 14.412 19.8 14.3978 19.8C14.3836 19.8 14.3694 19.8 14.3552 19.8C14.3411 19.8 14.3269 19.8 14.3128 19.8C14.2987 19.8 14.2845 19.8 14.2704 19.8C14.2563 19.8 14.2422 19.8 14.2281 19.8C14.2141 19.8 14.2 19.8 14.1859 19.8C14.1719 19.8 14.1578 19.8 14.1438 19.8C14.1298 19.8 14.1158 19.8 14.1018 19.8C14.0878 19.8 14.0738 19.8 14.0598 19.8C14.0459 19.8 14.0319 19.8 14.018 19.8C14.004 19.8 13.9901 19.8 13.9762 19.8C13.9623 19.8 13.9484 19.8 13.9345 19.8C13.9206 19.8 13.9067 19.8 13.8928 19.8C13.879 19.8 13.8651 19.8 13.8513 19.8C13.8375 19.8 13.8236 19.8 13.8098 19.8C13.796 19.8 13.7822 19.8 13.7685 19.8C13.7547 19.8 13.7409 19.8 13.7272 19.8C13.7134 19.8 13.6997 19.8 13.686 19.8C13.6722 19.8 13.6585 19.8 13.6448 19.8C13.6311 19.8 13.6174 19.8 13.6038 19.8C13.5901 19.8 13.5765 19.8 13.5628 19.8C13.5492 19.8 13.5355 19.8 13.5219 19.8C13.5083 19.8 13.4947 19.8 13.4811 19.8C13.4675 19.8 13.454 19.8 13.4404 19.8C13.4269 19.8 13.4133 19.8 13.3998 19.8C13.3862 19.8 13.3727 19.8 13.3592 19.8C13.3457 19.8 13.3322 19.8 13.3188 19.8C13.3053 19.8 13.2918 19.8 13.2784 19.8C13.2649 19.8 13.2515 19.8 13.2381 19.8C13.2246 19.8 13.2112 19.8 13.1978 19.8C13.1844 19.8 13.1711 19.8 13.1577 19.8C13.1443 19.8 13.131 19.8 13.1176 19.8C13.1043 19.8 13.091 19.8 13.0777 19.8C13.0643 19.8 13.051 19.8 13.0378 19.8C13.0245 19.8 13.0112 19.8 12.9979 19.8C12.9847 19.8 12.9714 19.8 12.9582 19.8C12.945 19.8 12.9318 19.8 12.9186 19.8C12.9054 19.8 12.8922 19.8 12.879 19.8C12.8658 19.8 12.8527 19.8 12.8395 19.8C12.8264 19.8 12.8132 19.8 12.8001 19.8C12.787 19.8 12.7739 19.8 12.7608 19.8C12.7477 19.8 12.7346 19.8 12.7216 19.8C12.7085 19.8 12.6955 19.8 12.6824 19.8C12.6694 19.8 12.6564 19.8 12.6434 19.8C12.6303 19.8 12.6173 19.8 12.6044 19.8C12.5914 19.8 12.5784 19.8 12.5655 19.8C12.5525 19.8 12.5396 19.8 12.5266 19.8C12.5137 19.8 12.5008 19.8 12.4879 19.8C12.475 19.8 12.4621 19.8 12.4492 19.8C12.4364 19.8 12.4235 19.8 12.4107 19.8C12.3978 19.8 12.385 19.8 12.3722 19.8C12.3594 19.8 12.3465 19.8 12.3338 19.8C12.321 19.8 12.3082 19.8 12.2954 19.8C12.2827 19.8 12.2699 19.8 12.2572 19.8C12.2444 19.8 12.2317 19.8 12.219 19.8C12.2063 19.8 12.1936 19.8 12.1809 19.8C12.1683 19.8 12.1556 19.8 12.1429 19.8C12.1303 19.8 12.1176 19.8 12.105 19.8C12.0924 19.8 12.0798 19.8 12.0672 19.8C12.0546 19.8 12.042 19.8 12.0294 19.8C12.0169 19.8 12.0043 19.8 11.9918 19.8C11.9792 19.8 11.9667 19.8 11.9542 19.8C11.9417 19.8 11.9292 19.8 11.9167 19.8C11.9042 19.8 11.8917 19.8 11.8793 19.8C11.8668 19.8 11.8543 19.8 11.8419 19.8C11.8295 19.8 11.8171 19.8 11.8047 19.8C11.7923 19.8 11.7799 19.8 11.7675 19.8C11.7551 19.8 11.7427 19.8 11.7304 19.8C11.718 19.8 11.7057 19.8 11.6934 19.8C11.6811 19.8 11.6687 19.8 11.6565 19.8C11.6442 19.8 11.6319 19.8 11.6196 19.8C11.6073 19.8 11.5951 19.8 11.5828 19.8C11.5706 19.8 11.5584 19.8 11.5462 19.8C11.5339 19.8 11.5217 19.8 11.5096 19.8C11.4974 19.8 11.4852 19.8 11.473 19.8C11.4609 19.8 11.4487 19.8 11.4366 19.8C11.4245 19.8 11.4124 19.8 11.4003 19.8C11.3882 19.8 11.3761 19.8 11.364 19.8C11.3519 19.8 11.3399 19.8 11.3278 19.8C11.3158 19.8 11.3037 19.8 11.2917 19.8C11.2797 19.8 11.2677 19.8 11.2557 19.8C11.2437 19.8 11.2317 19.8 11.2197 19.8C11.2078 19.8 11.1958 19.8 11.1839 19.8C11.1719 19.8 11.16 19.8 11.1481 19.8C11.1362 19.8 11.1243 19.8 11.1124 19.8C11.1005 19.8 11.0887 19.8 11.0768 19.8C11.065 19.8 11.0531 19.8 11.0413 19.8C11.0295 19.8 11.0176 19.8 11.0058 19.8C10.994 19.8 10.9823 19.8 10.9705 19.8C10.9587 19.8 10.9469 19.8 10.9352 19.8C10.9235 19.8 10.9117 19.8 10.9 19.8C10.8883 19.8 10.8766 19.8 10.8649 19.8C10.8532 19.8 10.8415 19.8 10.8299 19.8C10.8182 19.8 10.8065 19.8 10.7949 19.8C10.7833 19.8 10.7716 19.8 10.76 19.8C10.7484 19.8 10.7368 19.8 10.7252 19.8C10.7137 19.8 10.7021 19.8 10.6905 19.8C10.679 19.8 10.6675 19.8 10.6559 19.8C10.6444 19.8 10.6329 19.8 10.6214 19.8C10.6099 19.8 10.5984 19.8 10.5869 19.8C10.5755 19.8 10.564 19.8 10.5526 19.8C10.5411 19.8 10.5297 19.8 10.5183 19.8C10.5069 19.8 10.4954 19.8 10.4841 19.8C10.4727 19.8 10.4613 19.8 10.4499 19.8C10.4386 19.8 10.4272 19.8 10.4159 19.8C10.4046 19.8 10.3932 19.8 10.3819 19.8C10.3706 19.8 10.3593 19.8 10.348 19.8C10.3368 19.8 10.3255 19.8 10.3142 19.8C10.303 19.8 10.2918 19.8 10.2805 19.8C10.2693 19.8 10.2581 19.8 10.2469 19.8C10.2357 19.8 10.2245 19.8 10.2134 19.8C10.2022 19.8 10.191 19.8 10.1799 19.8C10.1687 19.8 10.1576 19.8 10.1465 19.8C10.1354 19.8 10.1243 19.8 10.1132 19.8C10.1021 19.8 10.091 19.8 10.08 19.8C10.0689 19.8 10.0579 19.8 10.0468 19.8C10.0358 19.8 10.0248 19.8 10.0138 19.8C10.0028 19.8 9.99179 19.8 9.98081 19.8C9.96984 19.8 9.95887 19.8 9.94792 19.8C9.93698 19.8 9.92604 19.8 9.91512 19.8C9.90419 19.8 9.89329 19.8 9.88239 19.8C9.8715 19.8 9.86062 19.8 9.84975 19.8C9.83888 19.8 9.82803 19.8 9.81719 19.8C9.80635 19.8 9.79552 19.8 9.78471 19.8C9.7739 19.8 9.7631 19.8 9.75231 19.8C9.74153 19.8 9.73076 19.8 9.72 19.8C9.70924 19.8 9.6985 19.8 9.68777 19.8C9.67704 19.8 9.66632 19.8 9.65562 19.8C9.64492 19.8 9.63423 19.8 9.62355 19.8C9.61288 19.8 9.60222 19.8 9.59157 19.8C9.58092 19.8 9.57029 19.8 9.55967 19.8C9.54905 19.8 9.53844 19.8 9.52785 19.8C9.51726 19.8 9.50668 19.8 9.49611 19.8C9.48555 19.8 9.475 19.8 9.46446 19.8C9.45392 19.8 9.4434 19.8 9.43289 19.8C9.42238 19.8 9.41188 19.8 9.4014 19.8C9.39091 19.8 9.38044 19.8 9.36999 19.8C9.35953 19.8 9.34909 19.8 9.33866 19.8C9.32824 19.8 9.31782 19.8 9.30742 19.8C9.29702 19.8 9.28664 19.8 9.27626 19.8C9.26589 19.8 9.25553 19.8 9.24518 19.8C9.23484 19.8 9.22451 19.8 9.21419 19.8C9.20387 19.8 9.19357 19.8 9.18328 19.8C9.17299 19.8 9.16271 19.8 9.15245 19.8C9.14218 19.8 9.13193 19.8 9.1217 19.8C9.11146 19.8 9.10124 19.8 9.09103 19.8C9.08082 19.8 9.07063 19.8 9.06045 19.8C9.05027 19.8 9.0401 19.8 9.02995 19.8C9.0198 19.8 9.00966 19.8 8.99953 19.8C8.9894 19.8 8.97929 19.8 8.96919 19.8C8.9591 19.8 8.94901 19.8 8.93894 19.8C8.92887 19.8 8.91881 19.8 8.90877 19.8C8.89873 19.8 8.8887 19.8 8.87868 19.8C8.86866 19.8 8.85866 19.8 8.84867 19.8C8.83869 19.8 8.82871 19.8 8.81875 19.8C8.80879 19.8 8.79884 19.8 8.78891 19.8C8.77898 19.8 8.76906 19.8 8.75915 19.8C8.74924 19.8 8.73935 19.8 8.72947 19.8C8.71959 19.8 8.70973 19.8 8.69988 19.8C8.69003 19.8 8.68019 19.8 8.67037 19.8C8.66054 19.8 8.65073 19.8 8.64094 19.8C8.63114 19.8 8.62136 19.8 8.61159 19.8C8.60182 19.8 8.59207 19.8 8.58232 19.8C8.57258 19.8 8.56286 19.8 8.55314 19.8C8.54343 19.8 8.53373 19.8 8.52404 19.8C8.51436 19.8 8.50468 19.8 8.49502 19.8C8.48537 19.8 8.47572 19.8 8.46609 19.8C8.45646 19.8 8.44684 19.8 8.43724 19.8C8.42763 19.8 8.41804 19.8 8.40847 19.8C8.39889 19.8 8.38933 19.8 8.37978 19.8C8.37023 19.8 8.36069 19.8 8.35117 19.8C8.34165 19.8 8.33214 19.8 8.32265 19.8C8.31315 19.8 8.30367 19.8 8.29421 19.8C8.28474 19.8 8.27529 19.8 8.26585 19.8C8.25641 19.8 8.24698 19.8 8.23757 19.8C8.22816 19.8 8.21876 19.8 8.20938 19.8C8.2 19.8 8.19063 19.8 8.18127 19.8C8.17191 19.8 8.16257 19.8 8.15324 19.8C8.14391 19.8 8.13459 19.8 8.12529 19.8C8.11599 19.8 8.1067 19.8 8.09743 19.8C8.08815 19.8 8.07889 19.8 8.06965 19.8C8.0604 19.8 8.05117 19.8 8.04195 19.8C8.03273 19.8 8.02352 19.8 8.01433 19.8C8.00514 19.8 7.99596 19.8 7.9868 19.8C7.97763 19.8 7.96848 19.8 7.95934 19.8C7.95021 19.8 7.94108 19.8 7.93197 19.8C7.92287 19.8 7.91377 19.8 7.90469 19.8C7.89561 19.8 7.88654 19.8 7.87748 19.8C7.86843 19.8 7.85939 19.8 7.85036 19.8C7.84133 19.8 7.83232 19.8 7.82332 19.8C7.81432 19.8 7.80533 19.8 7.79636 19.8C7.78739 19.8 7.77843 19.8 7.76949 19.8C7.76054 19.8 7.75161 19.8 7.74269 19.8C7.73378 19.8 7.72487 19.8 7.71598 19.8C7.70709 19.8 7.69822 19.8 7.68936 19.8C7.68049 19.8 7.67164 19.8 7.66281 19.8C7.65398 19.8 7.64515 19.8 7.63635 19.8C7.62754 19.8 7.61875 19.8 7.60997 19.8C7.60119 19.8 7.59242 19.8 7.58367 19.8C7.57491 19.8 7.56618 19.8 7.55745 19.8C7.54873 19.8 7.54001 19.8 7.53132 19.8C7.52262 19.8 7.51394 19.8 7.50527 19.8C7.4966 19.8 7.48794 19.8 7.4793 19.8C7.47065 19.8 7.46203 19.8 7.45341 19.8C7.4448 19.8 7.43619 19.8 7.42761 19.8C7.41902 19.8 7.41044 19.8 7.40188 19.8C7.39332 19.8 7.38478 19.8 7.37625 19.8C7.36771 19.8 7.35919 19.8 7.35069 19.8C7.34218 19.8 7.33369 19.8 7.32521 19.8C7.31674 19.8 7.30827 19.8 7.29982 19.8C7.29137 19.8 7.28293 19.8 7.27451 19.8C7.26609 19.8 7.25768 19.8 7.24928 19.8C7.24089 19.8 7.23251 19.8 7.22414 19.8C7.21577 19.8 7.20742 19.8 7.19908 19.8C7.19074 19.8 7.18241 19.8 7.1741 19.8C7.16578 19.8 7.15748 19.8 7.1492 19.8C7.14091 19.8 7.13264 19.8 7.12438 19.8C7.11613 19.8 7.10788 19.8 7.09965 19.8C7.09142 19.8 7.0832 19.8 7.075 19.8C7.0668 19.8 7.05861 19.8 7.05043 19.8C7.04226 19.8 7.03409 19.8 7.02595 19.8C7.0178 19.8 7.00966 19.8 7.00154 19.8C6.99342 19.8 6.98532 19.8 6.97722 19.8C6.96913 19.8 6.96105 19.8 6.95298 19.8C6.94492 19.8 6.93687 19.8 6.92883 19.8C6.92079 19.8 6.91276 19.8 6.90475 19.8C6.89674 19.8 6.88875 19.8 6.88076 19.8C6.87278 19.8 6.86481 19.8 6.85685 19.8C6.8489 19.8 6.84095 19.8 6.83303 19.8C6.8251 19.8 6.81718 19.8 6.80928 19.8C6.80138 19.8 6.79349 19.8 6.78562 19.8C6.77775 19.8 6.76989 19.8 6.76204 19.8C6.75419 19.8 6.74636 19.8 6.73854 19.8C6.73073 19.8 6.72292 19.8 6.71513 19.8C6.70734 19.8 6.69956 19.8 6.6918 19.8C6.68403 19.8 6.67628 19.8 6.66855 19.8C6.66081 19.8 6.65309 19.8 6.64538 19.8C6.63767 19.8 6.62998 19.8 6.62229 19.8C6.61461 19.8 6.60695 19.8 6.59929 19.8C6.59164 19.8 6.584 19.8 6.57637 19.8C6.56875 19.8 6.56113 19.8 6.55353 19.8C6.54594 19.8 6.53835 19.8 6.53078 19.8C6.52321 19.8 6.51565 19.8 6.50811 19.8C6.50056 19.8 6.49303 19.8 6.48552 19.8C6.478 19.8 6.4705 19.8 6.46301 19.8C6.45552 19.8 6.44804 19.8 6.44058 19.8C6.43312 19.8 6.42567 19.8 6.41824 19.8C6.4108 19.8 6.40338 19.8 6.39598 19.8C6.38857 19.8 6.38118 19.8 6.3738 19.8C6.36642 19.8 6.35905 19.8 6.3517 19.8C6.34435 19.8 6.33701 19.8 6.32969 19.8C6.32236 19.8 6.31505 19.8 6.30776 19.8C6.30046 19.8 6.29318 19.8 6.28591 19.8C6.27864 19.8 6.27138 19.8 6.26414 19.8C6.2569 19.8 6.24967 19.8 6.24246 19.8C6.23524 19.8 6.22804 19.8 6.22085 19.8C6.21367 19.8 6.20649 19.8 6.19934 19.8C6.19218 19.8 6.18503 19.8 6.1779 19.8C6.17077 19.8 6.16365 19.8 6.15654 19.8C6.14944 19.8 6.14235 19.8 6.13527 19.8C6.12819 19.8 6.12113 19.8 6.11408 19.8C6.10703 19.8 6.1 19.8 6.09297 19.8C6.08595 19.8 6.07894 19.8 6.07195 19.8C6.06495 19.8 6.05797 19.8 6.05101 19.8C6.04404 19.8 6.03709 19.8 6.03015 19.8C6.02321 19.8 6.01628 19.8 6.00937 19.8C6.00246 19.8 5.99556 19.8 5.98867 19.8C5.98179 19.8 5.97492 19.8 5.96806 19.8C5.9612 19.8 5.95436 19.8 5.94753 19.8C5.9407 19.8 5.93388 19.8 5.92708 19.8C5.92028 19.8 5.91349 19.8 5.90671 19.8C5.89994 19.8 5.89318 19.8 5.88643 19.8C5.87968 19.8 5.87295 19.8 5.86623 19.8C5.85951 19.8 5.8528 19.8 5.84611 19.8C5.83942 19.8 5.83274 19.8 5.82607 19.8C5.81941 19.8 5.81276 19.8 5.80612 19.8C5.79948 19.8 5.79286 19.8 5.78625 19.8C5.77964 19.8 5.77304 19.8 5.76646 19.8C5.75988 19.8 5.75331 19.8 5.74675 19.8C5.7402 19.8 5.73366 19.8 5.72713 19.8C5.7206 19.8 5.71409 19.8 5.70759 19.8C5.70109 19.8 5.6946 19.8 5.68813 19.8C5.68165 19.8 5.6752 19.8 5.66875 19.8C5.6623 19.8 5.65587 19.8 5.64946 19.8C5.64304 19.8 5.63663 19.8 5.63024 19.8C5.62385 19.8 5.61748 19.8 5.61111 19.8C5.60475 19.8 5.5984 19.8 5.59207 19.8C5.58573 19.8 5.57941 19.8 5.5731 19.8C5.56679 19.8 5.5605 19.8 5.55422 19.8C5.54794 19.8 5.54167 19.8 5.53542 19.8C5.52916 19.8 5.52292 19.8 5.5167 19.8C5.51047 19.8 5.50426 19.8 5.49806 19.8C5.49187 19.8 5.48568 19.8 5.47951 19.8C5.47334 19.8 5.46718 19.8 5.46104 19.8C5.4549 19.8 5.44877 19.8 5.44265 19.8C5.43654 19.8 5.43043 19.8 5.42435 19.8C5.41826 19.8 5.41218 19.8 5.40612 19.8C5.40006 19.8 5.39401 19.8 5.38798 19.8C5.38195 19.8 5.37593 19.8 5.36992 19.8C5.36392 19.8 5.35792 19.8 5.35195 19.8C5.34597 19.8 5.34 19.8 5.33405 19.8C5.3281 19.8 5.32216 19.8 5.31624 19.8C5.31032 19.8 5.30441 19.8 5.29851 19.8C5.29261 19.8 5.28673 19.8 5.28086 19.8C5.275 19.8 5.26914 19.8 5.2633 19.8C5.25746 19.8 5.25163 19.8 5.24582 19.8C5.24 19.8 5.2342 19.8 5.22842 19.8C5.22263 19.8 5.21686 19.8 5.2111 19.8C5.20534 19.8 5.1996 19.8 5.19387 19.8C5.18814 19.8 5.18242 19.8 5.17671 19.8C5.17101 19.8 5.16532 19.8 5.15964 19.8C5.15397 19.8 5.1483 19.8 5.14266 19.8C5.13701 19.8 5.13137 19.8 5.12575 19.8C5.12013 19.8 5.11452 19.8 5.10893 19.8C5.10333 19.8 5.09775 19.8 5.09219 19.8C5.08662 19.8 5.08107 19.8 5.07553 19.8C5.06999 19.8 5.06447 19.8 5.05895 19.8C5.05344 19.8 5.04795 19.8 5.04246 19.8C5.03698 19.8 5.03151 19.8 5.02605 19.8C5.02059 19.8 5.01515 19.8 5.00972 19.8C5.00429 19.8 4.99888 19.8 4.99348 19.8C4.98807 19.8 4.98269 19.8 4.97731 19.8C4.97194 19.8 4.96658 19.8 4.96123 19.8C4.95588 19.8 4.95055 19.8 4.94523 19.8C4.93991 19.8 4.93461 19.8 4.92932 19.8C4.92402 19.8 4.91875 19.8 4.91348 19.8C4.90822 19.8 4.90297 19.8 4.89773 19.8C4.89249 19.8 4.88727 19.8 4.88206 19.8C4.87685 19.8 4.87166 19.8 4.86647 19.8C4.86129 19.8 4.85612 19.8 4.85097 19.8C4.84581 19.8 4.84067 19.8 4.83555 19.8C4.83042 19.8 4.82531 19.8 4.82021 19.8C4.81511 19.8 4.81002 19.8 4.80495 19.8C4.79988 19.8 4.79482 19.8 4.78978 19.8C4.78473 19.8 4.7797 19.8 4.77468 19.8C4.76967 19.8 4.76466 19.8 4.75967 19.8C4.75468 19.8 4.74971 19.8 4.74475 19.8C4.73978 19.8 4.73483 19.8 4.7299 19.8C4.72497 19.8 4.72004 19.8 4.71514 19.8C4.71023 19.8 4.70534 19.8 4.70046 19.8C4.69558 19.8 4.69071 19.8 4.68586 19.8C4.68101 19.8 4.67617 19.8 4.67134 19.8C4.66652 19.8 4.66171 19.8 4.65691 19.8C4.65211 19.8 4.64733 19.8 4.64256 19.8C4.63779 19.8 4.63303 19.8 4.62829 19.8C4.62355 19.8 4.61882 19.8 4.6141 19.8C4.60939 19.8 4.60469 19.8 4.6 19.8V21.8ZM23.5997 20.8238L23.9997 4.0238L22.0003 3.9762L21.6003 20.7762L23.5997 20.8238ZM23 5H25V3H23V5Z" fill="#888B8D"/>
<path d="M5.7998 14.8H6.9998M11.7998 14.8H15.3998M5.7998 10H15.3998" stroke="white" stroke-width="2" stroke-linecap="round" stroke-linejoin="round"/>
</svg>
