<svg width="25" height="12" viewBox="0 0 25 12" fill="none" xmlns="http://www.w3.org/2000/svg">
<g opacity="0.35">
<path opacity="0.35" d="M20.0049 0.833008H3.33888C2.14207 0.833008 1.17188 1.80321 1.17188 3.00001V8.99901C1.17188 10.1958 2.14207 11.166 3.33888 11.166H20.0049C21.2017 11.166 22.1719 10.1958 22.1719 8.99901V3.00001C22.1719 1.80321 21.2017 0.833008 20.0049 0.833008Z" fill="white" stroke="white" stroke-miterlimit="10"/>
</g>
<path opacity="0.4" d="M23.6719 4V8C24.0655 7.83429 24.4014 7.55614 24.6376 7.20037C24.8739 6.84461 24.9999 6.42705 24.9999 6C24.9999 5.57295 24.8739 5.15539 24.6376 4.79962C24.4014 4.44386 24.0655 4.1657 23.6719 4" fill="white"/>
<path d="M19.3389 2.33301H4.00487C3.26868 2.33301 2.67188 2.92981 2.67188 3.66601V8.33301C2.67188 9.0692 3.26868 9.66601 4.00487 9.66601H19.3389C20.0751 9.66601 20.6719 9.0692 20.6719 8.33301V3.66601C20.6719 2.92981 20.0751 2.33301 19.3389 2.33301Z" fill="white"/>
</svg>
