<svg width="24" height="24" viewBox="0 0 24 24" fill="none" xmlns="http://www.w3.org/2000/svg">
<path d="M11.9091 19.6364C12.1249 19.6364 12.3358 19.5724 12.5152 19.4525C12.6946 19.3326 12.8344 19.1623 12.917 18.9629C12.9995 18.7636 13.0211 18.5442 12.979 18.3326C12.9369 18.121 12.833 17.9266 12.6805 17.7741C12.5279 17.6215 12.3335 17.5176 12.1219 17.4755C11.9103 17.4334 11.691 17.455 11.4916 17.5376C11.2923 17.6202 11.1219 17.76 11.002 17.9394C10.8822 18.1188 10.8182 18.3297 10.8182 18.5455C10.8182 18.8348 10.9331 19.1123 11.1377 19.3168C11.3423 19.5214 11.6198 19.6364 11.9091 19.6364ZM17.3636 19.6364C17.5794 19.6364 17.7903 19.5724 17.9697 19.4525C18.1491 19.3326 18.2889 19.1623 18.3715 18.9629C18.4541 18.7636 18.4757 18.5442 18.4336 18.3326C18.3915 18.121 18.2876 17.9266 18.135 17.7741C17.9825 17.6215 17.7881 17.5176 17.5765 17.4755C17.3648 17.4334 17.1455 17.455 16.9462 17.5376C16.7468 17.6202 16.5764 17.76 16.4566 17.9394C16.3367 18.1188 16.2727 18.3297 16.2727 18.5455C16.2727 18.8348 16.3877 19.1123 16.5922 19.3168C16.7968 19.5214 17.0743 19.6364 17.3636 19.6364ZM17.3636 15.2727C17.5794 15.2727 17.7903 15.2087 17.9697 15.0889C18.1491 14.969 18.2889 14.7986 18.3715 14.5993C18.4541 14.4 18.4757 14.1806 18.4336 13.969C18.3915 13.7574 18.2876 13.563 18.135 13.4104C17.9825 13.2579 17.7881 13.154 17.5765 13.1119C17.3648 13.0698 17.1455 13.0914 16.9462 13.174C16.7468 13.2565 16.5764 13.3963 16.4566 13.5757C16.3367 13.7551 16.2727 13.9661 16.2727 14.1818C16.2727 14.4711 16.3877 14.7486 16.5922 14.9532C16.7968 15.1578 17.0743 15.2727 17.3636 15.2727ZM11.9091 15.2727C12.1249 15.2727 12.3358 15.2087 12.5152 15.0889C12.6946 14.969 12.8344 14.7986 12.917 14.5993C12.9995 14.4 13.0211 14.1806 12.979 13.969C12.9369 13.7574 12.833 13.563 12.6805 13.4104C12.5279 13.2579 12.3335 13.154 12.1219 13.1119C11.9103 13.0698 11.691 13.0914 11.4916 13.174C11.2923 13.2565 11.1219 13.3963 11.002 13.5757C10.8822 13.7551 10.8182 13.9661 10.8182 14.1818C10.8182 14.4711 10.9331 14.7486 11.1377 14.9532C11.3423 15.1578 11.6198 15.2727 11.9091 15.2727ZM19.5455 2.18182H18.4545V1.09091C18.4545 0.801582 18.3396 0.524105 18.135 0.31952C17.9304 0.114935 17.653 0 17.3636 0C17.0743 0 16.7968 0.114935 16.5922 0.31952C16.3877 0.524105 16.2727 0.801582 16.2727 1.09091V2.18182H7.54545V1.09091C7.54545 0.801582 7.43052 0.524105 7.22593 0.31952C7.02135 0.114935 6.74387 0 6.45455 0C6.16522 0 5.88774 0.114935 5.68316 0.31952C5.47857 0.524105 5.36364 0.801582 5.36364 1.09091V2.18182H4.27273C3.40475 2.18182 2.57232 2.52662 1.95856 3.14038C1.3448 3.75413 1 4.58656 1 5.45455V20.7273C1 21.5953 1.3448 22.4277 1.95856 23.0414C2.57232 23.6552 3.40475 24 4.27273 24H19.5455C20.4134 24 21.2459 23.6552 21.8596 23.0414C22.4734 22.4277 22.8182 21.5953 22.8182 20.7273V5.45455C22.8182 4.58656 22.4734 3.75413 21.8596 3.14038C21.2459 2.52662 20.4134 2.18182 19.5455 2.18182ZM20.6364 8.72727H3.18182V5.45455C3.18182 5.16522 3.29675 4.88774 3.50134 4.68316C3.70592 4.47857 3.9834 4.36364 4.27273 4.36364H5.36364V5.45455C5.36364 5.74387 5.47857 6.02135 5.68316 6.22593C5.88774 6.43052 6.16522 6.54545 6.45455 6.54545C6.74387 6.54545 7.02135 6.43052 7.22593 6.22593C7.43052 6.02135 7.54545 5.74387 7.54545 5.45455V4.36364H16.2727V5.45455C16.2727 5.74387 16.3877 6.02135 16.5922 6.22593C16.7968 6.43052 17.0743 6.54545 17.3636 6.54545C17.653 6.54545 17.9304 6.43052 18.135 6.22593C18.3396 6.02135 18.4545 5.74387 18.4545 5.45455V4.36364H19.5455C19.8348 4.36364 20.1123 4.47857 20.3168 4.68316C20.5214 4.88774 20.6364 5.16522 20.6364 5.45455V8.72727ZM6.45455 15.2727C6.67031 15.2727 6.88122 15.2087 7.06062 15.0889C7.24002 14.969 7.37985 14.7986 7.46241 14.5993C7.54498 14.4 7.56659 14.1806 7.52449 13.969C7.4824 13.7574 7.3785 13.563 7.22593 13.4104C7.07337 13.2579 6.87899 13.154 6.66737 13.1119C6.45576 13.0698 6.23641 13.0914 6.03707 13.174C5.83774 13.2565 5.66736 13.3963 5.54749 13.5757C5.42762 13.7551 5.36364 13.9661 5.36364 14.1818C5.36364 14.4711 5.47857 14.7486 5.68316 14.9532C5.88774 15.1578 6.16522 15.2727 6.45455 15.2727ZM6.45455 19.6364C6.67031 19.6364 6.88122 19.5724 7.06062 19.4525C7.24002 19.3326 7.37985 19.1623 7.46241 18.9629C7.54498 18.7636 7.56659 18.5442 7.52449 18.3326C7.4824 18.121 7.3785 17.9266 7.22593 17.7741C7.07337 17.6215 6.87899 17.5176 6.66737 17.4755C6.45576 17.4334 6.23641 17.455 6.03707 17.5376C5.83774 17.6202 5.66736 17.76 5.54749 17.9394C5.42762 18.1188 5.36364 18.3297 5.36364 18.5455C5.36364 18.8348 5.47857 19.1123 5.68316 19.3168C5.88774 19.5214 6.16522 19.6364 6.45455 19.6364Z" fill="#888B8D"/>
<path d="M11.9092 19.6363C12.125 19.6363 12.3359 19.5723 12.5153 19.4524C12.6947 19.3326 12.8345 19.1622 12.9171 18.9628C12.9997 18.7635 13.0213 18.5442 12.9792 18.3325C12.9371 18.1209 12.8332 17.9265 12.6806 17.774C12.528 17.6214 12.3337 17.5175 12.122 17.4754C11.9104 17.4333 11.6911 17.4549 11.4918 17.5375C11.2924 17.6201 11.122 17.7599 11.0022 17.9393C10.8823 18.1187 10.8183 18.3296 10.8183 18.5454C10.8183 18.8347 10.9332 19.1122 11.1378 19.3168C11.3424 19.5213 11.6199 19.6363 11.9092 19.6363ZM17.3638 19.6363C17.5795 19.6363 17.7904 19.5723 17.9698 19.4524C18.1492 19.3326 18.2891 19.1622 18.3716 18.9628C18.4542 18.7635 18.4758 18.5442 18.4337 18.3325C18.3916 18.1209 18.2877 17.9265 18.1352 17.774C17.9826 17.6214 17.7882 17.5175 17.5766 17.4754C17.365 17.4333 17.1456 17.4549 16.9463 17.5375C16.747 17.6201 16.5766 17.7599 16.4567 17.9393C16.3368 18.1187 16.2729 18.3296 16.2729 18.5454C16.2729 18.8347 16.3878 19.1122 16.5924 19.3168C16.797 19.5213 17.0744 19.6363 17.3638 19.6363ZM17.3638 15.2726C17.5795 15.2726 17.7904 15.2087 17.9698 15.0888C18.1492 14.9689 18.2891 14.7985 18.3716 14.5992C18.4542 14.3999 18.4758 14.1805 18.4337 13.9689C18.3916 13.7573 18.2877 13.5629 18.1352 13.4103C17.9826 13.2578 17.7882 13.1539 17.5766 13.1118C17.365 13.0697 17.1456 13.0913 16.9463 13.1739C16.747 13.2564 16.5766 13.3963 16.4567 13.5757C16.3368 13.7551 16.2729 13.966 16.2729 14.1817C16.2729 14.4711 16.3878 14.7485 16.5924 14.9531C16.797 15.1577 17.0744 15.2726 17.3638 15.2726ZM11.9092 15.2726C12.125 15.2726 12.3359 15.2087 12.5153 15.0888C12.6947 14.9689 12.8345 14.7985 12.9171 14.5992C12.9997 14.3999 13.0213 14.1805 12.9792 13.9689C12.9371 13.7573 12.8332 13.5629 12.6806 13.4103C12.528 13.2578 12.3337 13.1539 12.122 13.1118C11.9104 13.0697 11.6911 13.0913 11.4918 13.1739C11.2924 13.2564 11.122 13.3963 11.0022 13.5757C10.8823 13.7551 10.8183 13.966 10.8183 14.1817C10.8183 14.4711 10.9332 14.7485 11.1378 14.9531C11.3424 15.1577 11.6199 15.2726 11.9092 15.2726ZM6.45468 15.2726C6.67044 15.2726 6.88136 15.2087 7.06076 15.0888C7.24015 14.9689 7.37998 14.7985 7.46255 14.5992C7.54512 14.3999 7.56672 14.1805 7.52463 13.9689C7.48253 13.7573 7.37863 13.5629 7.22607 13.4103C7.0735 13.2578 6.87912 13.1539 6.6675 13.1118C6.45589 13.0697 6.23654 13.0913 6.03721 13.1739C5.83787 13.2564 5.66749 13.3963 5.54762 13.5757C5.42775 13.7551 5.36377 13.966 5.36377 14.1817C5.36377 14.4711 5.4787 14.7485 5.68329 14.9531C5.88787 15.1577 6.16535 15.2726 6.45468 15.2726ZM6.45468 19.6363C6.67044 19.6363 6.88136 19.5723 7.06076 19.4524C7.24015 19.3326 7.37998 19.1622 7.46255 18.9628C7.54512 18.7635 7.56672 18.5442 7.52463 18.3325C7.48253 18.1209 7.37863 17.9265 7.22607 17.774C7.0735 17.6214 6.87912 17.5175 6.6675 17.4754C6.45589 17.4333 6.23654 17.4549 6.03721 17.5375C5.83787 17.6201 5.66749 17.7599 5.54762 17.9393C5.42775 18.1187 5.36377 18.3296 5.36377 18.5454C5.36377 18.8347 5.4787 19.1122 5.68329 19.3168C5.88787 19.5213 6.16535 19.6363 6.45468 19.6363Z" fill="white"/>
</svg>
