<svg width="24" height="24" viewBox="0 0 24 24" fill="none" xmlns="http://www.w3.org/2000/svg">
<path d="M3.59995 0H20.3997C21.3545 0 22.2701 0.379279 22.9453 1.0544C23.6204 1.72952 23.9997 2.64518 23.9997 3.59995V22.7997C23.9985 23.0366 23.9272 23.2678 23.7948 23.4643C23.6624 23.6608 23.4748 23.8136 23.2557 23.9037C23.1133 23.9708 22.9571 24.0037 22.7997 23.9997C22.6418 24.0006 22.4852 23.9703 22.339 23.9106C22.1928 23.8509 22.0598 23.7629 21.9477 23.6517L17.5078 19.1997H3.59995C2.64518 19.1997 1.72952 18.8205 1.0544 18.1453C0.379279 17.4702 0 16.5545 0 15.5998V3.59995C0 2.64518 0.379279 1.72952 1.0544 1.0544C1.72952 0.379279 2.64518 0 3.59995 0Z" fill="#888B8D"/>
<path d="M5.99992 5.99992C5.76258 5.99992 5.53058 6.07029 5.33324 6.20215C5.13591 6.33401 4.9821 6.52142 4.89128 6.74069C4.80045 6.95995 4.77669 7.20123 4.82299 7.434C4.86929 7.66678 4.98358 7.88059 5.1514 8.04842C5.31922 8.21624 5.53304 8.33052 5.76581 8.37683C5.99859 8.42313 6.23986 8.39936 6.45913 8.30854C6.6784 8.21772 6.86581 8.06391 6.99767 7.86657C7.12952 7.66924 7.1999 7.43723 7.1999 7.1999C7.1999 6.88164 7.07347 6.57642 6.84843 6.35138C6.62339 6.12634 6.31817 5.99992 5.99992 5.99992ZM5.99992 10.7998C5.76258 10.7998 5.53058 10.8702 5.33324 11.0021C5.13591 11.1339 4.9821 11.3214 4.89128 11.5406C4.80045 11.7599 4.77669 12.0012 4.82299 12.2339C4.86929 12.4667 4.98358 12.6805 5.1514 12.8483C5.31922 13.0162 5.53304 13.1305 5.76581 13.1768C5.99859 13.2231 6.23986 13.1993 6.45913 13.1085C6.6784 13.0176 6.86581 12.8638 6.99767 12.6665C7.12952 12.4692 7.1999 12.2372 7.1999 11.9998C7.1999 11.6816 7.07347 11.3764 6.84843 11.1513C6.62339 10.9263 6.31817 10.7998 5.99992 10.7998ZM17.9998 10.7998H10.7999C10.4816 10.7998 10.1764 10.9263 9.95133 11.1513C9.72629 11.3764 9.59987 11.6816 9.59987 11.9998C9.59987 12.3181 9.72629 12.6233 9.95133 12.8483C10.1764 13.0734 10.4816 13.1998 10.7999 13.1998H17.9998C18.318 13.1998 18.6232 13.0734 18.8483 12.8483C19.0733 12.6233 19.1997 12.3181 19.1997 11.9998C19.1997 11.6816 19.0733 11.3764 18.8483 11.1513C18.6232 10.9263 18.318 10.7998 17.9998 10.7998ZM17.9998 5.99992H10.7999C10.4816 5.99992 10.1764 6.12634 9.95133 6.35138C9.72629 6.57642 9.59987 6.88164 9.59987 7.1999C9.59987 7.51816 9.72629 7.82337 9.95133 8.04842C10.1764 8.27346 10.4816 8.39988 10.7999 8.39988H17.9998C18.318 8.39988 18.6232 8.27346 18.8483 8.04842C19.0733 7.82337 19.1997 7.51816 19.1997 7.1999C19.1997 6.88164 19.0733 6.57642 18.8483 6.35138C18.6232 6.12634 18.318 5.99992 17.9998 5.99992Z" fill="white"/>
</svg>
