<svg width="24" height="24" viewBox="0 0 24 24" fill="none" xmlns="http://www.w3.org/2000/svg">
<path d="M0 11.2623C0 10.1706 0.446203 9.12633 1.23511 8.37172L8.8275 1.10943C10.374 -0.369811 12.8108 -0.369811 14.3573 1.10943L21.9497 8.37173C22.7386 9.12633 23.1848 10.1706 23.1848 11.2623V19.968C23.1848 22.1772 21.3939 23.968 19.1848 23.968H4C1.79086 23.968 0 22.1772 0 19.968V11.2623Z" fill="#FF8300"/>
<path d="M7.5 14.2118C7.5 14.0633 7.56606 13.9224 7.68027 13.8274L11.1803 10.9163C11.3656 10.7622 11.6344 10.7622 11.8197 10.9163L15.3197 13.8274C15.4339 13.9224 15.5 14.0633 15.5 14.2118V21C15.5 21.2761 15.2761 21.5 15 21.5H8C7.72386 21.5 7.5 21.2761 7.5 21V14.2118Z" fill="white" stroke="white"/>
</svg>
