<svg width="21" height="24" viewBox="0 0 21 24" fill="none" xmlns="http://www.w3.org/2000/svg">
<path d="M3.39836 0C1.52446 0.000365519 0 1.52507 0 3.39884V20.6012C0 22.4751 1.52446 23.9998 3.39848 24H19.4399C19.8605 24 20.2014 23.6591 20.2014 23.2385V20.6012V17.9638V6.03619V0.761499C20.2014 0.340908 19.8605 0 19.4399 0H3.39836ZM18.6784 22.4769H3.3986C2.36442 22.4768 1.523 21.6352 1.523 20.601C1.523 19.5669 2.3643 18.7253 3.39848 18.7252H18.6784V19.8395H6.68815C6.26756 19.8395 5.92665 20.1804 5.92665 20.601C5.92665 21.0216 6.26756 21.3625 6.68815 21.3625H18.6784V22.4769Z" fill="#888B8D"/>
<path d="M7.05561 13.5687V10.6855C6.04958 10.2817 5.35205 9.29515 5.35205 8.16728C5.35205 6.71325 6.50185 5.52263 7.94005 5.45708C8.4469 4.78623 9.23667 4.38599 10.1009 4.38599C10.9647 4.38599 11.7546 4.78623 12.2616 5.45708C13.6997 5.52263 14.8495 6.71313 14.8495 8.16728C14.8495 9.29503 14.152 10.2817 13.1459 10.6856V13.5687C13.1459 13.9893 12.805 14.3302 12.3844 14.3302H7.81711C7.39652 14.3302 7.05561 13.9893 7.05561 13.5687Z" fill="white"/>
</svg>
