<svg width="24" height="25" viewBox="0 0 24 25" fill="none" xmlns="http://www.w3.org/2000/svg">
<path fill-rule="evenodd" clip-rule="evenodd" d="M23.2584 1.37166C23.4635 0.858873 23.2141 0.276903 22.7013 0.0717893C22.1886 -0.133324 21.6066 0.116092 21.4015 0.628875L19.8837 4.42327C19.3789 4.02221 18.7372 3.7777 18.0225 3.7777H3.00224C0.961336 3.7777 -0.483851 5.77149 0.15114 7.71109L2.3472 14.4191C2.7508 15.6519 3.90108 16.4857 5.1983 16.4857H15.8265C17.1237 16.4857 18.274 15.6519 18.6776 14.4191L20.8736 7.7111C20.9806 7.38425 21.0286 7.05588 21.0245 6.73576C21.1187 6.64232 21.1957 6.52849 21.2481 6.39748L23.2584 1.37166ZM8.12399 20.3508C8.12399 21.2932 7.35997 22.0572 6.4175 22.0572C5.47504 22.0572 4.71102 21.2932 4.71102 20.3508C4.71102 19.4083 5.47504 18.6443 6.4175 18.6443C7.35997 18.6443 8.12399 19.4083 8.12399 20.3508ZM10.124 20.3508C10.124 22.3978 8.46454 24.0572 6.4175 24.0572C4.37047 24.0572 2.71102 22.3978 2.71102 20.3508C2.71102 18.3037 4.37047 16.6443 6.4175 16.6443C8.46454 16.6443 10.124 18.3037 10.124 20.3508ZM14.8897 22.0573C15.8322 22.0573 16.5962 21.2933 16.5962 20.3508C16.5962 19.4084 15.8322 18.6443 14.8897 18.6443C13.9473 18.6443 13.1833 19.4084 13.1833 20.3508C13.1833 21.2933 13.9473 22.0573 14.8897 22.0573ZM14.8897 24.0573C16.9368 24.0573 18.5962 22.3979 18.5962 20.3508C18.5962 18.3038 16.9368 16.6443 14.8897 16.6443C12.8427 16.6443 11.1833 18.3038 11.1833 20.3508C11.1833 22.3979 12.8427 24.0573 14.8897 24.0573Z" fill="#888B8D"/>
</svg>
