<svg width="12" height="10" viewBox="0 0 12 10" fill="none" xmlns="http://www.w3.org/2000/svg">
<path d="M11.3438 3.78272C11.3108 3.68707 11.2507 3.60306 11.1709 3.54088C11.0911 3.47869 10.995 3.441 10.8941 3.43237L7.91883 2.99837L6.58544 0.294973C6.54262 0.206566 6.47577 0.132007 6.39254 0.0798382C6.3093 0.0276692 6.21306 0 6.11483 0C6.0166 0 5.92036 0.0276692 5.83712 0.0798382C5.75389 0.132007 5.68704 0.206566 5.64422 0.294973L4.31082 2.99314L1.33552 3.43237C1.23875 3.44613 1.14776 3.48674 1.0729 3.54959C0.998031 3.61244 0.942281 3.69501 0.911974 3.78795C0.884232 3.87876 0.881742 3.97541 0.904773 4.06754C0.927803 4.15966 0.975484 4.24377 1.0427 4.31084L3.20228 6.40244L2.67938 9.37252C2.66071 9.47055 2.67048 9.57188 2.70755 9.66453C2.74461 9.75719 2.80741 9.8373 2.88854 9.89542C2.96761 9.95195 3.06087 9.98531 3.15785 9.99178C3.25484 9.99825 3.35171 9.97755 3.43758 9.93202L6.11483 8.53588L8.78162 9.93725C8.85501 9.97865 8.93789 10.0003 9.02215 10C9.13292 10.0004 9.24095 9.9656 9.33066 9.90065C9.41179 9.84253 9.47459 9.76242 9.51165 9.66976C9.54872 9.5771 9.55849 9.47578 9.53982 9.37775L9.01692 6.40767L11.1765 4.31607C11.252 4.25211 11.3078 4.16804 11.3374 4.07363C11.367 3.97922 11.3693 3.87834 11.3438 3.78272ZM8.128 5.87432C8.06667 5.93363 8.02079 6.00705 7.99436 6.08817C7.96793 6.16929 7.96175 6.25564 7.97635 6.3397L8.35284 8.53065L6.38674 7.48485C6.31108 7.44456 6.22669 7.42349 6.14097 7.42349C6.05526 7.42349 5.97087 7.44456 5.89521 7.48485L3.92911 8.53065L4.3056 6.3397C4.3202 6.25564 4.31402 6.16929 4.28759 6.08817C4.26116 6.00705 4.21528 5.93363 4.15395 5.87432L2.58525 4.30562L4.78666 3.98665C4.87137 3.97486 4.9519 3.94248 5.02118 3.89234C5.09047 3.8422 5.1464 3.77583 5.18407 3.69905L6.11483 1.7068L7.09788 3.70428C7.13555 3.78106 7.19148 3.84743 7.26077 3.89757C7.33005 3.94771 7.41058 3.98009 7.49529 3.99188L9.6967 4.31084L8.128 5.87432Z" fill="#FF8300"/>
</svg>
