<svg width="11" height="10" viewBox="0 0 11 10" fill="none" xmlns="http://www.w3.org/2000/svg">
<path d="M10.8712 3.78272C10.8382 3.68707 10.7781 3.60306 10.6983 3.54088C10.6184 3.47869 10.5223 3.441 10.4215 3.43237L7.44618 2.99837L6.11278 0.294973C6.06997 0.206566 6.00311 0.132007 5.91988 0.0798382C5.83665 0.0276692 5.7404 0 5.64217 0C5.54394 0 5.4477 0.0276692 5.36447 0.0798382C5.28123 0.132007 5.21438 0.206566 5.17156 0.294973L3.83817 2.99314L0.862867 3.43237C0.76609 3.44613 0.675106 3.48674 0.600241 3.54959C0.525375 3.61244 0.469625 3.69501 0.439318 3.78795C0.411575 3.87876 0.409086 3.97541 0.432116 4.06754C0.455147 4.15966 0.502828 4.24377 0.570043 4.31084L2.72962 6.40244L2.20672 9.37252C2.18805 9.47055 2.19783 9.57188 2.23489 9.66453C2.27195 9.75719 2.33475 9.8373 2.41588 9.89542C2.49495 9.95195 2.58821 9.98531 2.6852 9.99178C2.78218 9.99825 2.87905 9.97755 2.96493 9.93202L5.64217 8.53588L8.30896 9.93725C8.38235 9.97865 8.46524 10.0003 8.5495 10C8.66026 10.0004 8.76829 9.9656 8.85801 9.90065C8.93913 9.84253 9.00194 9.76242 9.039 9.66976C9.07606 9.5771 9.08584 9.47578 9.06717 9.37775L8.54427 6.40767L10.7038 4.31607C10.7793 4.25211 10.8351 4.16804 10.8648 4.07363C10.8944 3.97922 10.8966 3.87834 10.8712 3.78272Z" fill="#FF8300"/>
</svg>
