<svg width="35" height="24" viewBox="0 0 35 24" fill="none" xmlns="http://www.w3.org/2000/svg">
<path d="M29.9502 9.56672C29.1603 7.80964 27.8798 6.3181 26.2625 5.27143C24.6451 4.22477 22.7599 3.66753 20.8335 3.66672C20.052 3.67303 19.2741 3.77376 18.5168 3.96672C17.5682 2.62763 16.2452 1.59845 14.7139 1.00825C13.1827 0.418058 11.5112 0.293127 9.90921 0.649127C8.30721 1.00513 6.84598 1.82621 5.70879 3.0094C4.5716 4.19259 3.80906 5.68521 3.51683 7.30006C2.42639 7.69262 1.50619 8.4518 0.913568 9.44778C0.32095 10.4438 0.092724 11.6147 0.267915 12.7603C0.443106 13.9059 1.01083 14.9551 1.87402 15.7285C2.7372 16.5018 3.84224 16.9513 5.00016 17.0001H6.66683C6.64945 17.2776 6.64945 17.5559 6.66683 17.8334C6.66683 19.3805 7.28141 20.8642 8.37537 21.9582C9.46933 23.0521 10.9531 23.6667 12.5002 23.6667H27.7835C29.5073 23.6664 31.1741 23.0491 32.4822 21.9264C33.7903 20.8038 34.6533 19.2499 34.9152 17.5461C35.177 15.8423 34.8203 14.1011 33.9096 12.6375C32.9989 11.1739 31.5943 10.0846 29.9502 9.56672ZM5.00016 13.6667C4.55813 13.6667 4.13421 13.4911 3.82165 13.1786C3.50909 12.866 3.33349 12.4421 3.33349 12.0001C3.33349 11.558 3.50909 11.1341 3.82165 10.8215C4.13421 10.509 4.55813 10.3334 5.00016 10.3334C5.44219 10.3334 5.86611 10.1578 6.17867 9.84523C6.49123 9.53267 6.66683 9.10875 6.66683 8.66672C6.66683 7.34064 7.19361 6.06887 8.13129 5.13119C9.06898 4.19351 10.3407 3.66672 11.6668 3.66672C12.3658 3.67048 13.0562 3.82074 13.6935 4.10781C14.3308 4.39489 14.9009 4.81239 15.3668 5.33339C14.184 6.10298 13.1775 7.11419 12.4134 8.30054C11.6493 9.4869 11.145 10.8215 10.9335 12.2167C9.99145 12.482 9.13157 12.9808 8.43349 13.6667H5.00016ZM27.7835 20.3334H12.5002C11.8371 20.3334 11.2012 20.07 10.7324 19.6012C10.2636 19.1323 10.0002 18.4964 10.0002 17.8334C10.0002 17.1704 10.2636 16.5345 10.7324 16.0656C11.2012 15.5968 11.8371 15.3334 12.5002 15.3334C12.9422 15.3334 13.3661 15.1578 13.6787 14.8452C13.9912 14.5327 14.1668 14.1088 14.1668 13.6667C14.174 12.0929 14.7377 10.5723 15.7582 9.37417C16.7787 8.17603 18.1903 7.37757 19.7429 7.12012C21.2956 6.86268 22.8892 7.16285 24.2419 7.96751C25.5945 8.77216 26.6188 10.0294 27.1335 11.5167C27.2288 11.8031 27.4 12.0583 27.629 12.2549C27.8579 12.4516 28.136 12.5824 28.4335 12.6334C29.3795 12.8103 30.2261 13.3321 30.8092 14.0977C31.3923 14.8634 31.6703 15.8183 31.5894 16.7772C31.5084 17.7362 31.0743 18.631 30.3711 19.288C29.6679 19.9451 28.7458 20.3176 27.7835 20.3334Z" fill="white"/>
</svg>
