<svg width="34" height="24" viewBox="0 0 34 24" fill="none" xmlns="http://www.w3.org/2000/svg">
<path d="M27.7001 7.34989C26.6806 5.00958 24.9216 3.06822 22.693 1.82349C20.4643 0.578754 17.8888 0.0993444 15.3615 0.458766C12.8342 0.818187 10.4946 1.9966 8.70126 3.81332C6.90795 5.63005 5.75999 7.98481 5.43339 10.5166C3.84437 10.8971 2.45043 11.8479 1.51629 13.1885C0.582151 14.5291 0.172868 16.1661 0.366167 17.7886C0.559467 19.4111 1.34189 20.9061 2.56484 21.9897C3.78779 23.0733 5.36611 23.67 7.00006 23.6666H25.3334C27.3323 23.6611 29.2627 22.9372 30.7724 21.627C32.2821 20.3169 33.2705 18.5077 33.5575 16.5295C33.8444 14.5512 33.4107 12.5358 32.3354 10.8507C31.2602 9.16556 29.615 7.9231 27.7001 7.34989ZM25.3334 20.3332H7.00006C6.11601 20.3332 5.26816 19.982 4.64304 19.3569C4.01792 18.7318 3.66673 17.8839 3.66673 16.9999C3.66673 16.1158 4.01792 15.268 4.64304 14.6429C5.26816 14.0177 6.11601 13.6666 7.00006 13.6666C7.44209 13.6666 7.86601 13.491 8.17857 13.1784C8.49113 12.8658 8.66673 12.4419 8.66673 11.9999C8.67099 10.0287 9.37387 8.12281 10.6505 6.62086C11.9271 5.11891 13.6949 4.11814 15.6396 3.79635C17.5844 3.47455 19.5803 3.85257 21.2727 4.86324C22.9651 5.87391 24.2444 7.45179 24.8834 9.31656C24.9812 9.59985 25.1535 9.85154 25.3823 10.0451C25.6111 10.2387 25.8878 10.367 26.1834 10.4166C27.4051 10.642 28.499 11.3141 29.2523 12.302C30.0055 13.2899 30.3639 14.5228 30.2578 15.7606C30.1518 16.9983 29.5887 18.1522 28.6784 18.9975C27.768 19.8428 26.5756 20.319 25.3334 20.3332Z" fill="white"/>
</svg>
