<svg width="37" height="38" viewBox="0 0 37 38" fill="none" xmlns="http://www.w3.org/2000/svg">
<path d="M11.0002 24.0001C10.5582 24.0001 10.1343 24.1757 9.8217 24.4882C9.50914 24.8008 9.33355 25.2247 9.33355 25.6667V27.3334C9.33355 27.7754 9.50914 28.1994 9.8217 28.5119C10.1343 28.8245 10.5582 29.0001 11.0002 29.0001C11.4422 29.0001 11.8662 28.8245 12.1787 28.5119C12.4913 28.1994 12.6669 27.7754 12.6669 27.3334V25.6667C12.6669 25.2247 12.4913 24.8008 12.1787 24.4882C11.8662 24.1757 11.4422 24.0001 11.0002 24.0001ZM35.1669 10.6667H33.3335C33.1114 9.62261 32.699 8.62827 32.1169 7.73341L33.5002 6.45008C33.6556 6.29468 33.7789 6.1102 33.863 5.90716C33.9471 5.70413 33.9904 5.48651 33.9904 5.26675C33.9904 5.04698 33.9471 4.82937 33.863 4.62633C33.7789 4.4233 33.6556 4.23881 33.5002 4.08341C33.3448 3.92802 33.1603 3.80475 32.9573 3.72065C32.7543 3.63655 32.5366 3.59326 32.3169 3.59326C32.0971 3.59326 31.8795 3.63655 31.6765 3.72065C31.4734 3.80475 31.2889 3.92802 31.1335 4.08341L29.8502 5.38341C28.9343 4.78364 27.9093 4.37021 26.8335 4.16675V2.33341C26.8335 1.89139 26.658 1.46746 26.3454 1.1549C26.0328 0.842343 25.6089 0.666748 25.1669 0.666748C24.7249 0.666748 24.3009 0.842343 23.9884 1.1549C23.6758 1.46746 23.5002 1.89139 23.5002 2.33341V4.16675C22.4561 4.3889 21.4617 4.80133 20.5669 5.38341L19.2835 4.08341C19.1281 3.92802 18.9437 3.80475 18.7406 3.72065C18.5376 3.63655 18.32 3.59326 18.1002 3.59326C17.8804 3.59326 17.6628 3.63655 17.4598 3.72065C17.2568 3.80475 17.0723 3.92802 16.9169 4.08341C16.603 4.39725 16.4267 4.82291 16.4267 5.26675C16.4267 5.71058 16.603 6.13624 16.9169 6.45008L18.2169 7.73341C17.556 8.74015 17.1184 9.87675 16.9335 11.0667C16.0893 10.8147 15.2145 10.6801 14.3335 10.6667C11.9316 10.6654 9.60948 11.5286 7.79166 13.0985C5.97385 14.6684 4.78182 16.8402 4.43355 19.2167C3.27294 19.5399 2.24086 20.2145 1.4791 21.1479C0.717342 22.0813 0.263264 23.2276 0.179245 24.4295C0.0952264 25.6313 0.385389 26.8297 1.00987 27.8599C1.63436 28.8902 2.56253 29.7019 3.66688 30.1834C3.87928 30.2676 4.10511 30.3127 4.33355 30.3167C4.71887 30.3199 5.09338 30.1894 5.39334 29.9475C5.69331 29.7056 5.90019 29.3673 5.97878 28.9901C6.05737 28.6128 6.00282 28.22 5.8244 27.8785C5.64599 27.5369 5.35474 27.2677 5.00021 27.1167C4.55304 26.9263 4.1721 26.6079 3.90524 26.2017C3.63837 25.7955 3.49746 25.3195 3.50021 24.8334C3.50021 24.1704 3.7636 23.5345 4.23245 23.0656C4.70129 22.5968 5.33717 22.3334 6.00021 22.3334C6.44224 22.3334 6.86616 22.1578 7.17872 21.8453C7.49128 21.5327 7.66688 21.1088 7.66688 20.6667C7.67403 19.0929 8.23775 17.5723 9.25828 16.3742C10.2788 15.1761 11.6903 14.3776 13.243 14.1201C14.7956 13.8627 16.3893 14.1629 17.7419 14.9675C19.0945 15.7722 20.1188 17.0294 20.6335 18.5167C20.7288 18.8031 20.9001 19.0583 21.129 19.255C21.358 19.4516 21.6361 19.5824 21.9335 19.6334C22.7077 19.7481 23.4288 20.0949 24.0016 20.628C24.5744 21.1612 24.9719 21.8556 25.1417 22.6196C25.3114 23.3835 25.2454 24.1809 24.9523 24.9065C24.6593 25.6321 24.1529 26.2517 23.5002 26.6834C23.3164 26.8038 23.158 26.9592 23.0342 27.1408C22.9104 27.3223 22.8236 27.5265 22.7787 27.7416C22.7339 27.9568 22.7318 28.1786 22.7727 28.3945C22.8135 28.6105 22.8965 28.8162 23.0169 29.0001C23.26 29.3714 23.6407 29.6309 24.0751 29.7215C24.2902 29.7664 24.5121 29.7685 24.728 29.7276C24.9439 29.6868 25.1497 29.6038 25.3335 29.4834C26.3164 28.8153 27.1195 27.9153 27.6718 26.863C28.2241 25.8107 28.5086 24.6385 28.5002 23.4501C28.495 22.3405 28.2386 21.2465 27.7502 20.2501C28.4616 20.0168 29.1395 19.6919 29.7669 19.2834L31.0502 20.5834C31.2004 20.758 31.3852 20.8996 31.5929 20.9992C31.8006 21.0988 32.0267 21.1543 32.2569 21.1621C32.4872 21.1699 32.7165 21.1299 32.9305 21.0447C33.1445 20.9594 33.3385 20.8307 33.5002 20.6667C33.6564 20.5118 33.7804 20.3275 33.865 20.1244C33.9496 19.9213 33.9932 19.7034 33.9932 19.4834C33.9932 19.2634 33.9496 19.0455 33.865 18.8425C33.7804 18.6394 33.6564 18.455 33.5002 18.3001L32.2002 17.0167C32.7707 16.0945 33.1556 15.0698 33.3335 14.0001H35.1669C35.6089 14.0001 36.0328 13.8245 36.3454 13.5119C36.658 13.1994 36.8335 12.7754 36.8335 12.3334C36.8335 11.8914 36.658 11.4675 36.3454 11.1549C36.0328 10.8423 35.6089 10.6667 35.1669 10.6667ZM28.7169 15.8667C28.251 16.3332 27.6976 16.7029 27.0883 16.9546C26.4791 17.2063 25.8261 17.335 25.1669 17.3334H25.0669C24.5481 17.0045 23.9876 16.7466 23.4002 16.5667C22.6616 14.9716 21.511 13.6023 20.0669 12.6001C20.0669 12.5001 20.0669 12.4334 20.0669 12.3334C20.0636 11.0102 20.585 9.73959 21.5169 8.80008C22.4753 7.8977 23.7421 7.3952 25.0585 7.3952C26.375 7.3952 27.6417 7.8977 28.6002 8.80008C29.0663 9.2646 29.4362 9.81656 29.6886 10.4243C29.9409 11.0321 30.0708 11.6837 30.0708 12.3417C30.0708 12.9998 29.9409 13.6514 29.6886 14.2592C29.4362 14.8669 29.0663 15.4189 28.6002 15.8834L28.7169 15.8667ZM11.0002 32.3334C10.5582 32.3334 10.1343 32.509 9.8217 32.8216C9.50914 33.1341 9.33355 33.5581 9.33355 34.0001V35.6667C9.33355 36.1088 9.50914 36.5327 9.8217 36.8453C10.1343 37.1578 10.5582 37.3334 11.0002 37.3334C11.4422 37.3334 11.8662 37.1578 12.1787 36.8453C12.4913 36.5327 12.6669 36.1088 12.6669 35.6667V34.0001C12.6669 33.5581 12.4913 33.1341 12.1787 32.8216C11.8662 32.509 11.4422 32.3334 11.0002 32.3334ZM17.6669 30.6667C17.2249 30.6667 16.8009 30.8423 16.4884 31.1549C16.1758 31.4675 16.0002 31.8914 16.0002 32.3334V34.0001C16.0002 34.4421 16.1758 34.866 16.4884 35.1786C16.8009 35.4911 17.2249 35.6667 17.6669 35.6667C18.1089 35.6667 18.5328 35.4911 18.8454 35.1786C19.158 34.866 19.3335 34.4421 19.3335 34.0001V32.3334C19.3335 31.8914 19.158 31.4675 18.8454 31.1549C18.5328 30.8423 18.1089 30.6667 17.6669 30.6667ZM17.6669 22.3334C17.2249 22.3334 16.8009 22.509 16.4884 22.8216C16.1758 23.1341 16.0002 23.5581 16.0002 24.0001V25.6667C16.0002 26.1088 16.1758 26.5327 16.4884 26.8453C16.8009 27.1578 17.2249 27.3334 17.6669 27.3334C18.1089 27.3334 18.5328 27.1578 18.8454 26.8453C19.158 26.5327 19.3335 26.1088 19.3335 25.6667V24.0001C19.3335 23.5581 19.158 23.1341 18.8454 22.8216C18.5328 22.509 18.1089 22.3334 17.6669 22.3334Z" fill="white"/>
</svg>
