<svg width="36" height="25" viewBox="0 0 36 25" fill="none" xmlns="http://www.w3.org/2000/svg">
<path d="M30.4502 10.0667C29.6603 8.30964 28.3798 6.8181 26.7625 5.77143C25.1451 4.72477 23.2599 4.16753 21.3335 4.16672C20.552 4.17303 19.7741 4.27376 19.0168 4.46672C18.0682 3.12763 16.7452 2.09845 15.2139 1.50825C13.6827 0.918058 12.0112 0.793127 10.4092 1.14913C8.80721 1.50513 7.34598 2.32621 6.20879 3.5094C5.0716 4.69259 4.30906 6.18521 4.01683 7.80006C2.92639 8.19262 2.00619 8.9518 1.41357 9.94778C0.82095 10.9438 0.592724 12.1147 0.767915 13.2603C0.943106 14.4059 1.51083 15.4551 2.37402 16.2285C3.2372 17.0018 4.34224 17.4513 5.50016 17.5001H7.16683C7.14945 17.7776 7.14945 18.0559 7.16683 18.3334C7.16683 19.8805 7.78141 21.3642 8.87537 22.4582C9.96933 23.5521 11.4531 24.1667 13.0002 24.1667H28.2835C30.0073 24.1664 31.6741 23.5491 32.9822 22.4264C34.2903 21.3038 35.1533 19.7499 35.4152 18.0461C35.677 16.3423 35.3203 14.6011 34.4096 13.1375C33.4989 11.6739 32.0943 10.5846 30.4502 10.0667ZM5.50016 14.1667C5.05813 14.1667 4.63421 13.9911 4.32165 13.6786C4.00909 13.366 3.83349 12.9421 3.83349 12.5001C3.83349 12.058 4.00909 11.6341 4.32165 11.3215C4.63421 11.009 5.05813 10.8334 5.50016 10.8334C5.94219 10.8334 6.36611 10.6578 6.67867 10.3452C6.99123 10.0327 7.16683 9.60875 7.16683 9.16672C7.16683 7.84064 7.69361 6.56887 8.63129 5.63119C9.56898 4.69351 10.8407 4.16672 12.1668 4.16672C12.8658 4.17048 13.5562 4.32074 14.1935 4.60781C14.8308 4.89489 15.4009 5.31239 15.8668 5.83339C14.684 6.60298 13.6775 7.61419 12.9134 8.80054C12.1493 9.9869 11.645 11.3215 11.4335 12.7167C10.4914 12.982 9.63157 13.4808 8.93349 14.1667H5.50016ZM28.2835 20.8334H13.0002C12.3371 20.8334 11.7012 20.57 11.2324 20.1012C10.7636 19.6323 10.5002 18.9964 10.5002 18.3334C10.5002 17.6704 10.7636 17.0345 11.2324 16.5656C11.7012 16.0968 12.3371 15.8334 13.0002 15.8334C13.4422 15.8334 13.8661 15.6578 14.1787 15.3452C14.4912 15.0327 14.6668 14.6088 14.6668 14.1667C14.674 12.5929 15.2377 11.0723 16.2582 9.87417C17.2787 8.67603 18.6903 7.87757 20.2429 7.62012C21.7956 7.36268 23.3892 7.66285 24.7419 8.46751C26.0945 9.27216 27.1188 10.5294 27.6335 12.0167C27.7288 12.3031 27.9 12.5583 28.129 12.7549C28.3579 12.9516 28.636 13.0824 28.9335 13.1334C29.8795 13.3103 30.7261 13.8321 31.3092 14.5977C31.8923 15.3634 32.1703 16.3183 32.0894 17.2772C32.0084 18.2362 31.5743 19.131 30.8711 19.788C30.1679 20.4451 29.2458 20.8176 28.2835 20.8334Z" fill="white"/>
</svg>
