<svg width="33" height="37" viewBox="0 0 33 37" fill="none" xmlns="http://www.w3.org/2000/svg">
<path d="M31.7665 25.3834L28.4331 23.4667L29.9165 23.0667C30.1343 23.016 30.3397 22.9219 30.5204 22.7901C30.7011 22.6583 30.8535 22.4915 30.9683 22.2995C31.0832 22.1076 31.1583 21.8945 31.1891 21.673C31.2199 21.4514 31.2058 21.2259 31.1476 21.01C31.0894 20.794 30.9883 20.5919 30.8504 20.4158C30.7124 20.2397 30.5405 20.0932 30.3447 19.985C30.149 19.8768 29.9335 19.809 29.711 19.7859C29.4885 19.7627 29.2636 19.7845 29.0498 19.8501L24.3498 21.1167L19.8331 18.5001L24.3498 15.8834L29.0498 17.1501H29.4831C29.9251 17.2075 30.3719 17.0871 30.7251 16.8151C31.0783 16.5432 31.309 16.1421 31.3665 15.7001C31.4239 15.2581 31.3034 14.8113 31.0315 14.4581C30.7596 14.1049 30.3585 13.8742 29.9165 13.8167L28.4331 13.5001L31.7665 11.5834C31.9569 11.474 32.1239 11.3281 32.2579 11.1541C32.392 10.9802 32.4904 10.7815 32.5477 10.5695C32.6049 10.3574 32.6199 10.1362 32.5916 9.9184C32.5634 9.7006 32.4926 9.4905 32.3831 9.30008C32.2737 9.10966 32.1278 8.94267 31.9538 8.80862C31.7799 8.67458 31.5812 8.57612 31.3692 8.51885C31.1571 8.46159 30.9359 8.44665 30.7181 8.47489C30.5003 8.50312 30.2902 8.57398 30.0998 8.68341L26.4998 10.7834L26.9998 8.93341C27.0653 8.71956 27.0872 8.49469 27.064 8.27222C27.0408 8.04975 26.9731 7.83421 26.8649 7.63846C26.7566 7.44271 26.6101 7.27075 26.434 7.13282C26.2579 6.9949 26.0559 6.89383 25.8399 6.83564C25.6239 6.77745 25.3984 6.76333 25.1769 6.79412C24.9553 6.82491 24.7423 6.89998 24.5503 7.01485C24.3584 7.12973 24.1916 7.28207 24.0598 7.46279C23.928 7.6435 23.8339 7.8489 23.7831 8.06675L22.4165 13.0667L18.1665 15.6167V10.4001L21.6164 6.95008C21.9269 6.63781 22.1011 6.21539 22.1011 5.77508C22.1011 5.33477 21.9269 4.91235 21.6164 4.60008C21.4615 4.44387 21.2772 4.31988 21.0741 4.23526C20.871 4.15065 20.6531 4.10708 20.4331 4.10708C20.2131 4.10708 19.9953 4.15065 19.7922 4.23526C19.5891 4.31988 19.4047 4.44387 19.2498 4.60008L18.1665 5.68341V1.83341C18.1665 1.39139 17.9909 0.967464 17.6783 0.654903C17.3657 0.342343 16.9418 0.166748 16.4998 0.166748C16.0578 0.166748 15.6338 0.342343 15.3213 0.654903C15.0087 0.967464 14.8331 1.39139 14.8331 1.83341V5.95008L13.4831 4.60008C13.3282 4.44387 13.1438 4.31988 12.9407 4.23526C12.7376 4.15065 12.5198 4.10708 12.2998 4.10708C12.0798 4.10708 11.8619 4.15065 11.6588 4.23526C11.4557 4.31988 11.2714 4.44387 11.1165 4.60008C10.806 4.91235 10.6318 5.33477 10.6318 5.77508C10.6318 6.21539 10.806 6.63781 11.1165 6.95008L14.8331 10.6667V15.6667L10.5498 13.1334L9.18312 8.13341C9.13236 7.91557 9.03828 7.71017 8.90647 7.52945C8.77466 7.34874 8.60782 7.1964 8.4159 7.08152C8.22397 6.96664 8.01089 6.89157 7.78934 6.86078C7.56779 6.82999 7.34231 6.84411 7.12633 6.90231C6.91036 6.9605 6.7083 7.06156 6.53221 7.19949C6.35612 7.33742 6.20959 7.50938 6.10136 7.70513C5.99312 7.90088 5.9254 8.11641 5.90223 8.33889C5.87905 8.56136 5.90089 8.78623 5.96645 9.00008L6.49978 10.7834L2.89978 8.71675C2.70937 8.60731 2.49926 8.53646 2.28146 8.50822C2.06366 8.47998 1.84243 8.49492 1.6304 8.55219C1.41837 8.60945 1.2197 8.70791 1.04573 8.84196C0.871753 8.976 0.725885 9.143 0.61645 9.33341C0.507015 9.52383 0.436157 9.73394 0.407922 9.95174C0.379686 10.1695 0.394626 10.3908 0.451889 10.6028C0.567537 11.031 0.848552 11.3957 1.23312 11.6167L4.56645 13.5001L3.16645 13.9334C2.72442 13.9909 2.32333 14.2216 2.0514 14.5748C1.77947 14.928 1.65899 15.3747 1.71645 15.8167C1.77391 16.2588 2.00462 16.6599 2.35781 16.9318C2.711 17.2037 3.15776 17.3242 3.59978 17.2667H4.03312L8.73312 16.0001L13.1665 18.5001L8.64978 21.1167L3.94978 19.8501C3.72925 19.7682 3.49389 19.7339 3.25916 19.7495C3.02443 19.7651 2.79567 19.8302 2.5879 19.9405C2.38014 20.0509 2.19809 20.2039 2.05372 20.3897C1.90935 20.5754 1.80594 20.7896 1.75028 21.0182C1.69462 21.2467 1.68797 21.4845 1.73078 21.7158C1.77359 21.9471 1.86488 22.1667 1.99865 22.3603C2.13242 22.5538 2.30564 22.7168 2.50691 22.8385C2.70819 22.9603 2.93296 23.0381 3.16645 23.0667L4.64978 23.4667L1.31645 25.3834C0.931886 25.6044 0.65087 25.9692 0.535223 26.3974C0.419575 26.8256 0.478769 27.2822 0.699783 27.6667C0.920797 28.0513 1.28553 28.3323 1.71373 28.448C2.14194 28.5636 2.59855 28.5044 2.98312 28.2834L6.49978 26.2167L5.99978 28.0667C5.93372 28.2801 5.9112 28.5045 5.93358 28.7267C5.95595 28.949 6.02276 29.1644 6.13003 29.3603C6.2373 29.5562 6.38285 29.7285 6.55803 29.8671C6.73321 30.0056 6.93444 30.1075 7.14978 30.1667C7.29376 30.1831 7.43914 30.1831 7.58312 30.1667C7.95939 30.1796 8.32894 30.0647 8.63158 29.8408C8.93422 29.6168 9.15212 29.297 9.24978 28.9334L10.6165 23.9334L14.8331 21.3834V26.6001L11.3831 30.0501C11.0727 30.3624 10.8985 30.7848 10.8985 31.2251C10.8985 31.6654 11.0727 32.0878 11.3831 32.4001C11.5375 32.5576 11.7215 32.6828 11.9247 32.7687C12.1278 32.8545 12.3459 32.8992 12.5665 32.9001C12.787 32.8992 13.0051 32.8545 13.2082 32.7687C13.4114 32.6828 13.5954 32.5576 13.7498 32.4001L14.8331 31.3167V35.1667C14.8331 35.6088 15.0087 36.0327 15.3213 36.3453C15.6338 36.6578 16.0578 36.8334 16.4998 36.8334C16.9418 36.8334 17.3657 36.6578 17.6783 36.3453C17.9909 36.0327 18.1665 35.6088 18.1665 35.1667V31.0501L19.5165 32.4001C19.6714 32.5563 19.8557 32.6803 20.0588 32.7649C20.2619 32.8495 20.4798 32.8931 20.6998 32.8931C20.9198 32.8931 21.1376 32.8495 21.3407 32.7649C21.5438 32.6803 21.7282 32.5563 21.8831 32.4001C22.1935 32.0878 22.3678 31.6654 22.3678 31.2251C22.3678 30.7848 22.1935 30.3624 21.8831 30.0501L18.1665 26.3334V21.3334L22.4498 23.8167L23.8164 28.8167C23.9141 29.1803 24.132 29.5002 24.4347 29.7241C24.7373 29.9481 25.1068 30.063 25.4831 30.0501C25.6271 30.0665 25.7725 30.0665 25.9164 30.0501C26.1292 29.994 26.3288 29.8963 26.5037 29.7627C26.6786 29.6291 26.8252 29.4622 26.9352 29.2716C27.0453 29.081 27.1164 28.8706 27.1447 28.6523C27.1729 28.4341 27.1577 28.2124 27.0998 28.0001L26.4998 26.2167L30.0665 28.2834C30.2569 28.3928 30.467 28.4637 30.6848 28.4919C30.9026 28.5202 31.1238 28.5052 31.3358 28.448C31.5479 28.3907 31.7465 28.2922 31.9205 28.1582C32.0945 28.0242 32.2404 27.8572 32.3498 27.6667C32.4592 27.4763 32.5301 27.2662 32.5583 27.0484C32.5865 26.8306 32.5716 26.6094 32.5143 26.3974C32.4571 26.1853 32.3586 25.9867 32.2246 25.8127C32.0905 25.6387 31.9235 25.4928 31.7331 25.3834H31.7665Z" fill="white"/>
</svg>
