<svg width="34" height="28" viewBox="0 0 34 28" fill="none" xmlns="http://www.w3.org/2000/svg">
<path d="M21.1666 20.5333H19.8832L20.5332 19.4166C20.7542 19.032 20.8134 18.5754 20.6978 18.1472C20.5821 17.719 20.3011 17.3543 19.9166 17.1333C19.532 16.9122 19.0754 16.853 18.6472 16.9687C18.219 17.0843 17.8542 17.3654 17.6332 17.7499L16.9999 18.8666L16.3666 17.7499C16.1455 17.3654 15.7808 17.0843 15.3526 16.9687C14.9244 16.853 14.4678 16.9122 14.0832 17.1333C13.6987 17.3543 13.4176 17.719 13.302 18.1472C13.1863 18.5754 13.2455 19.032 13.4666 19.4166L14.1166 20.5333H12.8332C12.3912 20.5333 11.9673 20.7088 11.6547 21.0214C11.3421 21.334 11.1666 21.7579 11.1666 22.1999C11.1666 22.6419 11.3421 23.0659 11.6547 23.3784C11.9673 23.691 12.3912 23.8666 12.8332 23.8666H14.1166L13.4666 24.9666C13.2455 25.3511 13.1863 25.8078 13.302 26.236C13.4176 26.6642 13.6987 27.0289 14.0832 27.2499C14.4678 27.4709 14.9244 27.5301 15.3526 27.4145C15.7808 27.2988 16.1455 27.0178 16.3666 26.6333L16.9999 25.5333L17.6332 26.6333C17.8542 27.0178 18.219 27.2988 18.6472 27.4145C19.0754 27.5301 19.532 27.4709 19.9166 27.2499C20.3011 27.0289 20.5821 26.6642 20.6978 26.236C20.8134 25.8078 20.7542 25.3511 20.5332 24.9666L19.8832 23.8666H21.1666C21.6086 23.8666 22.0325 23.691 22.3451 23.3784C22.6576 23.0659 22.8332 22.6419 22.8332 22.1999C22.8332 21.7579 22.6576 21.334 22.3451 21.0214C22.0325 20.7088 21.6086 20.5333 21.1666 20.5333ZM27.6999 7.54992C26.6838 5.21056 24.9292 3.26861 22.7045 2.02131C20.4798 0.774017 17.9076 0.290108 15.3818 0.643654C12.8559 0.9972 10.5155 2.16872 8.71873 3.97889C6.92199 5.78907 5.76794 8.13816 5.43322 10.6666C3.97054 11.0202 2.67051 11.8582 1.74455 13.0444C0.818597 14.2306 0.321187 15.6952 0.333221 17.1999C0.339191 18.773 0.901221 20.2932 1.91993 21.4919C2.93863 22.6906 4.34838 23.4904 5.89989 23.7499H6.16655C6.60858 23.7853 7.04655 23.6436 7.38412 23.356C7.72168 23.0685 7.93119 22.6586 7.96655 22.2166C8.00192 21.7746 7.86024 21.3366 7.57268 20.999C7.28512 20.6615 6.87525 20.4519 6.43322 20.4166C5.65058 20.2817 4.94182 19.8717 4.4346 19.2606C3.92737 18.6495 3.65501 17.8774 3.66655 17.0833C3.66655 16.1992 4.01774 15.3514 4.64287 14.7262C5.26799 14.1011 6.11583 13.7499 6.99989 13.7499C7.44192 13.7499 7.86584 13.5743 8.1784 13.2618C8.49096 12.9492 8.66655 12.5253 8.66655 12.0833C8.67081 10.1121 9.3737 8.20618 10.6503 6.70423C11.927 5.20228 13.6947 4.20151 15.6395 3.87971C17.5842 3.55791 19.5801 3.93593 21.2725 4.9466C22.9649 5.95727 24.2442 7.53515 24.8832 9.39992C24.981 9.68321 25.1533 9.9349 25.3821 10.1285C25.6109 10.3221 25.8877 10.4504 26.1832 10.4999C27.2444 10.6927 28.2149 11.2234 28.9497 12.0129C29.6845 12.8024 30.1444 13.8084 30.2606 14.8806C30.3768 15.9529 30.1432 17.034 29.5946 17.9627C29.046 18.8913 28.2118 19.6176 27.2166 20.0333C26.9954 20.1002 26.7907 20.2124 26.6152 20.3626C26.4398 20.5129 26.2975 20.698 26.1974 20.9062C26.0973 21.1144 26.0415 21.3412 26.0337 21.5721C26.0259 21.8029 26.0662 22.0329 26.152 22.2474C26.2378 22.4619 26.3672 22.6562 26.5321 22.818C26.697 22.9798 26.8937 23.1056 27.1098 23.1873C27.3259 23.269 27.5566 23.305 27.7873 23.2928C28.018 23.2806 28.2436 23.2206 28.4499 23.1166C30.041 22.4629 31.3908 21.3328 32.3142 19.8815C33.2375 18.4301 33.6891 16.7286 33.6069 15.0104C33.5247 13.2922 32.9129 11.6415 31.8552 10.2849C30.7976 8.92824 29.3461 7.93213 27.6999 7.43325V7.54992Z" fill="white"/>
</svg>
