<svg width="18" height="12" viewBox="0 0 18 12" fill="none" xmlns="http://www.w3.org/2000/svg">
<path d="M16.3389 11.334H15.3389C15.0737 11.334 14.8193 11.2286 14.6318 11.0411C14.4442 10.8536 14.3389 10.5992 14.3389 10.334V1.66699C14.3389 1.40178 14.4442 1.14742 14.6318 0.959885C14.8193 0.772349 15.0737 0.666992 15.3389 0.666992L16.3389 0.666992C16.6041 0.666992 16.8584 0.772349 17.046 0.959885C17.2335 1.14742 17.3389 1.40178 17.3389 1.66699V10.334C17.3389 10.5992 17.2335 10.8536 17.046 11.0411C16.8584 11.2286 16.6041 11.334 16.3389 11.334ZM11.6719 11.334H10.6719C10.4067 11.334 10.1523 11.2286 9.96476 11.0411C9.77722 10.8536 9.67187 10.5992 9.67187 10.334V4.00099C9.67187 3.73578 9.77722 3.48142 9.96476 3.29389C10.1523 3.10635 10.4067 3.00099 10.6719 3.00099H11.6719C11.9371 3.00099 12.1914 3.10635 12.379 3.29389C12.5665 3.48142 12.6719 3.73578 12.6719 4.00099V10.334C12.6719 10.599 12.5666 10.8532 12.3793 11.0407C12.192 11.2283 11.9379 11.3337 11.6729 11.334H11.6719ZM7.00487 11.334H6.00487C5.73965 11.334 5.4853 11.2286 5.29776 11.0411C5.11022 10.8536 5.00487 10.5992 5.00487 10.334V6.33399C5.00487 6.06878 5.11022 5.81442 5.29776 5.62689C5.4853 5.43935 5.73965 5.33399 6.00487 5.33399H7.00487C7.27008 5.33399 7.52444 5.43935 7.71197 5.62689C7.89951 5.81442 8.00487 6.06878 8.00487 6.33399V10.334C8.00487 10.5992 7.89951 10.8536 7.71197 11.0411C7.52444 11.2286 7.27008 11.334 7.00487 11.334ZM2.33887 11.334H1.33887C1.07365 11.334 0.819297 11.2286 0.63176 11.0411C0.444224 10.8536 0.338867 10.5992 0.338867 10.334V8.33399C0.338867 8.06878 0.444224 7.81442 0.63176 7.62689C0.819297 7.43935 1.07365 7.33399 1.33887 7.33399H2.33887C2.60408 7.33399 2.85844 7.43935 3.04597 7.62689C3.23351 7.81442 3.33887 8.06878 3.33887 8.33399V10.334C3.33887 10.5992 3.23351 10.8536 3.04597 11.0411C2.85844 11.2286 2.60408 11.334 2.33887 11.334Z" fill="white"/>
</svg>
