<svg width="16" height="12" viewBox="0 0 16 12" fill="none" xmlns="http://www.w3.org/2000/svg">
<path d="M8.00609 11.3311C7.96478 11.331 7.92392 11.3227 7.88582 11.3067C7.84773 11.2908 7.81315 11.2674 7.78409 11.2381L5.77809 9.2161C5.74728 9.1862 5.72301 9.15023 5.70683 9.11047C5.69065 9.07071 5.68291 9.02802 5.68409 8.9851C5.68458 8.94248 5.6937 8.90039 5.71088 8.86138C5.72807 8.82237 5.75297 8.78724 5.78409 8.7581C6.40443 8.23385 7.19039 7.94621 8.00259 7.94621C8.81479 7.94621 9.60074 8.23385 10.2211 8.7581C10.2528 8.78693 10.2784 8.82193 10.2961 8.86098C10.3139 8.90002 10.3235 8.94228 10.3243 8.98516C10.3252 9.02804 10.3172 9.07064 10.301 9.11035C10.2848 9.15007 10.2607 9.18605 10.2301 9.2161L8.22809 11.2381C8.19902 11.2674 8.16444 11.2908 8.12635 11.3067C8.08826 11.3227 8.04739 11.331 8.00609 11.3311ZM11.5291 7.7821C11.4491 7.78197 11.3721 7.7512 11.3141 7.6961C10.408 6.87647 9.22985 6.42262 8.00809 6.42262C6.78633 6.42262 5.60812 6.87647 4.70209 7.6961C4.64405 7.7512 4.56711 7.78197 4.48709 7.7821C4.44621 7.78229 4.40571 7.77434 4.36794 7.75872C4.33017 7.74309 4.29588 7.72011 4.26709 7.6911L3.10709 6.5201C3.07649 6.49012 3.05218 6.45433 3.03558 6.41484C3.01899 6.37535 3.01044 6.33294 3.01044 6.2901C3.01044 6.24726 3.01899 6.20485 3.03558 6.16536C3.05218 6.12587 3.07649 6.09008 3.10709 6.0601C4.43755 4.82388 6.18644 4.13678 8.00259 4.13678C9.81873 4.13678 11.5676 4.82388 12.8981 6.0601C12.9292 6.08983 12.9541 6.1255 12.9713 6.165C12.9885 6.2045 12.9976 6.24703 12.9981 6.2901C12.9985 6.33285 12.9903 6.37523 12.9739 6.41475C12.9576 6.45426 12.9335 6.49008 12.9031 6.5201L11.7481 7.6911C11.7194 7.71994 11.6852 7.74283 11.6477 7.75845C11.6101 7.77406 11.5698 7.7821 11.5291 7.7821ZM14.1981 5.0891C14.1582 5.08946 14.1186 5.08187 14.0817 5.06676C14.0448 5.05165 14.0113 5.02933 13.9831 5.0011C12.37 3.46908 10.2303 2.6149 8.00559 2.6149C5.78092 2.6149 3.64118 3.46908 2.02809 5.0011C1.99956 5.02973 1.96567 5.05245 1.92834 5.06795C1.89102 5.08346 1.851 5.09144 1.81059 5.09144C1.77017 5.09144 1.73015 5.08346 1.69283 5.06795C1.65551 5.05245 1.62161 5.02973 1.59309 5.0011L0.433088 3.8311C0.403063 3.8011 0.379245 3.76548 0.362994 3.72627C0.346743 3.68707 0.338379 3.64504 0.338379 3.6026C0.338379 3.56016 0.346743 3.51813 0.362994 3.47892C0.379245 3.43972 0.403063 3.4041 0.433088 3.3741C2.47079 1.42351 5.18276 0.334717 8.00359 0.334717C10.8244 0.334717 13.5364 1.42351 15.5741 3.3741C15.6041 3.4041 15.6279 3.43972 15.6442 3.47892C15.6604 3.51813 15.6688 3.56016 15.6688 3.6026C15.6688 3.64504 15.6604 3.68707 15.6442 3.72627C15.6279 3.76548 15.6041 3.8011 15.5741 3.8311L14.4131 5.0011C14.3558 5.05755 14.2785 5.08917 14.1981 5.0891Z" fill="white"/>
</svg>
