<svg width="31" height="31" viewBox="0 0 31 31" fill="none" xmlns="http://www.w3.org/2000/svg">
<rect width="31" height="31" rx="3" fill="#FF8300"/>
<path d="M26.5625 22.5H24.125V20.0625C24.125 19.847 24.0394 19.6403 23.887 19.488C23.7347 19.3356 23.528 19.25 23.3125 19.25C23.097 19.25 22.8903 19.3356 22.738 19.488C22.5856 19.6403 22.5 19.847 22.5 20.0625V22.5H20.0625C19.847 22.5 19.6403 22.5856 19.488 22.738C19.3356 22.8903 19.25 23.097 19.25 23.3125C19.25 23.528 19.3356 23.7347 19.488 23.887C19.6403 24.0394 19.847 24.125 20.0625 24.125H22.5V26.5625C22.5 26.778 22.5856 26.9847 22.738 27.137C22.8903 27.2894 23.097 27.375 23.3125 27.375C23.528 27.375 23.7347 27.2894 23.887 27.137C24.0394 26.9847 24.125 26.778 24.125 26.5625V24.125H26.5625C26.778 24.125 26.9847 24.0394 27.137 23.887C27.2894 23.7347 27.375 23.528 27.375 23.3125C27.375 23.097 27.2894 22.8903 27.137 22.738C26.9847 22.5856 26.778 22.5 26.5625 22.5Z" fill="white"/>
<path d="M16.8125 22.5H7.0625C6.84701 22.5 6.64035 22.4144 6.48798 22.262C6.3356 22.1097 6.25 21.903 6.25 21.6875V7.0625C6.25 6.84701 6.3356 6.64035 6.48798 6.48798C6.64035 6.3356 6.84701 6.25 7.0625 6.25H21.6875C21.903 6.25 22.1097 6.3356 22.262 6.48798C22.4144 6.64035 22.5 6.84701 22.5 7.0625V16.8125C22.5 17.028 22.5856 17.2347 22.738 17.387C22.8903 17.5394 23.097 17.625 23.3125 17.625C23.528 17.625 23.7347 17.5394 23.887 17.387C24.0394 17.2347 24.125 17.028 24.125 16.8125V7.0625C24.125 6.41603 23.8682 5.79605 23.4111 5.33893C22.954 4.88181 22.334 4.625 21.6875 4.625H7.0625C6.41603 4.625 5.79605 4.88181 5.33893 5.33893C4.88181 5.79605 4.625 6.41603 4.625 7.0625V21.6875C4.625 22.334 4.88181 22.954 5.33893 23.4111C5.79605 23.8682 6.41603 24.125 7.0625 24.125H16.8125C17.028 24.125 17.2347 24.0394 17.387 23.887C17.5394 23.7347 17.625 23.528 17.625 23.3125C17.625 23.097 17.5394 22.8903 17.387 22.738C17.2347 22.5856 17.028 22.5 16.8125 22.5Z" fill="white"/>
<path d="M11.9375 11.9375C13.0593 11.9375 13.9688 11.0281 13.9688 9.90625C13.9688 8.78442 13.0593 7.875 11.9375 7.875C10.8157 7.875 9.90625 8.78442 9.90625 9.90625C9.90625 11.0281 10.8157 11.9375 11.9375 11.9375Z" fill="white"/>
<path d="M8.92313 14.6106L7.875 15.6668V20.875H20.875V15.6668L17.3894 12.1731C17.3138 12.0969 17.224 12.0365 17.125 11.9952C17.026 11.954 16.9198 11.9327 16.8125 11.9327C16.7052 11.9327 16.599 11.954 16.5 11.9952C16.401 12.0365 16.3112 12.0969 16.2356 12.1731L11.9375 16.4793L10.0769 14.6106C10.0013 14.5344 9.91148 14.474 9.81247 14.4327C9.71346 14.3915 9.60726 14.3702 9.5 14.3702C9.39274 14.3702 9.28654 14.3915 9.18753 14.4327C9.08852 14.474 8.99866 14.5344 8.92313 14.6106Z" fill="white"/>
</svg>
