<svg width="14" height="14" viewBox="0 0 14 14" fill="none" xmlns="http://www.w3.org/2000/svg">
<path d="M4.21379 6.29972C4.07554 6.29972 3.94039 6.34077 3.82544 6.41769C3.71049 6.4946 3.62089 6.60392 3.56799 6.73182C3.51508 6.85973 3.50124 7.00047 3.52821 7.13625C3.55518 7.27203 3.62175 7.39675 3.71951 7.49464C3.81727 7.59254 3.94183 7.6592 4.07742 7.68621C4.21302 7.71322 4.35357 7.69936 4.48129 7.64638C4.60902 7.5934 4.71819 7.50368 4.795 7.38857C4.87181 7.27346 4.91281 7.13813 4.91281 6.99969C4.91281 6.81405 4.83916 6.63601 4.70807 6.50474C4.57698 6.37347 4.39918 6.29972 4.21379 6.29972ZM7.00985 6.29972C6.8716 6.29972 6.73645 6.34077 6.6215 6.41769C6.50655 6.4946 6.41695 6.60392 6.36405 6.73182C6.31114 6.85973 6.2973 7.00047 6.32427 7.13625C6.35124 7.27203 6.41781 7.39675 6.51557 7.49464C6.61333 7.59254 6.73788 7.6592 6.87348 7.68621C7.00908 7.71322 7.14962 7.69936 7.27735 7.64638C7.40508 7.5934 7.51425 7.50368 7.59106 7.38857C7.66787 7.27346 7.70887 7.13813 7.70887 6.99969C7.70887 6.81405 7.63522 6.63601 7.50413 6.50474C7.37304 6.37347 7.19524 6.29972 7.00985 6.29972ZM9.80591 6.29972C9.66766 6.29972 9.53251 6.34077 9.41756 6.41769C9.30261 6.4946 9.21301 6.60392 9.1601 6.73182C9.1072 6.85973 9.09336 7.00047 9.12033 7.13625C9.1473 7.27203 9.21387 7.39675 9.31163 7.49464C9.40939 7.59254 9.53394 7.6592 9.66954 7.68621C9.80514 7.71322 9.94568 7.69936 10.0734 7.64638C10.2011 7.5934 10.3103 7.50368 10.3871 7.38857C10.4639 7.27346 10.5049 7.13813 10.5049 6.99969C10.5049 6.81405 10.4313 6.63601 10.3002 6.50474C10.1691 6.37347 9.9913 6.29972 9.80591 6.29972ZM7.00985 0C6.09189 0 5.18292 0.181052 4.33484 0.53282C3.48675 0.884587 2.71617 1.40018 2.06707 2.05016C0.756163 3.36286 0.0197027 5.14326 0.0197027 6.99969C0.0135918 8.61601 0.572478 10.1835 1.59948 11.4305L0.201447 12.8304C0.104453 12.9289 0.0387481 13.0539 0.0126231 13.1896C-0.013502 13.3254 0.00112324 13.4659 0.0546534 13.5934C0.112712 13.7193 0.206832 13.8252 0.325065 13.8975C0.443298 13.9697 0.580313 14.0052 0.718718 13.9994H7.00985C8.86375 13.9994 10.6417 13.2619 11.9526 11.9492C13.2635 10.6365 14 8.85612 14 6.99969C14 5.14326 13.2635 3.36286 11.9526 2.05016C10.6417 0.737465 8.86375 0 7.00985 0ZM7.00985 12.5994H2.40334L3.05343 11.9485C3.11948 11.8836 3.17202 11.8063 3.20802 11.721C3.24401 11.6357 3.26275 11.5441 3.26313 11.4515C3.26051 11.2669 3.18513 11.0908 3.05343 10.9615C2.13813 10.046 1.56814 8.84099 1.44058 7.55182C1.31303 6.26266 1.63578 4.96908 2.35387 3.89149C3.07196 2.8139 4.14095 2.01896 5.37871 1.64211C6.61647 1.26526 7.94643 1.3298 9.142 1.82476C10.3376 2.31971 11.3248 3.21445 11.9354 4.35653C12.5461 5.49861 12.7424 6.81738 12.4909 8.08815C12.2395 9.35892 11.5558 10.5031 10.5563 11.3257C9.5569 12.1483 8.30356 12.5984 7.00985 12.5994Z" fill="#FF8300"/>
</svg>
