<svg width="23" height="23" viewBox="0 0 23 23" fill="none" xmlns="http://www.w3.org/2000/svg">
<path d="M21.3774 5.79519H18.8012V1.58895C18.8012 1.20482 18.4898 0.893555 18.1058 0.893555H4.89422C4.51017 0.893555 4.19882 1.20482 4.19882 1.58895V5.79519H1.6226C0.727944 5.79519 0 6.52304 0 7.41779V16.3398C0 17.2344 0.727944 17.9624 1.6226 17.9624H4.19882V21.4118C4.19882 21.7959 4.51017 22.1072 4.89422 22.1072H18.1057C18.4897 22.1072 18.8011 21.7959 18.8011 21.4118V17.9624H21.3773C22.272 17.9624 22.9999 17.2344 22.9999 16.3398V7.41779C23 6.52313 22.2721 5.79519 21.3774 5.79519ZM5.58962 2.28435H17.4103V5.79519H5.58962V2.28435ZM17.4103 20.7164H5.58962V13.8177H17.4103V20.7164ZM21.6092 16.3398C21.6092 16.4654 21.503 16.5716 21.3774 16.5716H18.8012V13.1223C18.8012 12.7381 18.4898 12.4269 18.1058 12.4269H4.89422C4.51017 12.4269 4.19882 12.7381 4.19882 13.1223V16.5716H1.6226C1.49696 16.5716 1.3908 16.4654 1.3908 16.3398V7.41779C1.3908 7.29206 1.49696 7.18599 1.6226 7.18599H4.89422H18.1057H21.3773C21.5029 7.18599 21.6091 7.29206 21.6091 7.41779V16.3398H21.6092Z" fill="#012CDB"/>
<path d="M18.1058 10.7957C18.6521 10.7957 19.095 10.3528 19.095 9.80652C19.095 9.26023 18.6521 8.81738 18.1058 8.81738C17.5596 8.81738 17.1167 9.26023 17.1167 9.80652C17.1167 10.3528 17.5596 10.7957 18.1058 10.7957Z" fill="#012CDB"/>
<path d="M14.6636 15.1904H8.33602C7.95198 15.1904 7.64062 15.5017 7.64062 15.8858C7.64062 16.27 7.95198 16.5812 8.33602 16.5812H14.6636C15.0476 16.5812 15.359 16.27 15.359 15.8858C15.359 15.5018 15.0477 15.1904 14.6636 15.1904Z" fill="#012CDB"/>
<path d="M14.6636 17.9531H8.33602C7.95198 17.9531 7.64062 18.2644 7.64062 18.6485C7.64062 19.0327 7.95198 19.3439 8.33602 19.3439H14.6636C15.0476 19.3439 15.359 19.0327 15.359 18.6485C15.359 18.2644 15.0477 17.9531 14.6636 17.9531Z" fill="#012CDB"/>
</svg>
