<svg width="20" height="20" viewBox="0 0 20 20" fill="none" xmlns="http://www.w3.org/2000/svg">
<path fill-rule="evenodd" clip-rule="evenodd" d="M10 0C4.47715 0 0 4.47715 0 10C0 15.5228 4.47715 20 10 20C15.5228 20 20 15.5228 20 10C20 4.47715 15.5228 0 10 0ZM9.15413 14C8.85958 14 8.6208 13.7612 8.6208 13.4667V11.3792H6.53333C6.23878 11.3792 6 11.1404 6 10.8459V9.15413C6 8.85958 6.23878 8.6208 6.53333 8.6208H8.6208V6.53333C8.6208 6.23878 8.85958 6 9.15413 6H10.8459C11.1404 6 11.3792 6.23878 11.3792 6.53333V8.6208H13.4667C13.7612 8.6208 14 8.85958 14 9.15413V10.8459C14 11.1404 13.7612 11.3792 13.4667 11.3792H11.3792V13.4667C11.3792 13.7612 11.1404 14 10.8459 14H9.15413Z" fill="#FF8300"/>
</svg>
