<svg width="21" height="19" viewBox="0 0 21 19" fill="none" xmlns="http://www.w3.org/2000/svg">
<path d="M19.1603 2.49997C18.094 1.44467 16.6856 0.805241 15.1893 0.697052C13.693 0.588863 12.2073 1.01904 11.0003 1.90997C9.72793 0.963607 8.14427 0.534481 6.5682 0.709007C4.99212 0.883534 3.54072 1.64875 2.50625 2.85055C1.47178 4.05236 0.931098 5.60149 0.993077 7.18598C1.05506 8.77048 1.71509 10.2726 2.84028 11.39L8.84028 17.44C9.40278 18.0018 10.1653 18.3173 10.9603 18.3173C11.7553 18.3173 12.5178 18.0018 13.0803 17.44L19.0803 11.39C19.6712 10.8126 20.1422 10.1242 20.4662 9.3642C20.7902 8.60423 20.9609 7.78772 20.9683 6.9616C20.9757 6.13548 20.8198 5.31603 20.5095 4.55035C20.1993 3.78467 19.7407 3.08786 19.1603 2.49997ZM17.7503 9.95997L11.7503 15.96C11.6573 16.0537 11.5467 16.1281 11.4249 16.1789C11.303 16.2296 11.1723 16.2558 11.0403 16.2558C10.9083 16.2558 10.7776 16.2296 10.6557 16.1789C10.5338 16.1281 10.4232 16.0537 10.3303 15.96L4.33028 9.95997C3.54603 9.15831 3.10689 8.08144 3.10689 6.95997C3.10689 5.8385 3.54603 4.76162 4.33028 3.95997C5.12943 3.17096 6.20725 2.72854 7.33028 2.72854C8.4533 2.72854 9.53112 3.17096 10.3303 3.95997C10.4232 4.0537 10.5338 4.12809 10.6557 4.17886C10.7776 4.22963 10.9083 4.25577 11.0403 4.25577C11.1723 4.25577 11.303 4.22963 11.4249 4.17886C11.5467 4.12809 11.6573 4.0537 11.7503 3.95997C12.571 3.30686 13.6035 2.97869 14.6507 3.03806C15.6979 3.09743 16.6867 3.54018 17.4284 4.28187C18.1701 5.02356 18.6128 6.0123 18.6722 7.05953C18.7316 8.10676 18.4034 9.1392 17.7503 9.95997Z" fill="#FF8300"/>
</svg>
