<svg width="14" height="15" viewBox="0 0 14 15" fill="none" xmlns="http://www.w3.org/2000/svg">
<path d="M13.2002 6.22068C13.0128 5.99578 12.7784 5.81474 12.5135 5.69033C12.2485 5.56592 11.9595 5.50118 11.6668 5.50068H8.62683L9.00016 4.54735C9.15545 4.12994 9.20717 3.68108 9.15087 3.23929C9.09458 2.7975 8.93196 2.37596 8.67695 2.01083C8.42195 1.6457 8.08218 1.34788 7.68679 1.14291C7.2914 0.937941 6.85219 0.831945 6.40683 0.834014C6.27859 0.834282 6.15315 0.871531 6.04554 0.941296C5.93794 1.01106 5.85274 1.11038 5.80016 1.22735L3.90016 5.50068H2.3335C1.80306 5.50068 1.29436 5.71139 0.919283 6.08647C0.54421 6.46154 0.333496 6.97025 0.333496 7.50068V12.1673C0.333496 12.6978 0.54421 13.2065 0.919283 13.5816C1.29436 13.9566 1.80306 14.1673 2.3335 14.1673H10.8202C11.288 14.1672 11.741 14.003 12.1004 13.7034C12.4597 13.4037 12.7026 12.9876 12.7868 12.5273L13.6335 7.86068C13.6859 7.57227 13.6742 7.27587 13.5993 6.99246C13.5244 6.70906 13.3882 6.44558 13.2002 6.22068ZM3.66683 12.834H2.3335C2.15669 12.834 1.98712 12.7638 1.86209 12.6388C1.73707 12.5137 1.66683 12.3442 1.66683 12.1673V7.50068C1.66683 7.32387 1.73707 7.1543 1.86209 7.02928C1.98712 6.90425 2.15669 6.83401 2.3335 6.83401H3.66683V12.834ZM12.3335 7.62068L11.4868 12.2873C11.4584 12.4427 11.3758 12.5828 11.2538 12.6829C11.1317 12.7831 10.978 12.8366 10.8202 12.834H5.00016V6.30735L6.8135 2.22735C7.00015 2.28176 7.1735 2.37429 7.3226 2.49907C7.4717 2.62385 7.59331 2.77819 7.67976 2.95234C7.76621 3.12649 7.81562 3.31667 7.82487 3.51088C7.83412 3.70509 7.803 3.8991 7.7335 4.08068L7.38016 5.03401C7.30487 5.23552 7.27946 5.45225 7.30608 5.6657C7.3327 5.87916 7.41058 6.083 7.53305 6.25984C7.65553 6.43668 7.81897 6.58126 8.00943 6.68124C8.1999 6.78122 8.41172 6.83364 8.62683 6.83401H11.6668C11.7648 6.83385 11.8615 6.85528 11.9503 6.89676C12.039 6.93824 12.1175 6.99876 12.1802 7.07401C12.2444 7.14823 12.2914 7.23571 12.3179 7.33021C12.3444 7.42471 12.3498 7.52389 12.3335 7.62068Z" fill="#012CDB"/>
</svg>
