<svg width="14" height="14" viewBox="0 0 14 14" fill="none" xmlns="http://www.w3.org/2000/svg">
<path d="M7.00016 3.66732C6.82335 3.66732 6.65378 3.73756 6.52876 3.86258C6.40373 3.9876 6.3335 4.15717 6.3335 4.33398V7.00065C6.3335 7.17746 6.40373 7.34703 6.52876 7.47206C6.65378 7.59708 6.82335 7.66732 7.00016 7.66732C7.17697 7.66732 7.34654 7.59708 7.47157 7.47206C7.59659 7.34703 7.66683 7.17746 7.66683 7.00065V4.33398C7.66683 4.15717 7.59659 3.9876 7.47157 3.86258C7.34654 3.73756 7.17697 3.66732 7.00016 3.66732ZM7.00016 9.00065C6.86831 9.00065 6.73942 9.03975 6.62978 9.113C6.52015 9.18626 6.4347 9.29038 6.38424 9.4122C6.33378 9.53401 6.32058 9.66806 6.34631 9.79738C6.37203 9.9267 6.43552 10.0455 6.52876 10.1387C6.62199 10.232 6.74078 10.2955 6.8701 10.3212C6.99942 10.3469 7.13347 10.3337 7.25529 10.2832C7.3771 10.2328 7.48122 10.1473 7.55448 10.0377C7.62773 9.92807 7.66683 9.79917 7.66683 9.66732C7.66683 9.49051 7.59659 9.32094 7.47157 9.19591C7.34654 9.07089 7.17697 9.00065 7.00016 9.00065ZM13.4735 4.04065L9.96016 0.527318C9.83241 0.405495 9.66334 0.33644 9.48683 0.333984H4.5135C4.33699 0.33644 4.16792 0.405495 4.04016 0.527318L0.526829 4.04065C0.405007 4.16841 0.335952 4.33747 0.333496 4.51398V9.48732C0.335952 9.66383 0.405007 9.8329 0.526829 9.96065L4.04016 13.474C4.16792 13.5958 4.33699 13.6649 4.5135 13.6673H9.48683C9.66334 13.6649 9.83241 13.5958 9.96016 13.474L13.4735 9.96065C13.5953 9.8329 13.6644 9.66383 13.6668 9.48732V4.51398C13.6644 4.33747 13.5953 4.16841 13.4735 4.04065ZM12.3335 9.20732L9.20683 12.334H4.7935L1.66683 9.20732V4.79398L4.7935 1.66732H9.20683L12.3335 4.79398V9.20732Z" fill="#012CDB"/>
</svg>
