<svg width="14" height="16" viewBox="0 0 14 16" fill="none" xmlns="http://www.w3.org/2000/svg">
<path d="M13.5624 0.528886C13.4248 0.331355 13.2397 0.186901 13.0072 0.0952654C12.8591 0.031891 12.704 0.000148158 12.5418 0.000148158V0H1.45906C1.29694 0 1.14193 0.0317428 0.993842 0.0951173C0.761235 0.186679 0.576111 0.331318 0.438658 0.528738C0.301241 0.726158 0.232422 0.944617 0.232422 1.18437V14.8156C0.232422 15.0554 0.301241 15.2738 0.438658 15.4714C0.576111 15.6688 0.761235 15.8134 0.993842 15.9049C1.14178 15.9683 1.29694 16 1.45906 16C1.79052 16 2.08295 15.8836 2.33682 15.6511L7.00046 11.1671L11.6641 15.6512C11.9109 15.8765 12.2035 15.9893 12.5418 15.9893C12.7181 15.9893 12.8732 15.9613 13.0072 15.9049C13.2396 15.8134 13.4248 15.6688 13.5623 15.4711C13.6998 15.2738 13.7684 15.0553 13.7684 14.8156V1.18452C13.7685 0.944765 13.6996 0.726306 13.5624 0.528886ZM12.4149 14.4876L7.94167 10.1941L7.00046 9.29542L6.05932 10.1941L1.58614 14.4876V1.35375H12.4149V14.4876Z" fill="white"/>
</svg>
