<svg width="21" height="21" viewBox="0 0 21 21" fill="none" xmlns="http://www.w3.org/2000/svg">
<path d="M16.9997 12.2159C16.4088 12.2198 15.8262 12.3546 15.2937 12.6105C14.7611 12.8664 14.2919 13.2371 13.9197 13.6959L8.81966 11.3459C9.05945 10.6117 9.05945 9.82019 8.81966 9.08593L13.9197 6.73594C14.5213 7.4619 15.36 7.95201 16.2878 8.11977C17.2156 8.28754 18.1729 8.12216 18.9906 7.65284C19.8084 7.18351 20.434 6.44041 20.7572 5.55468C21.0804 4.66894 21.0803 3.69752 20.757 2.81184C20.4336 1.92617 19.8078 1.18318 18.99 0.714003C18.1722 0.244828 17.2149 0.0796282 16.2871 0.247558C15.3593 0.415489 14.5207 0.905754 13.9192 1.63183C13.3177 2.3579 12.992 3.27311 12.9997 4.21593C13.0027 4.45417 13.0261 4.6917 13.0697 4.92593L7.78966 7.35594C7.22674 6.80551 6.51391 6.43345 5.74047 6.28636C4.96703 6.13927 4.16738 6.2237 3.44171 6.52907C2.71604 6.83443 2.09662 7.34715 1.66106 8.003C1.2255 8.65884 0.993164 9.42863 0.993164 10.2159C0.993164 11.0032 1.2255 11.773 1.66106 12.4289C2.09662 13.0847 2.71604 13.5974 3.44171 13.9028C4.16738 14.2082 4.96703 14.2926 5.74047 14.1455C6.51391 13.9984 7.22674 13.6264 7.78966 13.0759L13.0697 15.5059C13.0261 15.7402 13.0027 15.9777 12.9997 16.2159C12.9997 17.0071 13.2343 17.7804 13.6738 18.4382C14.1133 19.096 14.738 19.6087 15.4689 19.9115C16.1998 20.2142 17.0041 20.2934 17.78 20.1391C18.5559 19.9847 19.2687 19.6038 19.8281 19.0444C20.3875 18.485 20.7685 17.7722 20.9228 16.9963C21.0771 16.2204 20.9979 15.4161 20.6952 14.6852C20.3924 13.9543 19.8797 13.3296 19.2219 12.8901C18.5641 12.4505 17.7908 12.2159 16.9997 12.2159ZM16.9997 2.21593C17.3952 2.21593 17.7819 2.33323 18.1108 2.553C18.4397 2.77276 18.696 3.08512 18.8474 3.45057C18.9988 3.81602 19.0384 4.21815 18.9612 4.60612C18.8841 4.99408 18.6936 5.35044 18.4139 5.63015C18.1342 5.90985 17.7778 6.10034 17.3898 6.17751C17.0019 6.25468 16.5997 6.21507 16.2343 6.06369C15.8688 5.91232 15.5565 5.65597 15.3367 5.32708C15.117 4.99818 14.9997 4.6115 14.9997 4.21593C14.9997 3.6855 15.2104 3.17679 15.5854 2.80172C15.9605 2.42665 16.4692 2.21593 16.9997 2.21593ZM4.99966 12.2159C4.6041 12.2159 4.21742 12.0986 3.88852 11.8789C3.55962 11.6591 3.30328 11.3468 3.1519 10.9813C3.00053 10.6158 2.96092 10.2137 3.03809 9.82575C3.11526 9.43779 3.30574 9.08143 3.58545 8.80172C3.86515 8.52202 4.22152 8.33153 4.60948 8.25436C4.99744 8.17719 5.39958 8.2168 5.76503 8.36818C6.13048 8.51955 6.44284 8.7759 6.6626 9.10479C6.88236 9.43369 6.99966 9.82037 6.99966 10.2159C6.99966 10.7464 6.78895 11.2551 6.41388 11.6301C6.0388 12.0052 5.5301 12.2159 4.99966 12.2159ZM16.9997 18.2159C16.6041 18.2159 16.2174 18.0986 15.8885 17.8789C15.5596 17.6591 15.3033 17.3468 15.1519 16.9813C15.0005 16.6159 14.9609 16.2137 15.0381 15.8258C15.1153 15.4378 15.3057 15.0814 15.5854 14.8017C15.8652 14.522 16.2215 14.3315 16.6095 14.2544C16.9974 14.1772 17.3996 14.2168 17.765 14.3682C18.1305 14.5196 18.4428 14.7759 18.6626 15.1048C18.8824 15.4337 18.9997 15.8204 18.9997 16.2159C18.9997 16.7464 18.7889 17.2551 18.4139 17.6301C18.0388 18.0052 17.5301 18.2159 16.9997 18.2159Z" fill="#012CDB"/>
</svg>
