<svg width="16" height="16" viewBox="0 0 16 16" fill="none" xmlns="http://www.w3.org/2000/svg">
<path d="M15.973 6.17407C15.9235 6.03061 15.8334 5.90459 15.7137 5.81131C15.5939 5.71804 15.4497 5.6615 15.2985 5.64856L10.8355 4.99755L8.83543 0.94246C8.77121 0.809849 8.67093 0.698011 8.54608 0.619757C8.42123 0.541504 8.27686 0.5 8.12952 0.5C7.98217 0.5 7.83781 0.541504 7.71296 0.619757C7.58811 0.698011 7.48783 0.809849 7.4236 0.94246L5.42351 4.98971L0.96056 5.64856C0.815395 5.66919 0.678919 5.7301 0.566621 5.82438C0.454322 5.91865 0.370698 6.04252 0.325237 6.18192C0.283623 6.31814 0.279889 6.46312 0.314434 6.6013C0.34898 6.73949 0.420502 6.86566 0.521324 6.96627L3.76069 10.1037L2.97634 14.5588C2.94834 14.7058 2.963 14.8578 3.01859 14.9968C3.07419 15.1358 3.16839 15.256 3.29008 15.3431C3.40869 15.4279 3.54858 15.478 3.69406 15.4877C3.83953 15.4974 3.98483 15.4663 4.11365 15.398L8.12952 13.3038L12.1297 15.4059C12.2398 15.468 12.3641 15.5004 12.4905 15.5C12.6567 15.5006 12.8187 15.4484 12.9533 15.351C13.075 15.2638 13.1692 15.1436 13.2248 15.0046C13.2804 14.8657 13.295 14.7137 13.267 14.5666L12.4827 10.1115L15.722 6.97411C15.8353 6.87817 15.919 6.75206 15.9634 6.61045C16.0078 6.46883 16.0112 6.31751 15.973 6.17407ZM11.1493 9.31147C11.0573 9.40045 10.9885 9.51057 10.9488 9.63225C10.9092 9.75393 10.8999 9.88346 10.9218 10.0095L11.4865 13.296L8.53738 11.7273C8.4239 11.6668 8.2973 11.6352 8.16874 11.6352C8.04017 11.6352 7.91357 11.6668 7.80009 11.7273L4.85094 13.296L5.41567 10.0095C5.43758 9.88346 5.42831 9.75393 5.38866 9.63225C5.34901 9.51057 5.28019 9.40045 5.18821 9.31147L2.83516 6.95842L6.13727 6.47997C6.26433 6.4623 6.38512 6.41373 6.48905 6.33851C6.59298 6.2633 6.67687 6.16375 6.73338 6.04858L8.12952 3.0602L9.6041 6.05642C9.6606 6.17159 9.7445 6.27115 9.84842 6.34636C9.95235 6.42157 10.0731 6.47014 10.2002 6.48781L13.5023 6.96627L11.1493 9.31147Z" fill="#FF8300"/>
</svg>
