<svg width="26" height="24" viewBox="0 0 26 24" fill="none" xmlns="http://www.w3.org/2000/svg">
<path d="M25.9584 9.07852C25.8791 8.84897 25.735 8.64735 25.5434 8.4981C25.3518 8.34886 25.1211 8.2584 24.8791 8.2377L17.7384 7.19608L14.5383 0.707936C14.4355 0.495758 14.275 0.316817 14.0753 0.191612C13.8755 0.0664062 13.6445 0 13.4088 0C13.173 0 12.9421 0.0664062 12.7423 0.191612C12.5425 0.316817 12.3821 0.495758 12.2793 0.707936L9.07918 7.18353L1.93846 8.2377C1.70619 8.27071 1.48783 8.36817 1.30816 8.51901C1.12848 8.66985 0.994679 8.86803 0.921941 9.09107C0.855359 9.30902 0.849384 9.54099 0.904658 9.76209C0.959931 9.98318 1.07437 10.185 1.23568 10.346L6.41867 15.3659L5.16371 22.494C5.1189 22.7293 5.14236 22.9725 5.23131 23.1949C5.32026 23.4172 5.47099 23.6095 5.66569 23.749C5.85546 23.8847 6.07929 23.9648 6.31205 23.9803C6.54482 23.9958 6.7773 23.9461 6.9834 23.8368L13.4088 20.4861L19.8091 23.8494C19.9852 23.9488 20.1841 24.0007 20.3864 24C20.6522 24.0009 20.9115 23.9174 21.1268 23.7616C21.3215 23.6221 21.4722 23.4298 21.5612 23.2074C21.6501 22.9851 21.6736 22.7419 21.6288 22.5066L20.3738 15.3784L25.5568 10.3586C25.738 10.2051 25.8719 10.0033 25.943 9.77671C26.0141 9.55013 26.0194 9.30802 25.9584 9.07852ZM18.2404 14.0984C18.0932 14.2407 17.9831 14.4169 17.9197 14.6116C17.8562 14.8063 17.8414 15.0135 17.8765 15.2153L18.78 20.4736L14.0614 17.9636C13.8798 17.867 13.6772 17.8164 13.4715 17.8164C13.2658 17.8164 13.0633 17.867 12.8817 17.9636L8.16306 20.4736L9.06663 15.2153C9.10169 15.0135 9.08685 14.8063 9.02342 14.6116C8.95998 14.4169 8.84987 14.2407 8.70269 14.0984L4.93781 10.3335L10.2212 9.56795C10.4245 9.53968 10.6178 9.46196 10.784 9.34162C10.9503 9.22129 11.0846 9.062 11.175 8.87773L13.4088 4.09633L15.7681 8.89028C15.8585 9.07455 15.9928 9.23384 16.159 9.35417C16.3253 9.47451 16.5186 9.55222 16.7219 9.5805L22.0053 10.346L18.2404 14.0984Z" fill="white"/>
</svg>
