<svg width="26" height="24" viewBox="0 0 26 24" fill="none" xmlns="http://www.w3.org/2000/svg">
<path d="M25.4252 9.07852C25.3459 8.84897 25.2018 8.64735 25.0102 8.4981C24.8186 8.34886 24.5879 8.2584 24.3459 8.2377L17.2052 7.19608L14.0051 0.707936C13.9023 0.495758 13.7418 0.316817 13.5421 0.191612C13.3423 0.0664062 13.1113 0 12.8756 0C12.6398 0 12.4089 0.0664062 12.2091 0.191612C12.0093 0.316817 11.8489 0.495758 11.7461 0.707936L8.54598 7.18353L1.40526 8.2377C1.17299 8.27071 0.95463 8.36817 0.774952 8.51901C0.595275 8.66985 0.461475 8.86803 0.388738 9.09107C0.322156 9.30902 0.316181 9.54099 0.371454 9.76209C0.426728 9.98318 0.541163 10.185 0.702478 10.346L5.88546 15.3659L4.6305 22.494C4.5857 22.7293 4.60916 22.9725 4.69811 23.1949C4.78706 23.4172 4.93778 23.6095 5.13249 23.749C5.32226 23.8847 5.54609 23.9648 5.77885 23.9803C6.01161 23.9958 6.24409 23.9461 6.4502 23.8368L12.8756 20.4861L19.2759 23.8494C19.452 23.9488 19.6509 24.0007 19.8532 24C20.119 24.0009 20.3783 23.9174 20.5936 23.7616C20.7883 23.6221 20.939 23.4298 21.028 23.2074C21.1169 22.9851 21.1404 22.7419 21.0956 22.5066L19.8406 15.3784L25.0236 10.3586C25.2048 10.2051 25.3387 10.0033 25.4098 9.77671C25.4809 9.55013 25.4862 9.30802 25.4252 9.07852Z" fill="white"/>
</svg>
