<svg width="16" height="15" viewBox="0 0 16 15" fill="none" xmlns="http://www.w3.org/2000/svg">
<path d="M15.807 5.67407C15.7575 5.53061 15.6674 5.40459 15.5476 5.31131C15.4279 5.21804 15.2837 5.1615 15.1325 5.14856L10.6695 4.49755L8.66942 0.44246C8.60519 0.309849 8.50491 0.198011 8.38006 0.119757C8.25521 0.0415039 8.11085 0 7.9635 0C7.81616 0 7.67179 0.0415039 7.54694 0.119757C7.4221 0.198011 7.32182 0.309849 7.25759 0.44246L5.2575 4.48971L0.794545 5.14856C0.649379 5.16919 0.512903 5.2301 0.400605 5.32438C0.288306 5.41865 0.204682 5.54252 0.159221 5.68192C0.117607 5.81814 0.113873 5.96312 0.148419 6.1013C0.182965 6.23949 0.254486 6.36566 0.355309 6.46627L3.59467 9.60367L2.81032 14.0588C2.78232 14.2058 2.79698 14.3578 2.85258 14.4968C2.90817 14.6358 3.00238 14.756 3.12406 14.8431C3.24267 14.9279 3.38257 14.978 3.52804 14.9877C3.67352 14.9974 3.81882 14.9663 3.94763 14.898L7.9635 12.8038L11.9637 14.9059C12.0738 14.968 12.1981 15.0004 12.3245 15C12.4906 15.0006 12.6527 14.9484 12.7873 14.851C12.9089 14.7638 13.0031 14.6436 13.0587 14.5046C13.1143 14.3657 13.129 14.2137 13.101 14.0666L12.3166 9.61151L15.556 6.47411C15.6693 6.37817 15.753 6.25206 15.7974 6.11045C15.8418 5.96883 15.8451 5.81751 15.807 5.67407Z" fill="#FF8300"/>
</svg>
