<svg width="24" height="24" viewBox="0 0 24 24" fill="none" xmlns="http://www.w3.org/2000/svg">
<path fill-rule="evenodd" clip-rule="evenodd" d="M23.9209 1.35327C24.1319 0.842892 23.8854 0.267562 23.3704 0.0682396C22.8553 -0.131083 22.2667 0.121081 22.0557 0.631463L20.4962 4.40336C19.9948 4.01215 19.3611 3.77423 18.6557 3.77423H3.00235C0.948939 3.77423 -0.497549 5.79077 0.16064 7.73584L2.41922 14.4103C2.83152 15.6287 3.97466 16.4487 5.26093 16.4487H16.3972C17.6834 16.4487 18.8266 15.6287 19.2389 14.4103L21.4974 7.73583C21.6185 7.37807 21.6684 7.01789 21.6563 6.66829C21.7351 6.58277 21.8002 6.48253 21.8468 6.36967L23.9209 1.35327ZM3.00235 5.77423H18.6557C19.3402 5.77423 19.8224 6.44641 19.603 7.09476L17.3444 13.7693C17.207 14.1754 16.8259 14.4487 16.3972 14.4487H5.26093C4.83217 14.4487 4.45113 14.1754 4.31369 13.7693L2.05511 7.09477C1.83572 6.44641 2.31788 5.77423 3.00235 5.77423ZM8.42845 20.3032C8.42845 21.1785 7.67601 22 6.60742 22C5.53883 22 4.78638 21.1785 4.78638 20.3032C4.78638 19.428 5.53883 18.6065 6.60742 18.6065C7.67601 18.6065 8.42845 19.428 8.42845 20.3032ZM10.4285 20.3032C10.4285 22.3449 8.71772 24 6.60742 24C4.49712 24 2.78638 22.3449 2.78638 20.3032C2.78638 18.2616 4.49712 16.6065 6.60742 16.6065C8.71772 16.6065 10.4285 18.2616 10.4285 20.3032ZM15.3413 22C16.4099 22 17.1623 21.1785 17.1623 20.3032C17.1623 19.428 16.4099 18.6065 15.3413 18.6065C14.2727 18.6065 13.5203 19.428 13.5203 20.3032C13.5203 21.1785 14.2727 22 15.3413 22ZM15.3413 24C17.4516 24 19.1623 22.3449 19.1623 20.3032C19.1623 18.2616 17.4516 16.6065 15.3413 16.6065C13.231 16.6065 11.5203 18.2616 11.5203 20.3032C11.5203 22.3449 13.231 24 15.3413 24Z" fill="#FF8300"/>
</svg>
