<svg width="11" height="11" viewBox="0 0 11 11" fill="none" xmlns="http://www.w3.org/2000/svg">
<path d="M10.8714 4.28272C10.8384 4.18707 10.7783 4.10306 10.6985 4.04088C10.6187 3.97869 10.5225 3.941 10.4217 3.93237L7.44642 3.49837L6.11303 0.794973C6.07021 0.706566 6.00336 0.632007 5.92012 0.579838C5.83689 0.527669 5.74065 0.5 5.64242 0.5C5.54419 0.5 5.44794 0.527669 5.36471 0.579838C5.28148 0.632007 5.21462 0.706566 5.17181 0.794973L3.83841 3.49314L0.863111 3.93237C0.766334 3.94613 0.67535 3.98674 0.600485 4.04959C0.525619 4.11244 0.469869 4.19501 0.439562 4.28795C0.41182 4.37876 0.40933 4.47541 0.432361 4.56754C0.455391 4.65966 0.503072 4.74377 0.570287 4.81084L2.72986 6.90244L2.20696 9.87252C2.1883 9.97055 2.19807 10.0719 2.23513 10.1645C2.2722 10.2572 2.335 10.3373 2.41612 10.3954C2.4952 10.4519 2.58846 10.4853 2.68544 10.4918C2.78243 10.4982 2.87929 10.4776 2.96517 10.432L5.64242 9.03588L8.30921 10.4372C8.3826 10.4787 8.46548 10.5003 8.54974 10.5C8.66051 10.5004 8.76853 10.4656 8.85825 10.4006C8.93938 10.3425 9.00218 10.2624 9.03924 10.1698C9.07631 10.0771 9.08608 9.97578 9.06741 9.87775L8.54451 6.90767L10.7041 4.81607C10.7796 4.75211 10.8354 4.66804 10.865 4.57363C10.8946 4.47922 10.8968 4.37834 10.8714 4.28272Z" fill="#012CDB"/>
</svg>
