<svg width="12" height="11" viewBox="0 0 12 11" fill="none" xmlns="http://www.w3.org/2000/svg">
<path d="M11.3436 4.28272C11.3106 4.18707 11.2505 4.10306 11.1707 4.04088C11.0909 3.97869 10.9947 3.941 10.8939 3.93237L7.91859 3.49837L6.5852 0.794973C6.54238 0.706566 6.47552 0.632007 6.39229 0.579838C6.30906 0.527669 6.21282 0.5 6.11459 0.5C6.01636 0.5 5.92011 0.527669 5.83688 0.579838C5.75365 0.632007 5.68679 0.706566 5.64398 0.794973L4.31058 3.49314L1.33528 3.93237C1.2385 3.94613 1.14752 3.98674 1.07265 4.04959C0.997787 4.11244 0.942037 4.19501 0.91173 4.28795C0.883988 4.37876 0.881498 4.47541 0.904529 4.56754C0.927559 4.65966 0.97524 4.74377 1.04246 4.81084L3.20203 6.90244L2.67913 9.87252C2.66046 9.97055 2.67024 10.0719 2.7073 10.1645C2.74436 10.2572 2.80717 10.3373 2.88829 10.3954C2.96736 10.4519 3.06063 10.4853 3.15761 10.4918C3.25459 10.4982 3.35146 10.4776 3.43734 10.432L6.11459 9.03588L8.78138 10.4372C8.85476 10.4787 8.93765 10.5003 9.02191 10.5C9.13267 10.5004 9.2407 10.4656 9.33042 10.4006C9.41155 10.3425 9.47435 10.2624 9.51141 10.1698C9.54847 10.0771 9.55825 9.97578 9.53958 9.87775L9.01668 6.90767L11.1763 4.81607C11.2518 4.75211 11.3076 4.66804 11.3372 4.57363C11.3668 4.47922 11.369 4.37834 11.3436 4.28272ZM8.12775 6.37432C8.06643 6.43363 8.02055 6.50705 7.99412 6.58817C7.96768 6.66929 7.9615 6.75564 7.97611 6.8397L8.3526 9.03065L6.38649 7.98485C6.31084 7.94456 6.22644 7.92349 6.14073 7.92349C6.05502 7.92349 5.97062 7.94456 5.89497 7.98485L3.92886 9.03065L4.30535 6.8397C4.31996 6.75564 4.31378 6.66929 4.28735 6.58817C4.26091 6.50705 4.21503 6.43363 4.15371 6.37432L2.58501 4.80562L4.78642 4.48665C4.87113 4.47486 4.95165 4.44248 5.02094 4.39234C5.09022 4.3422 5.14615 4.27583 5.18382 4.19905L6.11459 2.2068L7.09764 4.20428C7.13531 4.28106 7.19124 4.34743 7.26052 4.39757C7.32981 4.44771 7.41033 4.48009 7.49504 4.49188L9.69645 4.81084L8.12775 6.37432Z" fill="#012CDB"/>
</svg>
