<svg width="26" height="24" viewBox="0 0 26 24" fill="none" xmlns="http://www.w3.org/2000/svg">
<path d="M25.9574 9.07852C25.8782 8.84897 25.734 8.64735 25.5424 8.4981C25.3509 8.34886 25.1201 8.2584 24.8782 8.2377L17.7374 7.19608L14.5373 0.707936C14.4345 0.495758 14.2741 0.316817 14.0743 0.191612C13.8746 0.0664062 13.6436 0 13.4078 0C13.1721 0 12.9411 0.0664062 12.7413 0.191612C12.5416 0.316817 12.3811 0.495758 12.2784 0.707936L9.07821 7.18353L1.93748 8.2377C1.70522 8.27071 1.48686 8.36817 1.30718 8.51901C1.1275 8.66985 0.993702 8.86803 0.920965 9.09107C0.854383 9.30902 0.848408 9.54099 0.903681 9.76209C0.958954 9.98318 1.07339 10.185 1.2347 10.346L6.41769 15.3659L5.16273 22.494C5.11793 22.7293 5.14139 22.9725 5.23034 23.1949C5.31929 23.4172 5.47001 23.6095 5.66471 23.749C5.85449 23.8847 6.07832 23.9648 6.31108 23.9803C6.54384 23.9958 6.77632 23.9461 6.98242 23.8368L13.4078 20.4861L19.8081 23.8494C19.9842 23.9488 20.1832 24.0007 20.3854 24C20.6512 24.0009 20.9105 23.9174 21.1258 23.7616C21.3205 23.6221 21.4712 23.4298 21.5602 23.2074C21.6491 22.9851 21.6726 22.7419 21.6278 22.5066L20.3728 15.3784L25.5558 10.3586C25.737 10.2051 25.8709 10.0033 25.942 9.77671C26.0131 9.55013 26.0185 9.30802 25.9574 9.07852ZM18.2394 14.0984C18.0922 14.2407 17.9821 14.4169 17.9187 14.6116C17.8553 14.8063 17.8404 15.0135 17.8755 15.2153L18.779 20.4736L14.0604 17.9636C13.8788 17.867 13.6763 17.8164 13.4706 17.8164C13.2649 17.8164 13.0623 17.867 12.8807 17.9636L8.16208 20.4736L9.06566 15.2153C9.10071 15.0135 9.08588 14.8063 9.02244 14.6116C8.959 14.4169 8.84889 14.2407 8.70172 14.0984L4.93684 10.3335L10.2202 9.56795C10.4235 9.53968 10.6168 9.46196 10.7831 9.34162C10.9494 9.22129 11.0836 9.062 11.174 8.87773L13.4078 4.09633L15.7671 8.89028C15.8576 9.07455 15.9918 9.23384 16.1581 9.35417C16.3243 9.47451 16.5176 9.55222 16.7209 9.5805L22.0043 10.346L18.2394 14.0984Z" fill="white"/>
</svg>
