<svg width="26" height="24" viewBox="0 0 26 24" fill="none" xmlns="http://www.w3.org/2000/svg">
<path d="M25.8246 9.07852C25.7453 8.84897 25.6012 8.64735 25.4096 8.4981C25.2181 8.34886 24.9873 8.2584 24.7453 8.2377L17.6046 7.19608L14.4045 0.707936C14.3017 0.495758 14.1413 0.316817 13.9415 0.191612C13.7417 0.0664062 13.5108 0 13.275 0C13.0393 0 12.8083 0.0664062 12.6085 0.191612C12.4088 0.316817 12.2483 0.495758 12.1455 0.707936L8.94539 7.18353L1.80467 8.2377C1.5724 8.27071 1.35404 8.36817 1.17437 8.51901C0.994689 8.66985 0.860889 8.86803 0.788152 9.09107C0.72157 9.30902 0.715595 9.54099 0.770868 9.76209C0.826142 9.98318 0.940577 10.185 1.10189 10.346L6.28488 15.3659L5.02992 22.494C4.98512 22.7293 5.00857 22.9725 5.09752 23.1949C5.18647 23.4172 5.3372 23.6095 5.5319 23.749C5.72167 23.8847 5.9455 23.9648 6.17827 23.9803C6.41103 23.9958 6.64351 23.9461 6.84961 23.8368L13.275 20.4861L19.6753 23.8494C19.8514 23.9488 20.0504 24.0007 20.2526 24C20.5184 24.0009 20.7777 23.9174 20.993 23.7616C21.1877 23.6221 21.3384 23.4298 21.4274 23.2074C21.5163 22.9851 21.5398 22.7419 21.495 22.5066L20.24 15.3784L25.423 10.3586C25.6042 10.2051 25.7381 10.0033 25.8092 9.77671C25.8803 9.55013 25.8856 9.30802 25.8246 9.07852Z" fill="white"/>
</svg>
