<svg width="21" height="18" viewBox="0 0 21 18" fill="none" xmlns="http://www.w3.org/2000/svg">
<path d="M19.1598 1.99997C18.0935 0.944674 16.6851 0.305241 15.1888 0.197052C13.6925 0.0888631 12.2068 0.519043 10.9998 1.40997C9.72744 0.463607 8.14378 0.0344814 6.56771 0.209007C4.99164 0.383534 3.54023 1.14875 2.50576 2.35055C1.47129 3.55236 0.93061 5.10149 0.992588 6.68598C1.05457 8.27048 1.71461 9.77264 2.83979 10.89L8.83979 16.94C9.40229 17.5018 10.1648 17.8173 10.9598 17.8173C11.7548 17.8173 12.5173 17.5018 13.0798 16.94L19.0798 10.89C19.6707 10.3126 20.1417 9.62417 20.4657 8.8642C20.7897 8.10423 20.9604 7.28772 20.9678 6.4616C20.9752 5.63548 20.8193 4.81603 20.5091 4.05035C20.1988 3.28467 19.7402 2.58786 19.1598 1.99997ZM17.7498 9.45997L11.7498 15.46C11.6568 15.5537 11.5462 15.6281 11.4244 15.6789C11.3025 15.7296 11.1718 15.7558 11.0398 15.7558C10.9078 15.7558 10.7771 15.7296 10.6552 15.6789C10.5334 15.6281 10.4228 15.5537 10.3298 15.46L4.32979 9.45997C3.54555 8.65831 3.1064 7.58144 3.1064 6.45997C3.1064 5.3385 3.54555 4.26162 4.32979 3.45997C5.12894 2.67096 6.20676 2.22854 7.32979 2.22854C8.45281 2.22854 9.53063 2.67096 10.3298 3.45997C10.4228 3.5537 10.5334 3.62809 10.6552 3.67886C10.7771 3.72963 10.9078 3.75577 11.0398 3.75577C11.1718 3.75577 11.3025 3.72963 11.4244 3.67886C11.5462 3.62809 11.6568 3.5537 11.7498 3.45997C12.5706 2.80686 13.603 2.47869 14.6502 2.53806C15.6975 2.59743 16.6862 3.04018 17.4279 3.78187C18.1696 4.52356 18.6123 5.5123 18.6717 6.55953C18.7311 7.60676 18.4029 8.6392 17.7498 9.45997Z" fill="#FF8300"/>
</svg>
